<svg xmlns="http://www.w3.org/2000/svg" width="998.136" height="489.235" viewBox="0 0 998.136 489.235">
  <g id="Farm" transform="translate(-48.097 -113.442)">
    <g id="XMLID_10_">
      <g id="XMLID_183_" transform="translate(73.493 235.937)">
        <path id="XMLID_227_" d="M54.2,127.456l51.288,33.86a2.807,2.807,0,0,1,.5,4.481l-16.93,16.93a2.807,2.807,0,0,1-4.482-.5L53.208,128.452C52.711,127.456,53.706,126.958,54.2,127.456Z" transform="translate(45.385 -28.365)" fill="#e1dc77"/>
        <circle id="XMLID_568_" cx="17.428" cy="17.428" r="17.428" transform="translate(67.223 67.223)" fill="#fff"/>
        <circle id="XMLID_569_" cx="6.473" cy="6.473" r="6.473" transform="translate(78.178 78.178)" fill="#9130ff"/>
        <circle id="XMLID_477_" cx="17.428" cy="17.428" r="17.428" transform="translate(67.223 67.223)" fill="none" stroke="#9130ff" stroke-miterlimit="10" stroke-width="1.5"/>
        <path id="XMLID_356_" d="M60.126,171.137,47.677,110.886c-.5-1.992,1-3.486,2.988-3.486h23.9c1.992,0,3.486,1.992,2.988,3.486L62.118,171.137A1.037,1.037,0,0,1,60.126,171.137Z" transform="translate(23.529 -107.4)" fill="#e1dc77"/>
        <path id="XMLID_574_" d="M53.206,163.905l34.358-51.786a2.807,2.807,0,0,1,4.482-.5l16.93,16.93a2.807,2.807,0,0,1-.5,4.482L54.7,164.9C53.7,165.4,52.708,164.4,53.206,163.905Z" transform="translate(45.387 -94.193)" fill="#e1dc77"/>
        <path id="XMLID_573_" d="M54.2,127.456l51.288,33.86a2.807,2.807,0,0,1,.5,4.481l-16.93,16.93a2.807,2.807,0,0,1-4.482-.5L53.208,128.452C52.711,127.456,53.706,126.958,54.2,127.456Z" transform="translate(45.385 -28.365)" fill="none" stroke="#9130ff" stroke-miterlimit="10" stroke-width="1.5"/>
        <path id="XMLID_340_" d="M92.691,128.626,58.333,179.914a2.807,2.807,0,0,1-4.482.5l-16.93-16.93a2.807,2.807,0,0,1,.5-4.482L91.2,127.63C92.691,126.634,93.189,127.63,92.691,128.626Z" transform="translate(-22.48 -28.538)" fill="#e1dc77"/>
        <path id="XMLID_571_" d="M97.037,138.505,36.786,150.954c-1.992.5-3.486-1-3.486-2.988v-23.9c0-1.992,1.992-3.486,3.486-2.988l60.251,15.934C98.033,137.509,98.033,138.505,97.037,138.505Z" transform="translate(-33.3 -53.356)" fill="#e1dc77"/>
        <path id="XMLID_570_" d="M89.307,166.791,38.019,132.433a2.807,2.807,0,0,1-.5-4.482l16.93-16.93a2.807,2.807,0,0,1,4.482.5L90.3,165.3C91.3,166.791,90.3,167.289,89.307,166.791Z" transform="translate(-20.093 -96.58)" fill="#e1dc77"/>
        <path id="XMLID_273_" d="M60.126,171.137,47.677,110.886c-.5-1.992,1-3.486,2.988-3.486h23.9c1.992,0,3.486,1.992,2.988,3.486L62.118,171.137A1.037,1.037,0,0,1,60.126,171.137Z" transform="translate(23.529 -107.4)" fill="none" stroke="#9130ff" stroke-miterlimit="10" stroke-width="1.5"/>
        <path id="XMLID_253_" d="M53.206,163.905l34.358-51.786a2.807,2.807,0,0,1,4.482-.5l16.93,16.93a2.807,2.807,0,0,1-.5,4.482L54.7,164.9C53.7,165.4,52.708,164.4,53.206,163.905Z" transform="translate(45.387 -94.193)" fill="none" stroke="#9130ff" stroke-miterlimit="10" stroke-width="1.5"/>
        <path id="XMLID_576_" d="M55.1,134.326l60.251-12.449c1.992-.5,3.486,1,3.486,2.988v23.9c0,1.992-1.992,3.486-3.486,2.988L55.1,136.318C54.1,135.322,54.1,134.326,55.1,134.326Z" transform="translate(50.468 -50.173)" fill="#e1dc77"/>
        <path id="XMLID_243_" d="M55.1,134.326l60.251-12.449c1.992-.5,3.486,1,3.486,2.988v23.9c0,1.992-1.992,3.486-3.486,2.988L55.1,136.318C54.1,135.322,54.1,134.326,55.1,134.326Z" transform="translate(50.468 -50.173)" fill="none" stroke="#9130ff" stroke-miterlimit="10" stroke-width="1.5"/>
        <path id="XMLID_219_" d="M92.691,128.626,58.333,179.914a2.807,2.807,0,0,1-4.482.5l-16.93-16.93a2.807,2.807,0,0,1,.5-4.482L91.2,127.63C92.691,126.634,93.189,127.63,92.691,128.626Z" transform="translate(-22.48 -28.538)" fill="none" stroke="#9130ff" stroke-miterlimit="10" stroke-width="1.5"/>
        <path id="XMLID_218_" d="M97.037,138.505,36.786,150.954c-1.992.5-3.486-1-3.486-2.988v-23.9c0-1.992,1.992-3.486,3.486-2.988l60.251,15.934C98.033,137.509,98.033,138.505,97.037,138.505Z" transform="translate(-33.3 -53.356)" fill="none" stroke="#9130ff" stroke-miterlimit="10" stroke-width="1.5"/>
        <path id="XMLID_217_" d="M89.307,166.791,38.019,132.433a2.807,2.807,0,0,1-.5-4.482l16.93-16.93a2.807,2.807,0,0,1,4.482.5L90.3,165.3C91.3,166.791,90.3,167.289,89.307,166.791Z" transform="translate(-20.093 -96.58)" fill="none" stroke="#9130ff" stroke-miterlimit="10" stroke-width="1.5"/>
        <line id="XMLID_213_" x1="31.869" y2="264.907" transform="translate(47.803 101.083)" fill="none" stroke="#9130ff" stroke-miterlimit="10" stroke-width="1.5"/>
        <line id="XMLID_212_" x2="31.869" y2="264.907" transform="translate(89.63 101.083)" fill="none" stroke="#9130ff" stroke-miterlimit="10" stroke-width="1.5"/>
        <line id="XMLID_208_" x2="40.334" transform="translate(64.235 211.627)" fill="none" stroke="#9130ff" stroke-miterlimit="10" stroke-width="1.5"/>
        <line id="XMLID_189_" x2="65.231" transform="translate(51.786 328.146)" fill="none" stroke="#9130ff" stroke-miterlimit="10" stroke-width="1.5"/>
        <line id="XMLID_188_" x2="49.795" y2="110.046" transform="translate(67.223 218.1)" fill="none" stroke="#9130ff" stroke-miterlimit="10" stroke-width="1.5"/>
        <line id="XMLID_185_" x1="51.786" y2="114.03" transform="translate(51.786 214.117)" fill="none" stroke="#9130ff" stroke-miterlimit="10" stroke-width="1.5"/>
        <path id="XMLID_12_" d="M60.126,128.46,47.677,188.711c-.5,1.992,1,3.486,2.988,3.486h23.9c1.992,0,3.486-1.992,2.988-3.486L62.118,128.46C61.62,127.464,60.624,127.962,60.126,128.46Z" transform="translate(23.529 -25.883)" fill="#e1dc77"/>
        <path id="XMLID_13_" d="M60.126,128.46,47.677,188.711c-.5,1.992,1,3.486,2.988,3.486h23.9c1.992,0,3.486-1.992,2.988-3.486L62.118,128.46C61.62,127.464,60.624,127.962,60.126,128.46Z" transform="translate(23.529 -25.883)" fill="none" stroke="#9130ff" stroke-miterlimit="10" stroke-width="1.5"/>
      </g>
      <g id="XMLID_499_" transform="translate(269.683 204.566)">
        <path id="XMLID_844_" d="M121.136,101.2A39.953,39.953,0,0,0,81.3,141.036h79.173C160.971,119.126,143.045,101.2,121.136,101.2Z" transform="translate(-38.477 -100.702)" fill="#fff"/>
        <path id="XMLID_521_" d="M160.971,140.936a39.836,39.836,0,1,0-79.671,0" transform="translate(-38.477 -101.1)" fill="none" stroke="#9130ff" stroke-miterlimit="10" stroke-width="1.5"/>
        <rect id="XMLID_913_" width="111.042" height="354.04" transform="translate(27.885 39.836)" fill="#a759ff"/>
        <path id="XMLID_912_" d="M211,128.1l-92.12,52.284L90.5,243.623v144.4H331.008L333,243.623l-29.877-63.239Z" transform="translate(-1.866 6.345)" fill="#491880" opacity="0.3"/>
        <path id="XMLID_911_" d="M213.2,128.1l-92.12,52.284L92.2,243.623v144.4H333.206l1.992-144.4-29.877-63.239Z" transform="translate(4.899 6.345)" fill="#e1dc77"/>
        <rect id="XMLID_910_" width="81.165" height="119.009" transform="translate(98.095 275.862)" fill="#c6abff"/>
        <rect id="XMLID_909_" width="81.165" height="119.009" transform="translate(256.94 278.352)" fill="#c6abff"/>
        <path id="XMLID_906_" d="M0,0H308.229V149.384H0Z" transform="translate(340.097 244.989)" fill="#e1dc77"/>
        <rect id="XMLID_894_" width="11.453" height="149.384" transform="translate(340.097 244.989)" fill="#c6abff"/>
        <rect id="XMLID_893_" width="296.278" height="15.934" transform="translate(351.55 244.989)" fill="#c6abff"/>
        <line id="XMLID_567_" y2="149.882" transform="translate(648.326 244.989)" fill="none" stroke="#9130ff" stroke-miterlimit="10" stroke-width="1.5"/>
        <rect id="XMLID_566_" width="315.698" height="15.436" transform="translate(343.085 230.051)" fill="#fff"/>
        <path id="XMLID_565_" d="M144,147.3H447.747v15.436H152.963" transform="translate(211.035 82.751)" fill="none" stroke="#9130ff" stroke-miterlimit="10" stroke-width="1.5"/>
        <line id="XMLID_564_" x2="27.885" transform="translate(0 96.602)" fill="none" stroke="#9130ff" stroke-miterlimit="10" stroke-width="1.5"/>
        <line id="XMLID_563_" x2="27.885" transform="translate(0 126.478)" fill="none" stroke="#9130ff" stroke-miterlimit="10" stroke-width="1.5"/>
        <line id="XMLID_562_" x2="27.885" transform="translate(0 155.857)" fill="none" stroke="#9130ff" stroke-miterlimit="10" stroke-width="1.5"/>
        <line id="XMLID_561_" x2="27.885" transform="translate(0 185.734)" fill="none" stroke="#9130ff" stroke-miterlimit="10" stroke-width="1.5"/>
        <line id="XMLID_559_" x2="27.885" transform="translate(0 215.611)" fill="none" stroke="#9130ff" stroke-miterlimit="10" stroke-width="1.5"/>
        <line id="XMLID_553_" x2="27.885" transform="translate(0 244.989)" fill="none" stroke="#9130ff" stroke-miterlimit="10" stroke-width="1.5"/>
        <line id="XMLID_552_" x2="27.885" transform="translate(0 274.866)" fill="none" stroke="#9130ff" stroke-miterlimit="10" stroke-width="1.5"/>
        <line id="XMLID_551_" x2="27.885" transform="translate(0 304.743)" fill="none" stroke="#9130ff" stroke-miterlimit="10" stroke-width="1.5"/>
        <line id="XMLID_550_" x2="27.885" transform="translate(0 334.122)" fill="none" stroke="#9130ff" stroke-miterlimit="10" stroke-width="1.5"/>
        <line id="XMLID_547_" x2="27.885" transform="translate(0 363.999)" fill="none" stroke="#9130ff" stroke-miterlimit="10" stroke-width="1.5"/>
        <path id="XMLID_542_" d="M89.1,261.133l26.391-73.2L223.545,123.7,332.6,186.939l29.877,74.194H347.534l-29.877-63.239-92.12-52.284-92.12,52.284-28.881,63.239Z" transform="translate(-7.437 -11.164)" fill="#a759ff"/>
        <path id="XMLID_541_" d="M89.1,261.133l26.391-73.2L223.545,123.7,332.6,186.939l29.877,74.194H347.534l-29.877-63.239-92.12-52.284-92.12,52.284-28.881,63.239Z" transform="translate(-7.437 -11.164)" fill="none" stroke="#9130ff" stroke-miterlimit="10" stroke-width="1.5"/>
        <line id="XMLID_540_" y2="137.931" transform="translate(98.095 256.94)" fill="none" stroke="#9130ff" stroke-miterlimit="10" stroke-width="1.5"/>
        <line id="XMLID_539_" y2="137.931" transform="translate(338.105 256.94)" fill="none" stroke="#9130ff" stroke-miterlimit="10" stroke-width="1.5"/>
        <line id="XMLID_537_" y2="119.009" transform="translate(256.94 275.862)" fill="none" stroke="#9130ff" stroke-miterlimit="10" stroke-width="1.5"/>
        <line id="XMLID_536_" y2="119.009" transform="translate(179.759 275.862)" fill="none" stroke="#9130ff" stroke-miterlimit="10" stroke-width="1.5"/>
        <circle id="XMLID_555_" cx="25.893" cy="25.893" r="25.893" transform="translate(192.207 182.746)" fill="#fff"/>
        <circle id="XMLID_534_" cx="25.893" cy="25.893" r="25.893" transform="translate(192.207 182.746)" fill="none" stroke="#9130ff" stroke-miterlimit="10" stroke-width="1.5"/>
        <circle id="XMLID_554_" cx="12.947" cy="12.947" r="12.947" transform="translate(205.154 195.693)" fill="#a759ff"/>
        <circle id="XMLID_533_" cx="12.947" cy="12.947" r="12.947" transform="translate(205.154 195.693)" fill="none" stroke="#9130ff" stroke-miterlimit="10" stroke-width="1.5"/>
        <line id="XMLID_532_" x2="240.01" transform="translate(98.095 275.862)" fill="none" stroke="#9130ff" stroke-miterlimit="10" stroke-width="1.5"/>
        <line id="XMLID_530_" x2="81.663" y2="119.009" transform="translate(98.095 275.862)" fill="none" stroke="#9130ff" stroke-miterlimit="10" stroke-width="1.5"/>
        <line id="XMLID_529_" x1="81.663" y2="119.009" transform="translate(98.095 275.862)" fill="none" stroke="#9130ff" stroke-miterlimit="10" stroke-width="1.5"/>
        <line id="XMLID_527_" x1="81.165" y2="119.009" transform="translate(256.94 275.862)" fill="none" stroke="#9130ff" stroke-miterlimit="10" stroke-width="1.5"/>
        <line id="XMLID_525_" x2="81.165" y2="119.009" transform="translate(256.94 275.862)" fill="none" stroke="#9130ff" stroke-miterlimit="10" stroke-width="1.5"/>
        <path id="XMLID_523_" d="M188.346,216.158V109.1H78.3V464.136" transform="translate(-50.415 -69.264)" fill="none" stroke="#9130ff" stroke-miterlimit="10" stroke-width="1.5"/>
        <line id="XMLID_520_" y2="312.212" transform="translate(55.77 64.733)" fill="none" stroke="#9130ff" stroke-miterlimit="10" stroke-width="1.5"/>
        <line id="XMLID_516_" y2="116.519" transform="translate(81.663 260.924)" fill="none" stroke="#9130ff" stroke-miterlimit="10" stroke-width="1.5"/>
        <line id="XMLID_515_" y2="156.355" transform="translate(81.663 65.231)" fill="none" stroke="#9130ff" stroke-miterlimit="10" stroke-width="1.5"/>
        <line id="XMLID_514_" y2="96.104" transform="translate(107.058 65.729)" fill="none" stroke="#9130ff" stroke-miterlimit="10" stroke-width="1.5"/>
        <path id="XMLID_512_" d="M100.585,114.3H93.614A21.04,21.04,0,0,0,72.7,135.214V443.442" transform="translate(-72.7 -48.571)" fill="none" stroke="#9130ff" stroke-miterlimit="10" stroke-width="1.5"/>
        <rect id="XMLID_557_" width="115.026" height="23.901" transform="translate(363.003 275.862)" fill="#a759ff"/>
        <rect id="XMLID_556_" width="115.026" height="23.901" transform="translate(511.391 275.862)" fill="#a759ff"/>
        <rect id="XMLID_503_" width="115.026" height="23.901" transform="translate(363.003 275.862)" fill="none" stroke="#9130ff" stroke-miterlimit="10" stroke-width="1.5"/>
        <rect id="XMLID_502_" width="115.026" height="23.901" transform="translate(511.391 275.862)" fill="none" stroke="#9130ff" stroke-miterlimit="10" stroke-width="1.5"/>
      </g>
      <line id="XMLID_831_" x1="294.784" transform="translate(502.722 224.982)" fill="none" stroke="#9130ff" stroke-linecap="round" stroke-miterlimit="10" stroke-width="1.5"/>
      <line id="XMLID_809_" x2="12.449" transform="translate(477.327 224.982)" fill="none" stroke="#9130ff" stroke-linecap="round" stroke-miterlimit="10" stroke-width="1.5"/>
      <g id="XMLID_806_" transform="translate(436.495 214.525)">
        <line id="XMLID_808_" x1="20.914" transform="translate(0 10.457)" fill="none" stroke="#9130ff" stroke-linecap="round" stroke-miterlimit="10" stroke-width="1.5"/>
        <line id="XMLID_807_" y1="21.412" transform="translate(10.457)" fill="none" stroke="#9130ff" stroke-linecap="round" stroke-miterlimit="10" stroke-width="1.5"/>
      </g>
      <g id="XMLID_796_" transform="translate(556.002 144.812)">
        <line id="XMLID_805_" x2="21.412" transform="translate(0 10.955)" fill="none" stroke="#9130ff" stroke-linecap="round" stroke-miterlimit="10" stroke-width="1.5"/>
        <line id="XMLID_797_" y1="21.412" transform="translate(10.955)" fill="none" stroke="#9130ff" stroke-linecap="round" stroke-miterlimit="10" stroke-width="1.5"/>
      </g>
      <g id="XMLID_789_" transform="translate(856.264 367.394)">
        <line id="XMLID_792_" x2="21.412" transform="translate(0 10.955)" fill="none" stroke="#9130ff" stroke-linecap="round" stroke-miterlimit="10" stroke-width="1.5"/>
        <line id="XMLID_791_" y1="21.412" transform="translate(10.457)" fill="none" stroke="#9130ff" stroke-linecap="round" stroke-miterlimit="10" stroke-width="1.5"/>
      </g>
      <g id="XMLID_786_" transform="translate(245.284 164.73)">
        <line id="XMLID_788_" x1="14.938" y1="14.938" fill="none" stroke="#9130ff" stroke-linecap="round" stroke-miterlimit="10" stroke-width="1.5"/>
        <line id="XMLID_787_" y1="14.938" x2="14.938" fill="none" stroke="#9130ff" stroke-linecap="round" stroke-miterlimit="10" stroke-width="1.5"/>
      </g>
      <g id="XMLID_695_" transform="translate(859.251 158.755)">
        <line id="XMLID_697_" y1="14.938" x2="15.436" fill="none" stroke="#9130ff" stroke-linecap="round" stroke-miterlimit="10" stroke-width="1.5"/>
        <line id="XMLID_696_" x1="15.436" y1="14.938" fill="none" stroke="#9130ff" stroke-linecap="round" stroke-miterlimit="10" stroke-width="1.5"/>
      </g>
      <line id="XMLID_694_" x2="95.606" transform="translate(127.271 172.199)" fill="none" stroke="#9130ff" stroke-linecap="round" stroke-miterlimit="10" stroke-width="1.5"/>
      <line id="XMLID_680_" x2="149.384" transform="translate(337.902 155.767)" fill="none" stroke="#9130ff" stroke-linecap="round" stroke-miterlimit="10" stroke-width="1.5"/>
      <line id="XMLID_577_" x1="104.569" transform="translate(433.01 289.217)" fill="none" stroke="#9130ff" stroke-linecap="round" stroke-miterlimit="10" stroke-width="1.5"/>
      <line id="XMLID_575_" x1="184.24" transform="translate(780.078 320.587)" fill="none" stroke="#9130ff" stroke-linecap="round" stroke-miterlimit="10" stroke-width="1.5"/>
      <line id="XMLID_535_" x1="23.901" transform="translate(513.677 155.767)" fill="none" stroke="#9130ff" stroke-linecap="round" stroke-miterlimit="10" stroke-width="1.5"/>
      <path id="XMLID_388_" d="M61.2,88.577,70.661,83.1l9.461,5.477V99.532l-9.461,5.477L61.2,99.532Z" transform="translate(151.219 31.836)" fill="#9130ff"/>
      <path id="XMLID_62_" d="M191.8,117.777l9.461-5.477,9.461,5.477v10.955l-9.461,5.477-9.461-5.477Z" transform="translate(670.937 148.036)" fill="#9130ff"/>
      <path id="XMLID_387_" d="M218.2,162.888l5.477-2.988,5.975,2.988v6.473l-5.975,3.486-5.477-3.486Z" transform="translate(775.995 337.458)" fill="#9130ff"/>
      <path id="XMLID_386_" d="M28.2,107.988,33.677,105l5.975,2.988v6.473l-5.975,3.486L28.2,114.461Z" transform="translate(19.897 118.986)" fill="#9130ff"/>
      <path id="XMLID_385_" d="M220.1,134.077l9.461-5.477,9.461,5.477v10.955l-9.461,5.477-9.461-5.477Z" transform="translate(783.556 212.901)" fill="#9130ff"/>
      <path id="XMLID_383_" d="M159.2,90.269,172.147,82.8,184.6,90.269v14.44l-12.449,7.469L159.2,104.71Z" transform="translate(541.207 30.642)" fill="#9130ff"/>
      <g id="XMLID_41_" transform="translate(204.95 511.301)">
        <circle id="XMLID_848_" cx="25.395" cy="25.395" r="25.395" fill="#c6abff"/>
        <circle id="XMLID_847_" cx="25.395" cy="25.395" r="25.395" fill="none" stroke="#9130ff" stroke-linecap="round" stroke-miterlimit="10" stroke-width="1.5"/>
        <line id="XMLID_72_" y2="73.198" transform="translate(25.395 17.428)" fill="none" stroke="#9130ff" stroke-linecap="round" stroke-miterlimit="10" stroke-width="1.5"/>
      </g>
      <g id="XMLID_878_" transform="translate(855.268 529.227)">
        <circle id="XMLID_877_" cx="36.35" cy="36.35" r="36.35" fill="#fff"/>
        <circle id="XMLID_871_" cx="36.35" cy="36.35" r="36.35" fill="none" stroke="#9130ff" stroke-miterlimit="10" stroke-width="1.5"/>
        <circle id="XMLID_875_" cx="25.395" cy="25.395" r="25.395" transform="translate(10.955 10.955)" fill="none" stroke="#9130ff" stroke-miterlimit="10" stroke-width="1.5"/>
        <circle id="XMLID_876_" cx="10.955" cy="10.955" r="10.955" transform="translate(25.395 25.395)" fill="none" stroke="#9130ff" stroke-miterlimit="10" stroke-width="1.5"/>
      </g>
      <g id="XMLID_879_" transform="translate(928.964 529.227)">
        <circle id="XMLID_887_" cx="36.35" cy="36.35" r="36.35" fill="#fff"/>
        <circle id="XMLID_883_" cx="36.35" cy="36.35" r="36.35" fill="none" stroke="#9130ff" stroke-miterlimit="10" stroke-width="1.5"/>
        <circle id="XMLID_882_" cx="25.395" cy="25.395" r="25.395" transform="translate(10.955 10.955)" fill="none" stroke="#9130ff" stroke-miterlimit="10" stroke-width="1.5"/>
        <circle id="XMLID_880_" cx="10.955" cy="10.955" r="10.955" transform="translate(25.395 25.395)" fill="none" stroke="#9130ff" stroke-miterlimit="10" stroke-width="1.5"/>
      </g>
      <g id="XMLID_888_" transform="translate(891.618 465.988)">
        <circle id="XMLID_892_" cx="36.35" cy="36.35" r="36.35" fill="#fff"/>
        <circle id="XMLID_891_" cx="36.35" cy="36.35" r="36.35" fill="none" stroke="#9130ff" stroke-miterlimit="10" stroke-width="1.5"/>
        <circle id="XMLID_890_" cx="25.395" cy="25.395" r="25.395" transform="translate(10.955 10.955)" fill="none" stroke="#9130ff" stroke-miterlimit="10" stroke-width="1.5"/>
        <circle id="XMLID_889_" cx="10.955" cy="10.955" r="10.955" transform="translate(25.395 25.395)" fill="none" stroke="#9130ff" stroke-miterlimit="10" stroke-width="1.5"/>
      </g>
      <g id="XMLID_311_" transform="translate(64.53 601.927)">
        <line id="XMLID_315_" x2="916.719" transform="translate(36.848)" fill="none" stroke="#9130ff" stroke-linecap="round" stroke-miterlimit="10" stroke-width="1.5"/>
        <line id="XMLID_314_" x2="13.445" transform="translate(967.509)" fill="none" stroke="#9130ff" stroke-linecap="round" stroke-miterlimit="10" stroke-width="1.5"/>
        <line id="XMLID_313_" x1="23.403" fill="none" stroke="#9130ff" stroke-linecap="round" stroke-miterlimit="10" stroke-width="1.5"/>
      </g>
    </g>
  </g>
</svg>
