<svg xmlns="http://www.w3.org/2000/svg" width="91.078" height="28.125" viewBox="0 0 91.078 28.125">
    <defs>
        <clipPath id="clip-path">
            <circle id="Ellipse_42" cx="13.184" cy="13.184" r="13.184" class="cls-1"/>
        </clipPath>
        <style>
            .cls-1{fill:#fff}.cls-2{fill:#f4f590}.cls-4{fill:none}
        </style>
    </defs>
    <g id="Group_11336" transform="translate(-328 -376.083)">
        <g id="Group_11317" transform="translate(328 376.083)">
            <g id="Group_11186">
                <path id="Subtraction_3" d="M14.062 28.125a14.167 14.167 0 0 1-2.834-.286A13.985 13.985 0 0 1 6.2 25.723a14.1 14.1 0 0 1-5.095-6.187A13.992 13.992 0 0 1 .286 16.9a14.2 14.2 0 0 1 0-5.668A13.986 13.986 0 0 1 2.4 6.2a14.1 14.1 0 0 1 6.189-5.095 13.992 13.992 0 0 1 2.64-.819 14.2 14.2 0 0 1 5.668 0A13.985 13.985 0 0 1 21.925 2.4a14.1 14.1 0 0 1 5.095 6.189 13.992 13.992 0 0 1 .819 2.64 14.2 14.2 0 0 1 0 5.668 13.985 13.985 0 0 1-2.116 5.028 14.1 14.1 0 0 1-6.187 5.095 13.992 13.992 0 0 1-2.64.819 14.167 14.167 0 0 1-2.834.286zm0-27.246a13.281 13.281 0 0 0-2.657.268A13.111 13.111 0 0 0 6.691 3.13a13.222 13.222 0 0 0-4.776 5.8 13.117 13.117 0 0 0-.768 2.475 13.312 13.312 0 0 0 0 5.314 13.111 13.111 0 0 0 1.983 4.714 13.222 13.222 0 0 0 5.8 4.776 13.117 13.117 0 0 0 2.475.768 13.312 13.312 0 0 0 5.314 0 13.111 13.111 0 0 0 4.714-1.984 13.222 13.222 0 0 0 4.776-5.8 13.116 13.116 0 0 0 .768-2.475 13.312 13.312 0 0 0 0-5.314 13.111 13.111 0 0 0-1.984-4.714 13.222 13.222 0 0 0-5.8-4.776 13.117 13.117 0 0 0-2.475-.768 13.281 13.281 0 0 0-2.656-.267z" class="cls-2"/>
                <g id="Mask_Group_6" clip-path="url(#clip-path)" transform="translate(.785 .973)">
                    <g id="Group_11172" transform="translate(-1.467 3.292)">
                        <path id="Path_285" d="M31.939 19.363a2.911 2.911 0 0 0-2.405.6c-1.013.918-1.076 1.519-1.076 1.519a3.626 3.626 0 0 0-1.551.886 9.624 9.624 0 0 0-.918 1.709 5.022 5.022 0 0 0-1.013 2.215 5.372 5.372 0 0 0 .38 3.228s-.728.7 0 3.069a13.331 13.331 0 0 0 3.513 5.854c1.361 1.139 3.354 2.658 5 2.943a11.959 11.959 0 0 0 3.036.128 8.289 8.289 0 0 1-2.878-1.362 13.235 13.235 0 0 0-2.848-2.089 2.436 2.436 0 0 1-1.579-1.485c-.285-.823.127-2.215-.158-2.785a4.276 4.276 0 0 0-.477-.793s.443-.38.127-1.361-.664-1.044-.664-1.044a2.4 2.4 0 0 0 .918-1.013 1.5 1.5 0 0 0-.032-1.2c-.127-.253-.759-.538-.918-1.013s-.071-1.182.55-1.05c0 0 .4.955 1.824.543s1.044-1.139 1.044-1.139a1.272 1.272 0 0 1 1.382.013c.77.462.359.462.359.462s-1.2.949-.7 1.646.708.621.708.621-.455-1.222.4-1.571a2.229 2.229 0 0 1 1.314-.219s-.46.535.015.946a1.021 1.021 0 0 0 1.5.055c.431-.466.4-.339.4-.339a1.785 1.785 0 0 0-.032.7c.063.348-.285.57.38 1.266a.843.843 0 0 0 .348 1.266.971.971 0 0 0 1.487-.38c.285-.38.981.095 1.044.538a5.44 5.44 0 0 1 .064.669.794.794 0 0 0 .7-.7 2.478 2.478 0 0 0 .791.918c.411.19 1.4-.179 1.4-.179s-.011.907.495 1.128a5 5 0 0 0 1.057.311 2.2 2.2 0 0 0 1.475-.659 2.206 2.206 0 0 0 1.582.854 1.85 1.85 0 0 0 1.266-.316s-.981-.38-.918-1.234-.063-1.424-.665-1.551a1.655 1.655 0 0 0 1.266-.6c.506-.633-.317-1.962-.317-1.962s.127 1.329-1.456.949a2.334 2.334 0 0 0-.918-1.139 2.841 2.841 0 0 0-1.551-.38 1.337 1.337 0 0 0-.665-.981 3.958 3.958 0 0 0-1.74-.032 2.672 2.672 0 0 0-1.8-.032 4.922 4.922 0 0 0 .7-2.215 2.071 2.071 0 0 0-2.12-1.962 3.1 3.1 0 0 0-1.365-1.998 2.417 2.417 0 0 0-2.089-.127 1.29 1.29 0 0 0-1.139-.791 7.576 7.576 0 0 0-2.533.665z" class="cls-4" transform="translate(-24.906 -18.645)"/>
                        <g id="Group_11169" transform="translate(.165 .122)">
                            <path id="Path_38" d="M79.839 28.72c-.5-.5-1.568.021-2.033.367a2.188 2.188 0 0 0-1.052 1.847c.019.278.332.458.431.122.381-1.3 1.669-1.577 2.645-2.291.011-.01.022-.032.009-.045z" class="cls-4" transform="translate(-73.022 -27.868)"/>
                            <path id="Path_39" d="M47.355 60.54c-.09-.025-.171-.116-.272-.143a.989.989 0 0 0-.527.024 1.733 1.733 0 0 0-.787.461 1.716 1.716 0 0 0-.5 1.853.2.2 0 0 0 .253.136c.271-.128.266-.392.37-.648a2.306 2.306 0 0 1 .35-.6c.128-.157.277-.311.42-.455a3.154 3.154 0 0 1 .691-.613c.011-.006.009-.013.002-.015z" class="cls-4" transform="translate(-43.76 -57.39)"/>
                            <path id="Path_40" d="M124.417 19.842a2.567 2.567 0 0 0-2.85.888c-.009.011.015.014.021.012.515-.2 3.427-.827 3.042.412-.05.162.02.636.282.441.641-.478.088-1.495-.495-1.753z" class="cls-4" transform="translate(-114.555 -19.684)"/>
                            <path id="Path_41" d="M173.546 27.457v.005c.1.152.351.145.52.185a7.042 7.042 0 0 1 .889.236c.432.163 1.653.949.951 1.5-.3.234.114.925.459.755 1.566-.764-1.408-4.353-2.819-2.681z" class="cls-4" transform="translate(-162.726 -26.481)"/>
                            <path id="Path_42" d="M224.545 65.418a1.455 1.455 0 0 0-1.48-.962c-.014 0-.054.018-.044.041a1.6 1.6 0 0 0 .485.584 2.44 2.44 0 0 1 .35.331 1.67 1.67 0 0 1 .092 1.26 5.292 5.292 0 0 0-.155 1.472c.018.248.293 0 .3-.145a5.426 5.426 0 0 1 .388-1.617 1.217 1.217 0 0 0 .064-.964z" class="cls-4" transform="translate(-208.575 -61.161)"/>
                            <path id="Path_43" d="M89.6 74.56a1.436 1.436 0 0 0-2.437.3c-.054.1.1.076.142.037a1.435 1.435 0 0 1 2.057.212c.291.315.401-.346.238-.549z" class="cls-4" transform="translate(-82.662 -70.027)"/>
                            <path id="Path_44" d="M136.259 72.055a2.465 2.465 0 0 0-1.836-.724 3.164 3.164 0 0 0-2.089 1.058c-.059.049.023.078.066.06a6.3 6.3 0 0 1 1.5-.3c.11-.014.221-.026.331-.034a.486.486 0 0 0 .342.212c.277-.014.4-.041.594.179.109.127.189.269.312.387a.807.807 0 0 0 .539.274c.635-.009.525-.774.241-1.112z" class="cls-4" transform="translate(-124.516 -67.547)"/>
                            <path id="Path_45" d="M179.874 111.513a.666.666 0 0 0-.486-.338c-.15-.008-.344.068-.36.237-.021.212.413.356.526.5a.317.317 0 0 1-.031.444.462.462 0 0 0-.028.478c.053.1.21.23.309.092a1.282 1.282 0 0 0 .07-1.413z" class="cls-4" transform="translate(-167.806 -104.471)"/>
                            <path id="Path_46" d="M222.969 108.222c-.25-.109-.584-.044-.854-.143a1.931 1.931 0 0 1-.838-.585c-.487-.593-.34-1.358-.771-1.952-.022-.031-.114.006-.1.045.223.478.06.966.143 1.466a2.06 2.06 0 0 0 .354.831 2.532 2.532 0 0 0 .872.774c.027.015.056.028.084.042a.573.573 0 0 0 .107.387.779.779 0 0 0 1.142.1.651.651 0 0 0-.139-.965z" class="cls-4" transform="translate(-206.155 -99.24)"/>
                            <path id="Path_48" d="M91.782 58.869a.319.319 0 0 0-.292.1.709.709 0 0 0-.21.474c-.007.068.016.154.1.161s.15-.082.186-.146c.068-.12.1-.247.16-.37a.673.673 0 0 0 .074-.188.031.031 0 0 0-.018-.031z" class="cls-4" transform="translate(-86.487 -55.989)"/>
                            <path id="Path_49" d="M55.391 61.945a1.547 1.547 0 0 0-.748.908c-.032.1-.039.449.161.383a3.6 3.6 0 0 0 .92-.68c.121-.092.26-.155.386-.239.038-.026.275-.146.28-.22.029-.456-.771-.27-.999-.152z" class="cls-4" transform="translate(-52.52 -58.719)"/>
                            <path id="Path_50" d="M131.009 42.515a.977.977 0 0 1-.057-.1 1.041 1.041 0 0 0-.077-.077.5.5 0 0 0-.211-.12.714.714 0 0 0-.215-.037.274.274 0 0 0-.2.112c-.078.079-.152.332-.006.388.267.1.491-.172.753-.154.004 0 .021-.006.013-.012z" class="cls-4" transform="translate(-122.522 -40.531)"/>
                            <path id="Path_51" d="M74.24 86.753a1.421 1.421 0 0 1-.433-.907c-.026-.105-.192.008-.2.075-.06.512-.028 1.192.507 1.452.278.136.286-.496.126-.62z" class="cls-4" transform="translate(-70.089 -80.959)"/>
                            <path id="Path_52" d="M98.011 102.072a.035.035 0 0 0-.027.022.577.577 0 0 0 0 .287.678.678 0 0 1-.077.41c-.146.287-.419.333-.669.487-.229.141 0 .724.246.72a1.052 1.052 0 0 0 .978-.848c.068-.318.03-1.173-.451-1.078z" class="cls-4" transform="translate(-91.918 -96.028)"/>
                            <path id="Path_53" d="M135.828 121.142a2.723 2.723 0 0 0-1.365.79c-.225.262-.492.747-.261 1.084.088.128.278-.071.26-.18a.793.793 0 0 1 .247-.86 2.1 2.1 0 0 1 .353-.239 4.232 4.232 0 0 0 .785-.581c.012-.013-.011-.017-.019-.014z" class="cls-4" transform="translate(-126.183 -113.708)"/>
                            <path id="Path_54" d="M26.654 104.717a5.18 5.18 0 0 1-.17-1.47 5.9 5.9 0 0 1 .163-1.25 2.669 2.669 0 0 0 .134-.668c0-.008-.015-.005-.019 0a3.2 3.2 0 0 0-.879 2.5 4.951 4.951 0 0 0 .206 1.241c.271.9.813 1.649 1.008 2.587.049.235.349.323.4.04.203-1.026-.576-2.034-.843-2.98z" class="cls-4" transform="translate(-25.881 -95.342)"/>
                            <path id="Path_55" d="M38.215 184.785c-.482-.881-1.032-1.723-1.468-2.629a20.961 20.961 0 0 1-.944-2.51h-.011c-.173 1.972 1.071 4.018 2.126 5.59.22.325.409-.247.297-.451z" class="cls-4" transform="translate(-35.052 -167.924)"/>
                            <path id="Path_56" d="M61.767 138.968c-.284-.283-.4.275-.286.468a1.854 1.854 0 0 1 .334 1.143c-.036.425-.229.807-.3 1.225-.014.088.116.036.141 0 .163-.247.453-.37.6-.641a1.63 1.63 0 0 0 .167-.644 1.957 1.957 0 0 0-.656-1.551z" class="cls-4" transform="translate(-58.832 -130.155)"/>
                            <path id="Path_57" d="M61.208 121.118a2.51 2.51 0 0 1-.22-2.111c.022-.065-.092-.038-.113-.006a2.229 2.229 0 0 0 .039 2.509c.164.233.379-.233.294-.392z" class="cls-4" transform="translate(-57.971 -111.693)"/>
                            <path id="Path_58" d="M72.039 186.375c-.04-.043-.141.02-.139.071.008.2.028.407.041.611a5.268 5.268 0 0 1-.049.808c-.02.225.254.484.36.173a1.776 1.776 0 0 0-.213-1.663z" class="cls-4" transform="translate(-68.52 -174.148)"/>
                            <path id="Path_59" d="M77.152 222.858a5.879 5.879 0 0 1-.73-.855 2.844 2.844 0 0 1-.29-1.283 5.759 5.759 0 0 0-.34-1.941c-.019-.048-.125-.006-.121.039.143 1.616-.226 3.442 1.267 4.547.216.16.331-.374.214-.507z" class="cls-4" transform="translate(-72.022 -204.171)"/>
                            <path id="Path_60" d="M85.017 278.509a7.572 7.572 0 0 1-2.949-1.595c-.671-.6-1.29-1.252-1.966-1.848-.032-.028-.141.012-.113.059a10.007 10.007 0 0 0 2.283 2.736 5.06 5.06 0 0 0 2.71 1.295c.266.014.253-.578.035-.647z" class="cls-4" transform="translate(-76.021 -256.347)"/>
                            <path id="Path_61" d="M239.311 114.688a.561.561 0 0 0-.55.487 1.426 1.426 0 0 0 .279 1.165.1.1 0 0 0 .074.03l.114-.022c.046-.009.1-.045.1-.1 0-.135.036-.121-.018-.272a.533.533 0 0 1-.069-.348c.046-.164.224-.208.3-.363s-.007-.565-.23-.577z" class="cls-4" transform="translate(-223.131 -107.727)"/>
                            <path id="Path_62" d="M268.508 113.365a1.672 1.672 0 0 0-.481-.175c-.407-.066-.56.288-.669.618-.013.039-.023.121.036.132.5.1.925-.066 1.292.362.1.12.285.264.429.114.416-.431-.322-.904-.607-1.051z" class="cls-4" transform="translate(-249.655 -106.331)"/>
                            <path id="Path_63" d="M302.769 133.774c-.782-.6-.982-2.147-2.219-1.507-.029.015-.081.087-.014.089.535.02.995.6 1.214 1.03a2.43 2.43 0 0 0 .924 1.076c.444.266.338-.501.095-.688z" class="cls-4" transform="translate(-280.382 -123.878)"/>
                            <path id="Path_64" d="M335.723 146.5c-.02-.04-.152-.05-.144-.014a7.205 7.205 0 0 1-.752.081c-.213.014-.173.335-.112.459a.538.538 0 0 0 .479.349.279.279 0 0 0 .246-.13 2.449 2.449 0 0 0 .223-.482c.023-.063.093-.2.06-.263z" class="cls-4" transform="translate(-312.042 -137.17)"/>
                            <path id="Path_65" d="M322.976 177.776a1.482 1.482 0 0 1-.149-.565 1.862 1.862 0 0 0-.272-.774 1.348 1.348 0 0 0-1.167-.736c-.162 0-.317.331-.153.419.2.1.632.272.752.461.064.1.021.325.028.447a1.851 1.851 0 0 0 .132.681c.1.214.879 1.07.936.417a.662.662 0 0 0-.107-.35z" class="cls-4" transform="translate(-299.53 -164.269)"/>
                            <path id="Path_66" d="M259.586 174.38c-.026-.133-.218.047-.228.113 0 .028-.009.055-.014.083a1.055 1.055 0 0 1-.269.2 1.252 1.252 0 0 1-.192.086c-.072.015-.09.027-.054.037-.205-.03-.509.034-.5.286.008.28.354.445.581.5a1.205 1.205 0 0 0 .373.024.354.354 0 0 0 .351-.342 2.985 2.985 0 0 0-.048-.987z" class="cls-4" transform="translate(-241.297 -163.001)"/>
                            <path id="Path_68" d="M269.24 142.334a2.206 2.206 0 0 0-.715-1.129 1.57 1.57 0 0 0-.927-.306c-.313-.56-1.291-1.083-1.678-.569-.105.14-.13.661.158.622a1.655 1.655 0 0 1 .649-.022.9.9 0 0 1 .231.1c-.1.121-.013.34.084.451a.76.76 0 0 0 .746.235c.373-.116 1.087.394 1.373.647.021.02.093.007.079-.029z" class="cls-4" transform="translate(-248.266 -131.295)"/>
                            <path id="Path_84" d="M200.176 75.319c-.234-.053-.335.48-.106.55.336.1.3.584.446.838.038.064.174-.012.164-.076-.072-.431.082-1.177-.504-1.312z" class="cls-4" transform="translate(-187.188 -71.24)"/>
                            <path id="Path_85" d="M42.732 116.786c-.012-.3-.063-.6-.07-.9 0-.149.03-.321-.073-.439-.019-.022-.067-.008-.081.013a2.016 2.016 0 0 0-.129 1.558c.027.112.107.206.226.142s.132-.252.127-.374z" class="cls-4" transform="translate(-41.083 -108.421)"/>
                            <path id="Path_86" d="M47.7 156.583a1.724 1.724 0 0 0-.289-.579c-.031-.044-.134-.009-.13.046a2.39 2.39 0 0 0 .15.751c.069.151.302-.101.269-.218z" class="cls-4" transform="translate(-45.716 -145.998)"/>
                            <path id="Path_87" d="M53.309 200.56a4.155 4.155 0 0 1-.542-1.717c-.008-.074-.141-.019-.149.032a3.12 3.12 0 0 0 .394 2.114c.183.323.427-.21.297-.429z" class="cls-4" transform="translate(-50.617 -185.684)"/>
                            <path id="Path_88" d="M37.21 209.937a10.827 10.827 0 0 1-3.42-3.007 9.028 9.028 0 0 1-1.874-3.37c-.017-.062-.152.005-.148.06a7.376 7.376 0 0 0 2.017 4.129c.5.578 1.05 1.115 1.607 1.64a4.466 4.466 0 0 0 1.728 1.185c.306.087.323-.531.09-.637z" class="cls-4" transform="translate(-31.337 -190.065)"/>
                            <path id="Path_89" d="M50.793 103.16c-.36-.014-.48.357-.563.659a2.267 2.267 0 0 0-.038 1.079c.015.074.146 0 .148-.052a1.762 1.762 0 0 1 .1-.748.933.933 0 0 1 .289-.285.391.391 0 0 0 .217-.339c.017-.103-.011-.308-.153-.314z" class="cls-4" transform="translate(-48.367 -97.044)"/>
                            <path id="Path_91" d="M57.289 109.841a1.271 1.271 0 0 0-.889 1.059 1.344 1.344 0 0 0 .315 1.284c.012.015.064 0 .053-.02a1.631 1.631 0 0 1-.157-.934c.086-.448.516-.625.809-.9.111-.106.073-.53-.131-.489z" class="cls-4" transform="translate(-54.127 -103.233)"/>
                            <path id="Path_92" d="M66.335 112.257c-.5.1-.621.537-.622 1.014a1.909 1.909 0 0 0 .382 1.337c.025.022.089 0 .088-.037-.006-.306-.134-.6-.131-.906a.8.8 0 0 1 .274-.619c.111-.1.244-.127.293-.277s-.059-.557-.284-.512z" class="cls-4" transform="translate(-62.794 -105.471)"/>
                            <path id="Path_95" d="M66.856 168.21c-.142.091-.132.264-.17.412-.066.26-.2.495-.268.752-.013.048.06.03.079.013a1.565 1.565 0 0 0 .503-1.073c0-.088-.051-.163-.144-.104z" class="cls-4" transform="translate(-63.447 -157.308)"/>
                            <path id="Path_98" d="M77.544 151.638c-.011-.036-.073 0-.079.021a4.021 4.021 0 0 1-.145.583c-.092.239-.262.431-.339.675-.042.133.084.525.265.337a1.516 1.516 0 0 0 .3-.761 1.7 1.7 0 0 0-.002-.855z" class="cls-4" transform="translate(-73.23 -141.955)"/>
                            <path id="Path_99" d="M133.666 121.876c-.264-.119-.569.215-.727.4a1.6 1.6 0 0 0-.368 1.213c.027.269.276.035.267-.14a1.455 1.455 0 0 1 .355-.854c.055-.081.108-.161.166-.24.081-.11.173-.316.307-.375v-.004z" class="cls-4" transform="translate(-124.746 -114.365)"/>
                            <path id="Path_100" d="M193.611 151.85a6.152 6.152 0 0 0-.537-.652c-.048-.057-.168.032-.152.1a1.777 1.777 0 0 0 .2.5.924.924 0 0 0 .31.36c.129.066.233-.223.179-.308z" class="cls-4" transform="translate(-180.682 -141.545)"/>
                            <path id="Path_101" d="M200.819 158.672a.908.908 0 0 1-.471-.371 1 1 0 0 1-.2-.323c-.039-.134.021-.215.054-.339.015-.056.036-.245-.083-.224-.348.062-.309.611-.2.853a.773.773 0 0 0 .871.477c.037-.006.084-.063.029-.073z" class="cls-4" transform="translate(-187.098 -147.322)"/>
                            <path id="Path_102" d="M211.067 159.352a.843.843 0 0 1-.344-.214.509.509 0 0 1-.171-.529c.012-.078 0-.2-.09-.235-.065-.023-.207.119-.176.137-.062-.035-.07.344-.065.391a.821.821 0 0 0 .154.418.56.56 0 0 0 .656.116c.024-.008.09-.07.036-.084z" class="cls-4" transform="translate(-196.713 -148.21)"/>
                            <path id="Path_103" d="M222.453 158.8a.672.672 0 0 1-.334-.265c-.1-.131-.056-.218-.045-.371 0-.063-.019-.163-.092-.179-.054-.012-.178.115-.159.124-.065-.033-.069.366-.061.412a.649.649 0 0 0 .119.292.463.463 0 0 0 .518.094c.031-.007.129-.087.054-.107z" class="cls-4" transform="translate(-207.407 -147.85)"/>
                            <path id="Path_104" d="M202.5 152.716a.923.923 0 0 0-.379-.19c.013 0 .025-.007.037-.009s.024-.012.016-.021a.637.637 0 0 0-1.024.066.349.349 0 0 0-.03.125c-.682.224-1.346.4-1.923-.188-.017-.017-.068 0-.068.023a.936.936 0 0 0 1 .886 2 2 0 0 0 .9-.224c.382-.188.972-.733 1.367-.372.04.041.16-.051.104-.096z" class="cls-4" transform="translate(-186.436 -142.556)"/>
                            <path id="Path_119" d="M192.009 105.925a1.268 1.268 0 0 0-.894-1.123c-.006 0-.028 0-.018.013a1.644 1.644 0 0 1 .7 1.216c.014.521-.368.767-.474 1.231-.053.235.19.311.24.071.105-.513.496-.833.446-1.408z" class="cls-4" transform="translate(-178.989 -98.565)"/>
                            <path id="Path_120" d="M219.335 78.811c-.015 0-.051.022-.023.031a1.721 1.721 0 0 1 1 1.185 3.143 3.143 0 0 1-.1 1.471c-.044.229.183.328.273.093.403-1.072.228-2.667-1.15-2.78z" class="cls-4" transform="translate(-205.13 -74.479)"/>
                            <path id="Path_122" d="M63.595 87.929a4.973 4.973 0 0 1-.555-.778c-.062-.126-.151-.025-.2.089a.6.6 0 0 0-.142-.175.134.134 0 0 0-.075-.034 1.759 1.759 0 0 0-.087-.27c-.007-.015-.032-.009-.039 0a1.072 1.072 0 0 0-.085.748.706.706 0 0 0 .226.683 2.454 2.454 0 0 0 .241.209 1.009 1.009 0 0 0 .233.138.107.107 0 0 0 .1 0 .565.565 0 0 0 .282-.06.362.362 0 0 0 .101-.55z" class="cls-4" transform="translate(-59.71 -81.839)"/>
                            <path id="Path_123" d="M166.175 126.381a1.161 1.161 0 0 1-1.144.514c-.491-.025-.911-.187-.442-.805.054-.071.01-.146-.076-.114a.71.71 0 0 0 .081 1.339 1.515 1.515 0 0 0 1.672-.939c.017-.052-.076-.027-.091.005z" class="cls-4" transform="translate(-153.949 -118.181)"/>
                            <path id="Path_124" d="M257.139 142.178c.007-.087-.145-.03-.148.037a2.424 2.424 0 0 1-.01.384.719.719 0 0 1-.213.412 1.132 1.132 0 0 0 .371-.833z" class="cls-4" transform="translate(-239.851 -133.162)"/>
                            <path id="Path_128" d="M200.019 145.382a1.521 1.521 0 0 0-.927-.056 3.452 3.452 0 0 1-1.436.327 1.418 1.418 0 0 1-1.2-.9h-.008c.006 1.046 1 1.355 1.883 1.053a2.653 2.653 0 0 1 1.577-.28 1.527 1.527 0 0 0 .684.037.768.768 0 0 0 .2-.079c-.233.116-.543-.03-.773-.102z" class="cls-4" transform="translate(-183.954 -135.591)"/>
                            <path id="Path_138" d="M302.462 176.238a5.734 5.734 0 0 0-.253-1.168 1.073 1.073 0 0 0-.263-.457c-.156-.142-.38-.177-.531-.323-.005-.005-.024 0-.022.008a.847.847 0 0 0 .213.388 1.911 1.911 0 0 1 .355.632 4.881 4.881 0 0 1 .2 1.035c.039.316.334.137.301-.115z" class="cls-4" transform="translate(-281.207 -162.961)"/>
                            <path id="Path_139" d="M282.128 184.436a2.767 2.767 0 0 1-1.355.373c-.843-.061-1.125-.668-1.1-1.507 0-.1-.138-.019-.156.03a1.52 1.52 0 0 0 .555 1.822 1.8 1.8 0 0 0 2.073-.408c.068-.057.163-.387-.017-.31z" class="cls-4" transform="translate(-260.833 -171.27)"/>
                            <path id="Path_140" d="M295.671 182.4a3.808 3.808 0 0 0-.382-1.262c-.05-.083-.2.041-.192.114a2.659 2.659 0 0 1 .128.642.645.645 0 0 1-.553.513c-.216-.012-.237.241-.185.385a.686.686 0 0 0 .5.433c.554.037.775-.284.684-.825z" class="cls-4" transform="translate(-274.784 -169.279)"/>
                        </g>
                        <g id="Group_11170" transform="translate(1.621)">
                            <path id="Path_34" d="M71.215 113.1a.62.62 0 0 0-.547.845c.249.745 1.143 1.044 1.193 1.64a1.658 1.658 0 0 1-.936 1.713s-.088.075.088.263a1.661 1.661 0 0 1 .588 1.251 2.1 2.1 0 0 1-.175.876 2.335 2.335 0 0 1 .488 1.464 11.235 11.235 0 0 0 .175 2.465c.188.576.488.838 1.3 1.239a9.212 9.212 0 0 1 2.052 1.451 8.51 8.51 0 0 0 3.829 2.052c1.114.163 14.527.088 14.527.088a5.409 5.409 0 0 1-2.465-1.038c-1.126-.888-.988-1.014-.988-1.014s-2.715.325-4.329-1.276a3.194 3.194 0 0 1-.338-4.417 4.257 4.257 0 0 1 1.614-.988 1.135 1.135 0 0 1-1.264-.488c-.413-.726-.288-.951-.288-.951a2.251 2.251 0 0 1-1.351.15 1.35 1.35 0 0 1-.713-.851s-.313.663-.826.663c0 0-.05-1.2-.7-1.2a.825.825 0 0 0-.6.2 1.177 1.177 0 0 1-1.2.2.99.99 0 0 1-.5-1.251 1.385 1.385 0 0 1-.363-1.251l.038-.613-.363.2s-.988.375-1.314.088-.688-.788-.2-1.089c0 0-1.189-.138-1.664.6a.947.947 0 0 0-.05 1.189 1.026 1.026 0 0 1-.651-.813 1.149 1.149 0 0 1 .576-1.351.4.4 0 0 0-.2-.5c-.325-.15-.876-.413-1.3-.075a3.769 3.769 0 0 1-.363.688c-.163.2-.6.738-1.989.538-.893-.097-.791-.697-.791-.697z" class="cls-4" transform="translate(-68.892 -105.486)"/>
                            <path id="Path_105" d="M86.269 116.938c.084-.19-.166-.411-.314-.47a1.6 1.6 0 0 1-.822-.716.542.542 0 0 0-.525-.234 1.193 1.193 0 0 1-1.367-.356c-.071-.085-.227-.213-.352-.165-.146.056-.333.362-.524.434 0-.017-.056-.3-.056-.3.037-.382-.348-.638-.584-.892-.045-.048-.162-.117-.229-.067-.633.473-1.922.878-1.977-.278a1.158 1.158 0 0 0-.164-.685 1.532 1.532 0 0 1-.3-1.065c.025-.306-.574-.453-.779-.324-.02.013-.352.18-.332.233-.1-.249-.476-.484-.729-.308q-.376-.037-.237-.237a.3.3 0 0 1 .164-.188c.319-.206-.161-.625-.4-.616-.634.022-1.486.289-1.283 1.105.05.2.18.715-.176.71-.193 0-.539-.458-.574-.645a1.162 1.162 0 0 1 0-.326 1.1 1.1 0 0 1 .783-1.016c.141-.038.091-.245.047-.329-.308-.592-1.262-1.213-1.77-.465-.275.405-.4.787-.849 1.064a1.831 1.831 0 0 1-2.076-.115.435.435 0 0 0-.091-.053c-.011-.05-.022-.1-.03-.152-.018-.118-.24-.436-.379-.26a1.308 1.308 0 0 0 .156 1.678c.282.323.891.527.925 1 .04.556-.49 1.006-.86 1.336-.141.126-.063.378.05.493a1.966 1.966 0 0 1 .159.184 10.1 10.1 0 0 0 .3 1.329 4.515 4.515 0 0 0-.079.528.581.581 0 0 0 .083.376 2.022 2.022 0 0 1 .418.883c.014.126.194 0 .193-.091a1.708 1.708 0 0 0-.141-.73 1.278 1.278 0 0 0-.1-.167c.155.108.343.123.288-.154a6.522 6.522 0 0 1-.116-.832 5.9 5.9 0 0 0 .9 1.868c.159.214.438.153.352-.146a4.446 4.446 0 0 1 .027-2.56 9.064 9.064 0 0 0 .693 1.9 12.6 12.6 0 0 0 .846 1.382 4.694 4.694 0 0 0 3.043 3.3c.019.005.073-.024.042-.04a5.523 5.523 0 0 1-2.131-2.07l-.027-.047c.139.009.253-.134.163-.325a8 8 0 0 1-.763-3.39c.127.075.339.094.351-.1a2.238 2.238 0 0 1 .036-.277l.252.236c.086.081.382.286.461.066a5.046 5.046 0 0 1 .6-1.283c.019.21.015.44.042.6q.075.469.184.932a12.479 12.479 0 0 0 .477 1.553 3.013 3.013 0 0 0 .257.635c.182.332.652.32.462-.12-.071-.165-.138-.332-.2-.5a4.959 4.959 0 0 1-.125-1.849 7.111 7.111 0 0 0 1.175 2.631c.122.17.391.2.365-.075q-.073-.765-.131-1.531c-.01-.127-.025-.261-.037-.4a5.224 5.224 0 0 0 .921 1.717c.118.147.328.1.313-.11a4.293 4.293 0 0 1 .02-.847 3.044 3.044 0 0 0 .3.852c.047.088.2.224.3.118.272-.291.542-.585.825-.866q.176-.175.357-.346l.176-.164a.9.9 0 0 0 .139.291c.157.2.329.143.527.177.105.253.178.457.558.4l.122-.07q.258-.135.322.1a2.818 2.818 0 0 1 .2.309 1.319 1.319 0 0 0 .548.4.232.232 0 0 0 .319-.1 1.9 1.9 0 0 1 1.294-1.044c.184-.032.17-.189.094-.324z" class="cls-4" transform="translate(-68.411 -102.694)"/>
                            <g id="Group_11165">
                                <path id="Path_141" d="M138.306 70.016a2.694 2.694 0 0 0-1.756.616c-.107.087-.007.188.1.1a3.059 3.059 0 0 1 1.658-.707c.005.001.008-.009-.002-.009z" class="cls-2" transform="translate(-129.949 -66.206)"/>
                                <path id="Path_143" d="M104.929 28.837a1.872 1.872 0 0 0-1.378 1.408c0 .019.034.013.039 0a2.3 2.3 0 0 1 1.31-1.145c.091-.03.182-.3.029-.263z" class="cls-2" transform="translate(-99.409 -28.042)"/>
                                <path id="Path_144" d="M68.341 57.783a1.294 1.294 0 0 0-.192 1.211c.011.034.09.007.086-.026a1.682 1.682 0 0 1 .262-1.133c.094-.135-.082-.155-.156-.052z" class="cls-2" transform="translate(-66.536 -54.807)"/>
                                <path id="Path_145" d="M47.308 101.245a.507.507 0 0 1-.123-.545c.011-.031-.042-.022-.053 0a.663.663 0 0 0 0 .7c.068.1.252-.081.176-.155z" class="cls-2" transform="translate(-47.034 -94.623)"/>
                                <path id="Path_146" d="M115.993 44.706a1.223 1.223 0 0 0-.659.65c-.1.243-.166.536.065.714.015.011.057 0 .056-.023a.782.782 0 0 1 .206-.613c.124-.134.263-.253.388-.385.07-.074.146-.442-.056-.343z" class="cls-2" transform="translate(-110.246 -42.735)"/>
                                <path id="Path_147" d="M153.335 53.972a1.179 1.179 0 0 0-.388-.02.573.573 0 0 0-.3.128c-.077.056-.1.223.037.162a2.156 2.156 0 0 1 .627-.233c.02-.001.055-.03.024-.037z" class="cls-2" transform="translate(-144.857 -51.313)"/>
                                <path id="Path_148" d="M185.235 61.216a1.9 1.9 0 0 0-.74-.074c-.074.009-.184.177-.065.192a2.4 2.4 0 0 0 .793-.077c.019-.005.039-.033.012-.041z" class="cls-2" transform="translate(-174.314 -57.973)"/>
                                <path id="Path_149" d="M215.7 75.938a1.846 1.846 0 0 0-.651-.706 1.3 1.3 0 0 0-.8-.177c-.159.015-.2.439-.025.441a1.882 1.882 0 0 1 1.437.458c.011.011.048.001.039-.016z" class="cls-2" transform="translate(-201.868 -70.588)"/>
                                <path id="Path_150" d="M85.234 66.972a1.441 1.441 0 0 0-1.047.94c-.082.2.14.171.207.025a2.272 2.272 0 0 1 .86-.914c.036-.023.021-.058-.02-.051z" class="cls-2" transform="translate(-81.449 -63.384)"/>
                                <path id="Path_153" d="M71.875 182.328c.241-.219.167-.8.14-1.078a1.487 1.487 0 0 0-.71-1.294c-.088-.04-.347.093-.3.113a1.365 1.365 0 0 1 .673 1.118c.04.277.141.947-.094 1.16-.072.066.233.036.294-.02z" class="cls-2" transform="translate(-69.241 -168.084)"/>
                                <path id="Path_154" d="M69 124.425c.218-.257.532-.415.734-.69a2.507 2.507 0 0 0 .322-1.025.689.689 0 0 0-.259-.767 3.591 3.591 0 0 1-.644-.518 1.331 1.331 0 0 1-.225-.4c-.03-.094-.173-1.128.317-.824.117.073.4-.089.25-.183a.581.581 0 0 0-.834.181 1.254 1.254 0 0 0 .246 1.423 4.469 4.469 0 0 0 .58.461c.382.311.25.587.157.986a1.278 1.278 0 0 1-.456.853 3.936 3.936 0 0 0-.458.409c-.131.155.177.2.27.091z" class="cls-2" transform="translate(-66.956 -112.452)"/>
                                <path id="Path_156" d="M80.672 107.253c.119.7.038 1.243-.71 1.509-.638.227-1.623.253-1.827-.539-.021-.082-.345 0-.324.087.232.9 1.392.806 2.088.6a2.109 2.109 0 0 0 .829-.416 1.335 1.335 0 0 0 .272-1.328c-.013-.077-.339 0-.324.087z" class="cls-2" transform="translate(-75.556 -100.604)"/>
                                <path id="Path_157" d="M70.785 28.546a2.954 2.954 0 0 1 3.386-2.422c.164.024.327-.21.11-.243a3.333 3.333 0 0 0-3.825 2.687c-.032.165.3.128.328-.022z" class="cls-2" transform="translate(-68.738 -25.269)"/>
                                <path id="Path_158" d="M113.883 19.262a3.341 3.341 0 0 1 2.49-1.068c.767.043 1.5.549 1.161 1.4-.037.095.283.058.323-.044.378-.959-.514-1.491-1.354-1.531a3.9 3.9 0 0 0-2.876 1.2c-.129.131.187.115.257.044z" class="cls-2" transform="translate(-108.718 -18.018)"/>
                                <path id="Path_159" d="M169.125 27.122a2.432 2.432 0 0 1 2.6.632 1.619 1.619 0 0 1 .4 1.943c-.018.026.266.019.319-.059.563-.836-.152-1.895-.865-2.362a2.779 2.779 0 0 0-2.564-.22c-.214.085-.011.113.11.066z" class="cls-2" transform="translate(-159.991 -26.197)"/>
                                <path id="Path_160" d="M215.264 57.366a2.154 2.154 0 0 1 2.118 1.685c.224 1.036-.457 1.744-.748 2.665a1.341 1.341 0 0 0 2.047 1.584c.134-.077-.188-.038-.246 0a1.052 1.052 0 0 1-1.456-.512 1.55 1.55 0 0 1 0-1.21 9.442 9.442 0 0 0 .757-1.864 2.224 2.224 0 0 0-2.262-2.471c-.067 0-.365.126-.211.127z" class="cls-2" transform="translate(-202.898 -54.365)"/>
                                <path id="Path_161" d="M239.114 139.357a.906.906 0 0 1-.137.952.743.743 0 0 1-1.109-.067c-.082-.088-.391.032-.3.131.779.841 2.331.03 1.869-1.1-.049-.12-.369-.024-.324.087z" class="cls-2" transform="translate(-223.593 -130.335)"/>
                                <path id="Path_162" d="M193.788 135.132c-.8-.293-1.275.616-2.061.435a1.922 1.922 0 0 1-1.252-.833 1.143 1.143 0 0 1-.029-.986c.064-.081-.244-.039-.293.023a1.038 1.038 0 0 0-.049.909 1.637 1.637 0 0 0 .965.887 2.156 2.156 0 0 0 1.156.168c.386-.062.955-.6 1.3-.476.073.027.362-.091.266-.127z" class="cls-2" transform="translate(-179.547 -125.228)"/>
                                <path id="Path_163" d="M163.734 126.672a2.223 2.223 0 0 1-.491.474l-.762.16a1.008 1.008 0 0 1-.331-.162.842.842 0 0 1-.31-.43c-.021-.091-.009-.49.14-.537.185-.058.16-.174-.031-.115-.764.238-.4 1.145.206 1.354a1.8 1.8 0 0 0 1.874-.762c.072-.08-.238-.046-.295.017z" class="cls-2" transform="translate(-153.129 -118.131)"/>
                                <path id="Path_164" d="M138.763 128.058a.977.977 0 0 1-.046-1.109 1.688 1.688 0 0 1 1.616-.654c.068 0 .366-.129.21-.131a2.9 2.9 0 0 0-1.8.448 1.107 1.107 0 0 0-.287 1.557c.048.06.353-.051.305-.11z" class="cls-2" transform="translate(-131.563 -118.239)"/>
                                <path id="Path_165" d="M131.764 124.232a1.727 1.727 0 0 1-.736-.957 1.3 1.3 0 0 1 .646-1.188c.135-.083-.187-.05-.249-.012a1.509 1.509 0 0 0-.728 1.077c-.043.491.4.922.762 1.191.072.054.354-.074.3-.111z" class="cls-2" transform="translate(-124.565 -114.414)"/>
                                <path id="Path_166" d="M119.828 112.088c.173-.476-.515-.681-.85-.769a1.025 1.025 0 0 0-1.093.3c-.084.108.238.08.3 0 .278-.356 1.51-.01 1.32.511-.036.1.285.06.323-.044z" class="cls-2" transform="translate(-112.681 -104.442)"/>
                                <path id="Path_167" d="M260.475 113.411c.857-.242 2.058-.2 2.235.9.022.137.347.057.324-.087-.2-1.253-1.65-1.289-2.613-1.017-.2.055-.144.259.054.2z" class="cls-2" transform="translate(-244.672 -106.107)"/>
                                <path id="Path_168" d="M295.567 128.59a1.878 1.878 0 0 1 2.018 1.117c.237.571.391 1 1.088.991.1 0 .35-.152.135-.15-.739 0-.724-.643-.99-1.121a1.948 1.948 0 0 0-.642-.679 2.129 2.129 0 0 0-1.554-.3c-.138.024-.28.181-.054.142z" class="cls-2" transform="translate(-277.247 -120.324)"/>
                                <path id="Path_169" d="M274.746 138.275a1.351 1.351 0 0 0 1.166 2.033 3.219 3.219 0 0 0 2.026-.8l-.308.056c.667 1.26 2 1.133 3.121.6.022-.01.115-.068.04-.081a1.094 1.094 0 0 1-.835-.613 2.7 2.7 0 0 1-.06-1.125 1.338 1.338 0 0 0-.868-1.071l-.286.116a1.7 1.7 0 0 0 1.59-.5 1.8 1.8 0 0 0-.176-2.275c-.043-.059-.335.008-.324.087.086.583-.32 1.371-1.128 1.016-.086-.038-.336.1-.305.109a1.237 1.237 0 0 0 1.757-1.212l-.324.087a2.593 2.593 0 0 1 .5 1.142 1.166 1.166 0 0 1-1.328 1.422c-.055-.012-.339.089-.286.116.377.2.807.5.849.954.052.555-.167 1.059.266 1.518a1.836 1.836 0 0 0 .483.306c.1.055.354-.055-.055.089a3.249 3.249 0 0 1-.552.146 1.6 1.6 0 0 1-1.761-.921c-.041-.078-.264.021-.308.057a1.922 1.922 0 0 1-2.155.443 1.242 1.242 0 0 1-.426-1.757c.021-.033-.269-.022-.319.058z" class="cls-2" transform="translate(-257.871 -126.051)"/>
                                <path id="Path_170" d="M239.5 113.685a2.138 2.138 0 0 0-1.066-1.16 2.266 2.266 0 0 0-1.528-.05c-.211.075-.022.213.134.157a1.788 1.788 0 0 1 2.136 1.14c.064.122.38.021.323-.087z" class="cls-2" transform="translate(-222.91 -105.452)"/>
                                <path id="Path_171" d="M192.081 146.562a.994.994 0 0 0-.937-1.3c-.431.006-.547.486-.976.566a.889.889 0 0 1-.982-1.332.063.063 0 0 0-.025-.093.928.928 0 0 1-.342-1.267c.088-.133-.239-.117-.3-.018a1.09 1.09 0 0 0 .178 1.3c.1.146.089.033.112.176.015.092-.1.322-.106.432a.962.962 0 0 0 .231.633 1.276 1.276 0 0 0 1.287.351 3.553 3.553 0 0 0 .67-.363.214.214 0 0 1 .33-.083.428.428 0 0 1 .424.221.829.829 0 0 1 .115.809c-.04.127.288.085.325-.035z" class="cls-2" transform="translate(-178.008 -133.88)"/>
                                <path id="Path_172" d="M235.987 171.548c-.053-.073-.365.032-.3.118.38.523-.075 1.087-.561 1.306-.207.093-.014.161.119.1.568-.256 1.215-.872.742-1.524z" class="cls-2" transform="translate(-221.258 -160.276)"/>
                                <path id="Path_173" d="M245.459 181.027c.314.373.482.822 1 .967a1.852 1.852 0 0 0 1.3-.263c.194-.1-.1-.132-.2-.083a1.067 1.067 0 0 1-1.362-.135c-.17-.183-.271-.417-.432-.608-.066-.079-.376.034-.3.123z" class="cls-2" transform="translate(-230.91 -168.945)"/>
                                <path id="Path_245" d="M220.826 81.6c1.008.191.7 1.451.606 2.147a1.827 1.827 0 0 0 .291 1.453c.094.119.4-.011.3-.144-.788-1 .705-3.358-1.083-3.7-.163-.031-.326.2-.11.241z" class="cls-2" transform="translate(-207.996 -76.715)"/>
                                <path id="Path_246" d="M303.879 173.291c.467.213.451.73.539 1.162a2.071 2.071 0 0 0 .447.914c.076.093.387-.024.3-.131a2.584 2.584 0 0 1-.493-1.309.992.992 0 0 0-.537-.8c-.1-.047-.4.1-.255.165z" class="cls-2" transform="translate(-285.025 -161.753)"/>
                                <path id="Path_248" d="M57.679 91.01a1.225 1.225 0 0 0 1.378 1.5c.152-.013.274-.184.048-.164A1.09 1.09 0 0 1 58 90.965c.026-.107-.3-.058-.322.045z" class="cls-2" transform="translate(-56.863 -85.564)"/>
                                <path id="Path_249" d="M76.434 102.918c-.63.463-.427 1.236-.071 1.806.076.122.385 0 .3-.142-.279-.446-.533-1.134-.012-1.518.177-.13-.086-.24-.214-.146z" class="cls-2" transform="translate(-73.903 -96.664)"/>
                                <path id="Path_250" d="M66.155 180.875c-.088-.415-.357-1.776.206-1.978.214-.076.018-.171-.124-.12-.77.275-.532 1.588-.406 2.185.021.1.347.022.324-.087z" class="cls-2" transform="translate(-64.328 -166.985)"/>
                                <path id="Path_251" d="M178.983 107.531a.984.984 0 0 1 1.046 1.366 1.764 1.764 0 0 0-.226 1.171c.027.092.35 0 .324-.087-.216-.736.606-1.33.189-2.061a1.237 1.237 0 0 0-1.28-.538c-.145.014-.279.17-.052.148z" class="cls-2" transform="translate(-169.203 -100.826)"/>
                            </g>
                        </g>
                        <g id="Group_11171" transform="translate(.198 5.4)">
                            <path id="Path_125" d="M256.05 154.135a.39.39 0 0 0 .053-.037l-.053.037z" class="cls-2" transform="translate(-239.031 -149.528)"/>
                            <path id="Path_127" d="M255.729 154.621l.022-.012z" class="cls-2" transform="translate(-238.734 -150.001)"/>
                            <path id="Path_152" d="M35.018 177.236a10.167 10.167 0 0 1-6.837-3.131 13.571 13.571 0 0 1-3.433-5.024 14 14 0 0 1-.5-1.813 2.438 2.438 0 0 1 .231-2.149c.059-.064-.24-.025-.291.03-.843.9-.2 2.563.095 3.571a10 10 0 0 0 1.121 2.424 14.284 14.284 0 0 0 5.2 5.1 8.982 8.982 0 0 0 4.2 1.116c.064 0 .364-.122.212-.124z" class="cls-2" transform="translate(-23.77 -159.71)"/>
                            <path id="Path_155" d="M78.8 211.61c.911 1.021.271 2.592.643 3.789.366 1.18 1.6 1.292 2.468 1.941.546.406 1.017.9 1.56 1.315a9.789 9.789 0 0 0 1.623 1 6.511 6.511 0 0 0 3.457.7c.1-.009.348-.17.135-.15a6.511 6.511 0 0 1-3.781-.927 10.36 10.36 0 0 1-1.628-1.144 9.414 9.414 0 0 0-1.5-1.2 12.458 12.458 0 0 1-1.314-.66 2.086 2.086 0 0 1-.811-1.578c-.1-1.05.223-2.342-.549-3.208-.061-.068-.367.045-.3.116z" class="cls-2" transform="translate(-74.757 -202.698)"/>
                            <path id="Path_189" d="M265.955 210.171a3.238 3.238 0 0 0-2.519 4.283c.713 1.982 3.269 2.683 5.167 2.709.141 0 .336-.21.118-.213-1.593-.022-3.807-.543-4.7-2.022a3.01 3.01 0 0 1 1.895-4.545c.166-.03.256-.252.035-.212z" class="cls-2" transform="translate(-245.696 -201.488)"/>
                            <path id="Path_192" d="M103.383 124.089a7.166 7.166 0 0 1 1.583-8.1c.02-.019-.075-.008-.093.009a7.181 7.181 0 0 0-1.593 8.118c.011.024.11-.011.1-.027z" class="cls-2" transform="translate(-96.875 -114.203)"/>
                            <path id="Path_193" d="M92 134.312a4.8 4.8 0 0 1 1.027-3.739c.026-.032-.075-.023-.095 0a4.832 4.832 0 0 0-1.035 3.766c0 .031.108.007.1-.027z" class="cls-2" transform="translate(-86.859 -127.707)"/>
                            <path id="Path_194" d="M99.307 227.818a5.742 5.742 0 0 1-.779-1.681c-.008-.029-.111 0-.1.027a5.775 5.775 0 0 0 .785 1.691c.016.023.115-.009.1-.037z" class="cls-2" transform="translate(-92.956 -216.277)"/>
                            <path id="Path_195" d="M130.258 255.45a30.317 30.317 0 0 1-2.4-2.049 6.047 6.047 0 0 1-.479-.547c-.106-.139-.23-.447-.4-.516a.509.509 0 0 0-.088-.016 2.26 2.26 0 0 1-.271-.09.2.2 0 0 0-.172-.008c-.014 0-.031.015-.032.031a.617.617 0 0 0 .21.4c.152.172.3.346.451.52a15.307 15.307 0 0 0 1.161 1.2 15.534 15.534 0 0 0 2.616 1.955c.025.015.121-.023.083-.046a15.321 15.321 0 0 1-3.546-2.9 9.945 9.945 0 0 1-.777-.9c-.017-.024-.146-.2-.067-.2.033 0 .1.083.142.1.106.043.194-.011.294.079a1.768 1.768 0 0 1 .19.284c.07.1.144.195.221.288a6.67 6.67 0 0 0 .5.533c.708.689 1.506 1.292 2.267 1.92.025.021.12-.019.1-.038z" class="cls-2" transform="translate(-118.901 -240.449)"/>
                            <path id="Path_196" d="M119.153 215.311a9.227 9.227 0 0 0 3.926 4.951c.034.021.127-.027.08-.055a9.174 9.174 0 0 1-3.9-4.923c-.014-.042-.116-.014-.1.027z" class="cls-2" transform="translate(-112.163 -206.211)"/>
                            <path id="Path_197" d="M116.535 151.639a4.2 4.2 0 0 1 .448-2.409c.012-.023-.087-.015-.1.015a4.222 4.222 0 0 0-.448 2.421c0 .028.106.007.1-.027z" class="cls-2" transform="translate(-109.619 -145.004)"/>
                            <path id="Path_198" d="M141.907 142.183a4.636 4.636 0 0 1 1.332-3.345c.023-.023-.075-.013-.093.006a4.666 4.666 0 0 0-1.342 3.366c0 .019.1 0 .1-.027z" class="cls-2" transform="translate(-133.155 -135.374)"/>
                            <path id="Path_199" d="M152.375 179.307a7.7 7.7 0 0 0 2.46 6.493c.024.021.119-.017.1-.038a7.678 7.678 0 0 1-2.453-6.47c0-.035-.1-.015-.1.015z" class="cls-2" transform="translate(-142.911 -172.859)"/>
                            <path id="Path_200" d="M140.482 212.822a4.826 4.826 0 0 1-1.461-1.8 8.834 8.834 0 0 1-.45-1.108c-.075-.221-.109-.667-.38-.738-.021-.005-.091.006-.093.034s0 .252-.079.238a1.722 1.722 0 0 1-.089-.246c-.042-.1-.078-.241-.2-.263a.156.156 0 0 0-.173.079c-.063.137.095.442.132.568a7.216 7.216 0 0 0 .449 1.161 11.573 11.573 0 0 0 3.032 3.635c.729.613 1.5 1.177 2.265 1.739.023.017.111-.024.1-.035a24.9 24.9 0 0 1-3.7-3.1 9.965 9.965 0 0 1-1.456-2.01 6.9 6.9 0 0 1-.493-1.116 3.915 3.915 0 0 1-.224-.755c-.011-.109.008-.161.1-.04a1.174 1.174 0 0 1 .12.281c.032.088.044.224.158.232.188.013.157-.291.167-.4l-.093.034c.191.05.223.293.273.452.057.183.118.365.184.545a7.764 7.764 0 0 0 .488 1.091 4.682 4.682 0 0 0 1.334 1.551c.023.017.111-.024.1-.035z" class="cls-2" transform="translate(-129.207 -200.349)"/>
                            <path id="Path_201" d="M192.387 297.461a7.346 7.346 0 0 0 3.282 1.982 21.223 21.223 0 0 0 4.211.514c.026 0 .119-.042.065-.047a21.152 21.152 0 0 1-4.193-.51 7.316 7.316 0 0 1-3.269-1.975c-.02-.022-.116.015-.1.037z" class="cls-2" transform="translate(-180.03 -282.346)"/>
                            <path id="Path_202" d="M211.325 287.99c1.749 2.356 4.822 2.819 7.533 3.172.024 0 .111-.036.084-.039-2.7-.352-5.772-.813-7.515-3.161-.018-.025-.11.017-.1.028z" class="cls-2" transform="translate(-197.583 -273.577)"/>
                            <path id="Path_203" d="M82.107 131.642a1.114 1.114 0 0 1 .263-.607c.042-.05-.055-.068-.086-.032a1.194 1.194 0 0 0-.281.647c-.006.054.1.041.1-.007z" class="cls-2" transform="translate(-77.736 -128.107)"/>
                            <path id="Path_204" d="M88.054 132.71a5.926 5.926 0 0 1 .36-.7c.029-.048-.075-.048-.1-.01a5.947 5.947 0 0 0-.36.7c-.023.053.08.051.1.01z" class="cls-2" transform="translate(-83.25 -129.021)"/>
                            <path id="Path_205" d="M75.928 126.4a2.034 2.034 0 0 1 .23-.554c.006-.01-.086-.006-.1.019a2.034 2.034 0 0 0-.23.554c0 .019.095.006.1-.019z" class="cls-2" transform="translate(-72.012 -123.344)"/>
                            <path id="Path_206" d="M105.326 116.113a6.7 6.7 0 0 1 1.725-2.113c.056-.041-.026-.083-.069-.051a6.821 6.821 0 0 0-1.754 2.145c-.03.051.074.056.1.014z" class="cls-2" transform="translate(-99.254 -112.314)"/>
                            <path id="Path_207" d="M126.988 175.489a5.678 5.678 0 0 0 .1 2.075c.007.027.109 0 .1-.027a5.641 5.641 0 0 1-.1-2.063c0-.031-.1-.012-.1.016z" class="cls-2" transform="translate(-119.378 -169.322)"/>
                            <path id="Path_208" d="M101.668 257.886a8.046 8.046 0 0 0 2.821 2.756c.027.019.12-.022.1-.039a8.024 8.024 0 0 1-2.814-2.745c-.016-.032-.115 0-.1.027z" class="cls-2" transform="translate(-95.96 -245.674)"/>
                            <path id="Path_209" d="M251.073 216.883a3.469 3.469 0 0 1 .561-6.048c.062-.027-.034-.027-.06-.016a3.494 3.494 0 0 0-.6 6.1c.024.017.113-.024.1-.036z" class="cls-2" transform="translate(-232.917 -202.086)"/>
                            <path id="Path_210" d="M228.946 197.236a3.061 3.061 0 0 0-.732 1.326 2.108 2.108 0 0 0-.037.741 1.805 1.805 0 0 0 .1.415c.012.03.024.059.038.088a1.184 1.184 0 0 0 .058.115q.078.1-.073.21c-.029-.027-.1 0-.091.044s.1.258-.014.252c-.05 0-.116-.207-.129-.243a2.184 2.184 0 0 1-.1-.575 4.248 4.248 0 0 1 .087-1.294 3.661 3.661 0 0 1 1.771-2.315c.06-.034.006-.093-.046-.064a3.745 3.745 0 0 0-1.916 3 2.927 2.927 0 0 0 .156 1.4c.052.105.179.307.325.234.176-.088 0-.308-.026-.419l-.091.044a.2.2 0 0 0 .3-.037c.041-.064.027-.1.005-.176-.057-.184-.176-.341-.219-.536a2.514 2.514 0 0 1 .723-2.176c.043-.049-.054-.069-.086-.033z" class="cls-2" transform="translate(-212.893 -188.293)"/>
                            <path id="Path_211" d="M209.184 190.3a3.775 3.775 0 0 1 .9-3.948c.04-.047-.058-.05-.083-.021a3.824 3.824 0 0 0-.923 4c.017.038.118.007.1-.027z" class="cls-2" transform="translate(-195.269 -179.378)"/>
                            <path id="Path_212" d="M190.029 185.378c-1.814-1.894-3.227-4.523-2.391-7.2.014-.045-.09-.033-.1.009-.838 2.684.58 5.33 2.4 7.232.03.032.128-.009.094-.044z" class="cls-2" transform="translate(-175.307 -171.82)"/>
                            <path id="Path_458" d="M190.029 185.378c-1.814-1.894-3.227-4.523-2.391-7.2.014-.045-.09-.033-.1.009-.838 2.684.58 5.33 2.4 7.232.03.032.128-.009.094-.044z" class="cls-2" transform="translate(-177.181 -172.757)"/>
                            <path id="Path_213" d="M176.79 158.668a3.809 3.809 0 0 1 .807-2.539s-.082 0-.1.019a3.823 3.823 0 0 0-.809 2.547c0 .014.1 0 .1-.027z" class="cls-2" transform="translate(-165.48 -151.407)"/>
                            <path id="Path_214" d="M220.694 255.464a8.348 8.348 0 0 0 5.6 4.3c.023.005.111-.033.085-.039a8.324 8.324 0 0 1-5.581-4.289c-.012-.024-.11.013-.1.027z" class="cls-2" transform="translate(-206.265 -243.434)"/>
                            <path id="Path_215" d="M241.195 205.072a4.289 4.289 0 0 1 2.619-4.158c.065-.027.007-.074-.043-.053a4.367 4.367 0 0 0-2.679 4.22c0 .05.105.031.1-.01z" class="cls-2" transform="translate(-225.258 -192.767)"/>
                            <path id="Path_216" d="M219.166 189.8a3.794 3.794 0 0 1 2.067-3.951c.063-.031.006-.08-.044-.055a3.873 3.873 0 0 0-2.126 4.033c.006.043.109.018.1-.027z" class="cls-2" transform="translate(-204.811 -178.898)"/>
                            <path id="Path_217" d="M196.714 186.254a7.223 7.223 0 0 1-1.078-2.675 3.818 3.818 0 0 1 .348-2.743c.027-.042-.077-.035-.1 0a3.8 3.8 0 0 0-.37 2.684 7.259 7.259 0 0 0 1.1 2.78c.02.031.12 0 .095-.041z" class="cls-2" transform="translate(-182.856 -174.279)"/>
                            <path id="Path_218" d="M179.432 206.971a4.71 4.71 0 0 1-.614-1.873c0-.045-.108-.02-.1.027a4.754 4.754 0 0 0 .622 1.89c.022.038.12 0 .094-.044z" class="cls-2" transform="translate(-167.363 -196.768)"/>
                            <path id="Path_219" d="M242.1 267.257a4.207 4.207 0 0 0 1.412 1.774 8.86 8.86 0 0 0 2.05 1.259 8.079 8.079 0 0 0 1.641.438c.574.111 1.148.219 1.725.314a11.134 11.134 0 0 0 1.716.2c.033 0 .111-.049.042-.05a17.894 17.894 0 0 1-3.155-.465 11.057 11.057 0 0 1-1.5-.339 7.958 7.958 0 0 1-2.149-1.19 4.54 4.54 0 0 1-1.676-1.972c-.011-.03-.112 0-.1.027z" class="cls-2" transform="translate(-226.107 -254.359)"/>
                            <path id="Path_220" d="M240.722 292.53a10.74 10.74 0 0 0 6.009 2.323c.038 0 .109-.052.04-.056a10.654 10.654 0 0 1-5.954-2.307c-.027-.022-.122.018-.1.04z" class="cls-2" transform="translate(-224.822 -277.775)"/>
                            <path id="Path_221" d="M258.687 267.137c.929 2.426 3.76 2.936 6.051 2.954.046 0 .106-.069.037-.069-2.263-.018-5.066-.514-5.985-2.913-.016-.043-.118-.013-.1.027z" class="cls-2" transform="translate(-241.474 -254.24)"/>
                            <path id="Path_230" d="M145.459 129.231a2.641 2.641 0 0 1 1.4-1.349c.066-.027.007-.072-.043-.051a2.741 2.741 0 0 0-1.456 1.393c-.023.049.08.043.1.007z" class="cls-2" transform="translate(-136.451 -125.181)"/>
                            <path id="Path_231" d="M119.7 122.261a3.457 3.457 0 0 1 1.435-1.894c.045-.029-.058-.023-.08-.009a3.508 3.508 0 0 0-1.457 1.919c-.008.027.093.013.1-.016z" class="cls-2" transform="translate(-112.579 -118.249)"/>
                            <path id="Path_232" d="M154.346 145a2.9 2.9 0 0 1 1.155-2.136c.056-.042-.029-.069-.066-.04a2.977 2.977 0 0 0-1.192 2.186c0 .049.1.032.1-.01z" class="cls-2" transform="translate(-144.683 -139.066)"/>
                            <path id="Path_233" d="M174.032 145.94a3.418 3.418 0 0 1 1.2-1.946c.046-.037-.055-.041-.083-.019a3.479 3.479 0 0 0-1.223 1.977c-.009.041.095.025.1-.012z" class="cls-2" transform="translate(-162.927 -140.134)"/>
                            <path id="Path_234" d="M183.279 163.1a3.091 3.091 0 0 1 .773-1.322c.045-.046-.054-.063-.086-.03a3.171 3.171 0 0 0-.791 1.36c-.014.048.091.037.1-.008z" class="cls-2" transform="translate(-171.495 -156.605)"/>
                            <path id="Path_235" d="M201.754 184.125a2.928 2.928 0 0 1 1.03-2.515c.023-.019-.073-.011-.093.006a2.956 2.956 0 0 0-1.04 2.537c0 .022.105 0 .1-.027z" class="cls-2" transform="translate(-188.607 -175.014)"/>
                            <path id="Path_236" d="M215.493 186.163a4.983 4.983 0 0 1 1.443-2.2c.047-.041-.053-.055-.085-.027a5.056 5.056 0 0 0-1.462 2.235c-.014.044.09.032.1-.009z" class="cls-2" transform="translate(-201.442 -177.073)"/>
                            <path id="Path_237" d="M225.991 191.208a3.825 3.825 0 0 1 1.922-2.3c.063-.032.005-.071-.042-.047a3.922 3.922 0 0 0-1.983 2.36c-.012.039.092.026.1-.012z" class="cls-2" transform="translate(-211.172 -181.642)"/>
                            <path id="Path_238" d="M238.331 198.393a4.347 4.347 0 0 1 2.657-2.417c.061-.02.045-.084-.017-.064a4.462 4.462 0 0 0-2.738 2.472c-.022.051.081.047.1.009z" class="cls-2" transform="translate(-222.705 -188.181)"/>
                            <path id="Path_239" d="M88.082 187.936a6.878 6.878 0 0 0 .33 2c.009.029.111 0 .1-.027a6.873 6.873 0 0 1-.33-2c0-.023-.1-.006-.1.027z" class="cls-2" transform="translate(-83.37 -180.851)"/>
                            <path id="Path_240" d="M96.9 198.924a7.69 7.69 0 0 0 1.862 4.172c.023.026.121-.011.1-.04A7.664 7.664 0 0 1 97 198.9c0-.033-.107-.01-.1.028z" class="cls-2" transform="translate(-91.54 -191.03)"/>
                            <path id="Path_241" d="M113.759 190.934a6.244 6.244 0 0 0 .234.94c.008.023.109-.007.1-.027a6.236 6.236 0 0 1-.234-.94c0-.02-.107 0-.1.027z" class="cls-2" transform="translate(-107.166 -183.632)"/>
                            <path id="Path_242" d="M122 194.287a10.949 10.949 0 0 0 2.808 5.267c.026.027.123-.012.1-.041a10.916 10.916 0 0 1-2.8-5.254c-.008-.037-.111-.011-.1.027z" class="cls-2" transform="translate(-114.8 -186.73)"/>
                            <path id="Path_243" d="M133.847 156.885a4.992 4.992 0 0 1 .306-3.4c.006-.011-.087-.007-.1.019a5.005 5.005 0 0 0-.308 3.41c0 .019.107 0 .1-.027z" class="cls-2" transform="translate(-125.546 -148.953)"/>
                            <path id="Path_253" d="M145.923 290.58a9.527 9.527 0 0 0 4.8 3.006c.04.01.121-.048.061-.064a9.456 9.456 0 0 1-4.768-2.985c-.028-.032-.126.007-.094.043z" class="cls-2" transform="translate(-136.967 -275.959)"/>
                            <path id="Path_254" d="M200.283 315.8a24.476 24.476 0 0 0 2.4 1.174c.029.012.122-.031.082-.048a24.486 24.486 0 0 1-2.4-1.174c-.027-.015-.122.025-.082.048z" class="cls-2" transform="translate(-187.341 -299.334)"/>
                            <path id="Path_255" d="M230.128 312.684a17.891 17.891 0 0 0 3.748 1.321c.036.008.121-.046.062-.06a17.8 17.8 0 0 1-3.729-1.314c-.033-.016-.126.031-.081.053z" class="cls-2" transform="translate(-214.997 -296.442)"/>
                            <path id="Path_256" d="M61.067 115.44a2.422 2.422 0 0 1-.962-1.511 1.386 1.386 0 0 1 .776-1.47c.067-.027.005-.052-.038-.034a1.407 1.407 0 0 0-.851 1.248 2.273 2.273 0 0 0 .978 1.805c.025.02.119-.019.1-.038z" class="cls-2" transform="translate(-57.336 -110.902)"/>
                            <path id="Path_257" d="M53.206 110.341a2.155 2.155 0 0 1 .751-2.042c.045-.037-.057-.036-.082-.015a2.2 2.2 0 0 0-.772 2.085c.006.033.109.009.1-.027z" class="cls-2" transform="translate(-50.923 -107.057)"/>
                            <path id="Path_258" d="M50.559 104.639a1.588 1.588 0 0 1 .648-.8c.059-.037-.028-.063-.066-.039a1.662 1.662 0 0 0-.678.836c-.019.052.083.045.1.007z" class="cls-2" transform="translate(-48.504 -102.902)"/>
                            <path id="Path_259" d="M203.183 160.11a.457.457 0 0 1 .025-.565c.042-.048-.057-.057-.084-.025a.509.509 0 0 0-.035.634c.024.034.123 0 .094-.043z" class="cls-2" transform="translate(-189.863 -154.535)"/>
                            <path id="Path_260" d="M213.287 160.549a.281.281 0 0 1 .017-.453c.061-.033.006-.084-.044-.057a.34.34 0 0 0-.052.567c.034.025.125-.024.08-.057z" class="cls-2" transform="translate(-199.208 -155.027)"/>
                            <path id="Path_261" d="M222.81 158.788a.182.182 0 0 1 .072-.194c.018-.012.011-.022-.007-.025a.113.113 0 0 0-.073.019.215.215 0 0 0-.1.228c.006.025.109 0 .1-.027z" class="cls-2" transform="translate(-208.126 -153.669)"/>
                            <path id="Path_269" d="M32.412 172.853a4.987 4.987 0 0 0 .458 2.5c.016.034.116 0 .1-.027a4.962 4.962 0 0 1-.458-2.481c0-.04-.1-.02-.1.013z" class="cls-2" transform="translate(-31.766 -166.876)"/>
                            <path id="Path_270" d="M43.19 215.629a14.716 14.716 0 0 0 2.163 4.08c.017.022.115-.011.1-.037a14.679 14.679 0 0 1-2.157-4.07c-.01-.028-.112 0-.1.027z" class="cls-2" transform="translate(-41.767 -206.515)"/>
                            <path id="Path_271" d="M59.231 148.311a2.209 2.209 0 0 0 .367.513 3.245 3.245 0 0 0 .535.34.831.831 0 0 1 .2 1.288c-.022.025.076.014.093-.006a.842.842 0 0 0 .057-1.1 2.036 2.036 0 0 0-.581-.4 1.752 1.752 0 0 1-.566-.658c-.016-.027-.112.011-.1.027z" class="cls-2" transform="translate(-56.633 -144.13)"/>
                            <path id="Path_272" d="M77.775 156.813a.818.818 0 0 1 .233 1c-.013.028.087.018.1-.014a.842.842 0 0 0-.24-1.022c-.027-.021-.121.019-.1.039z" class="cls-2" transform="translate(-73.814 -152.002)"/>
                            <path id="Path_273" d="M63.089 163.886a1.171 1.171 0 0 1 .327 1.537c-.028.041.076.035.1 0a1.206 1.206 0 0 0-.328-1.583c-.029-.026-.125.014-.095.041z" class="cls-2" transform="translate(-60.202 -158.74)"/>
                            <path id="Path_274" d="M65.923 91.754a1.145 1.145 0 0 0 .817 1.217c.025.008.092 0 .093-.036v-.076c0-.024-.1-.008-.1.027v.076l.093-.036a1.121 1.121 0 0 1-.8-1.187c0-.035-.1-.014-.1.015z" class="cls-2" transform="translate(-62.83 -91.72)"/>
                            <path id="Path_275" d="M72.935 95.3a.983.983 0 0 0 .52.752c.033.017.126-.029.081-.053a.943.943 0 0 1-.5-.726c0-.039-.108-.015-.1.027z" class="cls-2" transform="translate(-69.332 -94.997)"/>
                        </g>
                    </g>
                </g>
            </g>
            <path id="Path_478" d="M.15-21.855H4.6a2 2 0 0 1 1.15.313 1.433 1.433 0 0 1 .6.83l3.13 11.9q.157.579.313 1.236a11.142 11.142 0 0 1 .233 1.376q.157-.736.344-1.385t.36-1.229l3.694-11.9a1.639 1.639 0 0 1 .6-.79 1.791 1.791 0 0 1 1.119-.352h1.565a1.967 1.967 0 0 1 1.135.305 1.569 1.569 0 0 1 .618.837l3.662 11.9q.172.548.36 1.166t.329 1.323q.125-.689.258-1.315t.274-1.174l3.13-11.9a1.488 1.488 0 0 1 .595-.8 1.853 1.853 0 0 1 1.127-.344h4.163L26.319.949H21.53l-4.289-14.133q-.11-.329-.227-.72t-.227-.83q-.11.438-.227.83t-.227.72L11.983.949h-4.79z" class="cls-2" transform="translate(21.147 24.006)"/>
            <path id="Path_479" d="M13.86.576H11.4a1.137 1.137 0 0 1-.681-.193.994.994 0 0 1-.371-.493L9.54-2.5h-5.2L3.53-.11a1.057 1.057 0 0 1-.366.474A1.055 1.055 0 0 1 2.5.576H.018l5.3-13.683h3.246zM5.07-4.655h3.738L7.55-8.4l-.286-.84q-.164-.484-.324-1.047-.15.573-.31 1.061t-.3.845zm6.893-8.452h2.554a1.136 1.136 0 0 1 .676.188 1.029 1.029 0 0 1 .376.5L18.218-5.1q.178.479.362 1.042t.343 1.183q.131-.62.305-1.183T19.57-5.1l2.63-7.321a1.057 1.057 0 0 1 .366-.474 1.055 1.055 0 0 1 .667-.211h2.573L20.321.576h-2.873zm19.758-.15a5.264 5.264 0 0 1 1.8.286 4.033 4.033 0 0 1 1.334.775 3.27 3.27 0 0 1 .826 1.132 3.346 3.346 0 0 1 .282 1.357 4.449 4.449 0 0 1-.131 1.141 2.614 2.614 0 0 1-.39.855 2.44 2.44 0 0 1-.639.615 3.8 3.8 0 0 1-.869.423 3.038 3.038 0 0 1 2.273 3.09 4.277 4.277 0 0 1-.394 1.9A3.9 3.9 0 0 1 34.76-.344a4.52 4.52 0 0 1-1.535.8 6.183 6.183 0 0 1-1.825.27 6.5 6.5 0 0 1-1.735-.211 4 4 0 0 1-1.352-.657 4.354 4.354 0 0 1-1.038-1.141 7.653 7.653 0 0 1-.775-1.653l1.3-.526a1.406 1.406 0 0 1 .333-.1 1.915 1.915 0 0 1 .324-.028 1.211 1.211 0 0 1 .54.117.8.8 0 0 1 .362.343A3.41 3.41 0 0 0 30.252-2a1.815 1.815 0 0 0 1.113.352 2.038 2.038 0 0 0 .85-.164 1.852 1.852 0 0 0 .6-.423 1.753 1.753 0 0 0 .362-.587 1.9 1.9 0 0 0 .123-.668 4.674 4.674 0 0 0-.061-.794 1.036 1.036 0 0 0-.339-.606 1.937 1.937 0 0 0-.85-.39 7.14 7.14 0 0 0-1.582-.136v-2.01a5.878 5.878 0 0 0 1.38-.131 2.111 2.111 0 0 0 .812-.362 1.091 1.091 0 0 0 .38-.559 2.626 2.626 0 0 0 .09-.722 1.808 1.808 0 0 0-.39-1.244 1.512 1.512 0 0 0-1.188-.437 1.834 1.834 0 0 0-.6.094 1.806 1.806 0 0 0-.488.254 1.689 1.689 0 0 0-.371.376 1.983 1.983 0 0 0-.249.47 1.356 1.356 0 0 1-.38.61.959.959 0 0 1-.624.188q-.094 0-.2-.009t-.221-.028L26.876-9.2a5.138 5.138 0 0 1 .578-1.784 4.294 4.294 0 0 1 1.061-1.268 4.305 4.305 0 0 1 1.451-.756 6 6 0 0 1 1.756-.249z" class="cls-2" transform="translate(54.859 15.249)"/>
            <path id="Path_480" d="M1.582-2.24v2.5H.776v-5.985h1.69a3.693 3.693 0 0 1 .981.115 1.872 1.872 0 0 1 .682.332 1.329 1.329 0 0 1 .4.524 1.751 1.751 0 0 1 .129.687 1.721 1.721 0 0 1-.1.593 1.565 1.565 0 0 1-.29.495 1.735 1.735 0 0 1-.463.374 2.293 2.293 0 0 1-.62.234.855.855 0 0 1 .267.255L5.2.256h-.722a.354.354 0 0 1-.325-.171L2.6-2.052a.452.452 0 0 0-.155-.148.557.557 0 0 0-.245-.04zm0-.588h.847a2.063 2.063 0 0 0 .624-.086 1.27 1.27 0 0 0 .447-.242 1 1 0 0 0 .273-.374 1.22 1.22 0 0 0 .092-.48.953.953 0 0 0-.353-.806 1.7 1.7 0 0 0-1.05-.271h-.88zm7.337-1.21a1.887 1.887 0 0 1 .7.127 1.574 1.574 0 0 1 .555.367 1.675 1.675 0 0 1 .365.593 2.29 2.29 0 0 1 .131.8.484.484 0 0 1-.038.234.156.156 0 0 1-.142.058H7.679a2.334 2.334 0 0 0 .109.7 1.425 1.425 0 0 0 .275.495 1.1 1.1 0 0 0 .417.3 1.433 1.433 0 0 0 .543.1 1.592 1.592 0 0 0 .482-.065 2.293 2.293 0 0 0 .349-.14 2.658 2.658 0 0 0 .244-.14.324.324 0 0 1 .169-.065.163.163 0 0 1 .142.071l.209.271a1.411 1.411 0 0 1-.33.29 2.053 2.053 0 0 1-.411.2 2.611 2.611 0 0 1-.453.119 2.766 2.766 0 0 1-.463.04 2.15 2.15 0 0 1-.808-.151 1.773 1.773 0 0 1-.639-.434A1.991 1.991 0 0 1 7.1-.975a2.877 2.877 0 0 1-.15-.968 2.464 2.464 0 0 1 .13-.827 1.948 1.948 0 0 1 .39-.666 1.8 1.8 0 0 1 .622-.442 2.041 2.041 0 0 1 .827-.161zm.017.547a1.141 1.141 0 0 0-.847.311 1.464 1.464 0 0 0-.384.862H10a1.5 1.5 0 0 0-.071-.474 1.056 1.056 0 0 0-.209-.371.934.934 0 0 0-.336-.242 1.133 1.133 0 0 0-.448-.087zm6.862.271a.332.332 0 0 1-.067.071.158.158 0 0 1-.1.025.238.238 0 0 1-.136-.052 1.977 1.977 0 0 0-.186-.115 1.555 1.555 0 0 0-.273-.115 1.29 1.29 0 0 0-.394-.052 1.283 1.283 0 0 0-.547.111 1.06 1.06 0 0 0-.4.319 1.445 1.445 0 0 0-.242.505 2.506 2.506 0 0 0-.081.664 2.424 2.424 0 0 0 .088.682 1.479 1.479 0 0 0 .246.5 1.051 1.051 0 0 0 .386.309 1.192 1.192 0 0 0 .511.106 1.307 1.307 0 0 0 .447-.065 1.361 1.361 0 0 0 .292-.144 2.141 2.141 0 0 0 .192-.144.231.231 0 0 1 .15-.065.157.157 0 0 1 .142.071l.209.271a1.606 1.606 0 0 1-.689.495 2.442 2.442 0 0 1-.872.157 1.847 1.847 0 0 1-.737-.146 1.68 1.68 0 0 1-.591-.424 2.01 2.01 0 0 1-.394-.682 2.743 2.743 0 0 1-.144-.922 2.783 2.783 0 0 1 .131-.872 1.976 1.976 0 0 1 .384-.691 1.74 1.74 0 0 1 .624-.453 2.1 2.1 0 0 1 .851-.163 2.008 2.008 0 0 1 .785.144 1.878 1.878 0 0 1 .605.407zm4.019-.818a2.172 2.172 0 0 1 .837.154 1.764 1.764 0 0 1 .634.438 1.94 1.94 0 0 1 .4.687 2.73 2.73 0 0 1 .14.9 2.725 2.725 0 0 1-.14.9 1.943 1.943 0 0 1-.4.684 1.742 1.742 0 0 1-.634.436 2.2 2.2 0 0 1-.837.152 2.2 2.2 0 0 1-.837-.151 1.762 1.762 0 0 1-.636-.436 1.951 1.951 0 0 1-.4-.684 2.688 2.688 0 0 1-.142-.9 2.693 2.693 0 0 1 .142-.9 1.948 1.948 0 0 1 .4-.687 1.785 1.785 0 0 1 .636-.438 2.172 2.172 0 0 1 .837-.156zm0 3.773a1.085 1.085 0 0 0 .935-.419 1.942 1.942 0 0 0 .309-1.171 1.96 1.96 0 0 0-.309-1.177 1.083 1.083 0 0 0-.935-.422 1.3 1.3 0 0 0-.551.109 1.031 1.031 0 0 0-.39.313 1.39 1.39 0 0 0-.234.5 2.7 2.7 0 0 0-.077.674 2.671 2.671 0 0 0 .077.672 1.37 1.37 0 0 0 .234.5 1.039 1.039 0 0 0 .39.311 1.3 1.3 0 0 0 .551.109zm4.223.521v-4.228h.426a.235.235 0 0 1 .167.046.282.282 0 0 1 .063.159l.05.659a1.934 1.934 0 0 1 .536-.691 1.185 1.185 0 0 1 .749-.248 1.178 1.178 0 0 1 .317.04 1.106 1.106 0 0 1 .263.111l-.1.555a.125.125 0 0 1-.129.1.649.649 0 0 1-.179-.04 1.132 1.132 0 0 0-.338-.04.958.958 0 0 0-.649.225 1.692 1.692 0 0 0-.436.655V.256zm7.634 0a.189.189 0 0 1-.2-.154l-.067-.513a2.226 2.226 0 0 1-.62.528 1.588 1.588 0 0 1-.8.2 1.526 1.526 0 0 1-.659-.14 1.367 1.367 0 0 1-.505-.411 1.958 1.958 0 0 1-.323-.679 3.481 3.481 0 0 1-.113-.931 2.917 2.917 0 0 1 .125-.87 2.121 2.121 0 0 1 .361-.7 1.692 1.692 0 0 1 .574-.465 1.694 1.694 0 0 1 .768-.169 1.53 1.53 0 0 1 .664.131 1.591 1.591 0 0 1 .492.369v-2.344h.743V.256zm-1.44-.543a1.2 1.2 0 0 0 .637-.167 1.835 1.835 0 0 0 .5-.472V-2.97a1.175 1.175 0 0 0-.449-.386 1.3 1.3 0 0 0-.54-.111 1.07 1.07 0 0 0-.91.422 1.969 1.969 0 0 0-.317 1.2 3.057 3.057 0 0 0 .071.707 1.361 1.361 0 0 0 .209.484.82.82 0 0 0 .338.278 1.136 1.136 0 0 0 .461.089zm6.845-2.988a.165.165 0 0 1-.154.092.291.291 0 0 1-.142-.046q-.079-.046-.194-.1a1.823 1.823 0 0 0-.273-.1 1.3 1.3 0 0 0-.376-.048 1.109 1.109 0 0 0-.338.048.812.812 0 0 0-.257.131.581.581 0 0 0-.163.194.521.521 0 0 0-.056.24.4.4 0 0 0 .094.271.816.816 0 0 0 .248.188 2.165 2.165 0 0 0 .351.14q.2.061.4.129t.4.152a1.462 1.462 0 0 1 .351.209.955.955 0 0 1 .248.307.939.939 0 0 1 .094.436 1.381 1.381 0 0 1-.1.54 1.18 1.18 0 0 1-.309.43 1.489 1.489 0 0 1-.5.286 2.058 2.058 0 0 1-.684.1 2.135 2.135 0 0 1-.8-.144 2.03 2.03 0 0 1-.609-.369l.175-.284a.255.255 0 0 1 .079-.083.223.223 0 0 1 .121-.029.28.28 0 0 1 .159.058q.083.058.2.129a1.558 1.558 0 0 0 .288.129 1.313 1.313 0 0 0 .424.058 1.161 1.161 0 0 0 .38-.056.8.8 0 0 0 .271-.152.6.6 0 0 0 .161-.221.688.688 0 0 0 .052-.267.443.443 0 0 0-.094-.29.793.793 0 0 0-.248-.2 2.024 2.024 0 0 0-.353-.142q-.2-.061-.4-.127t-.4-.152a1.423 1.423 0 0 1-.353-.215.974.974 0 0 1-.248-.319 1.032 1.032 0 0 1-.094-.461 1.125 1.125 0 0 1 .1-.465 1.141 1.141 0 0 1 .292-.392 1.439 1.439 0 0 1 .472-.269 1.887 1.887 0 0 1 .639-.1 2.02 2.02 0 0 1 .749.131 1.773 1.773 0 0 1 .574.361z" class="cls-1" transform="translate(53.761 24.159)"/>
        </g>
    </g>
</svg>
