<svg xmlns="http://www.w3.org/2000/svg" id="Group_11186" width="300" height="300" viewBox="0 0 300 300">
    <defs>
        <clipPath id="clip-path">
            <circle id="Ellipse_42" cx="140.625" cy="140.625" r="140.625" fill="#fff"/>
        </clipPath>
        <style>
            .cls-2{fill:#f4f590}.cls-4{fill:none}
        </style>
    </defs>
    <path id="Subtraction_3" d="M150 300a151.112 151.112 0 0 1-30.23-3.047 149.175 149.175 0 0 1-53.636-22.57 150.438 150.438 0 0 1-54.346-66 149.246 149.246 0 0 1-8.74-28.156 151.463 151.463 0 0 1 0-60.461 149.18 149.18 0 0 1 22.57-53.636 150.438 150.438 0 0 1 66-54.346 149.247 149.247 0 0 1 28.156-8.74 151.463 151.463 0 0 1 60.461 0 149.178 149.178 0 0 1 53.636 22.57 150.438 150.438 0 0 1 54.346 66 149.244 149.244 0 0 1 8.74 28.156 151.461 151.461 0 0 1 0 60.461 149.178 149.178 0 0 1-22.57 53.636 150.441 150.441 0 0 1-66 54.346 149.25 149.25 0 0 1-28.156 8.74A151.112 151.112 0 0 1 150 300zm0-290.625a141.665 141.665 0 0 0-28.341 2.857 139.853 139.853 0 0 0-50.284 21.159 141.035 141.035 0 0 0-50.949 61.871 139.915 139.915 0 0 0-8.194 26.4 141.995 141.995 0 0 0 0 56.682 139.853 139.853 0 0 0 21.159 50.284 141.035 141.035 0 0 0 61.871 50.949 139.911 139.911 0 0 0 26.4 8.194 141.995 141.995 0 0 0 56.682 0 139.854 139.854 0 0 0 50.284-21.159 141.035 141.035 0 0 0 50.949-61.871 139.907 139.907 0 0 0 8.194-26.4 142 142 0 0 0 0-56.682 139.855 139.855 0 0 0-21.159-50.284 141.034 141.034 0 0 0-61.87-50.949 139.912 139.912 0 0 0-26.4-8.194A141.662 141.662 0 0 0 150 9.375z" class="cls-2"/>
    <g id="Mask_Group_6" clip-path="url(#clip-path)" transform="translate(8.375 10.375)">
        <g id="Group_11172" transform="translate(-15.648 35.112)">
            <path id="Path_285" d="M99.931 25.825s-14.852-3.375-25.654 6.413S62.8 48.44 62.8 48.44s-11.814 3.375-16.54 9.452-9.789 18.227-9.789 18.227-9.789 12.152-10.8 23.629-2.025 23.966 4.051 34.43c0 0-7.764 7.426 0 32.742s22.953 50.295 37.467 62.446 35.78 28.354 53.333 31.392a127.561 127.561 0 0 0 32.383 1.362s-19.219-4.738-30.7-14.526-23.962-20.254-30.375-22.28-13.839-7.088-16.877-15.864 1.35-23.628-1.688-29.7a45.617 45.617 0 0 0-5.063-8.439s4.725-4.051 1.35-14.515-7.088-11.139-7.088-11.139 7.763-4.725 9.789-10.8 1.012-10.127-.338-12.827-8.1-5.738-9.789-10.8-.761-12.6 5.864-11.2c0 0 4.263 10.183 19.452 5.8s11.139-12.159 11.139-12.159 6.525-4.785 14.739.14 3.826 4.924 3.826 4.924-12.827 10.126-7.426 17.552 7.549 6.627 7.549 6.627-4.849-13.04 4.265-16.753 14.02-2.332 14.02-2.332-4.906 5.708.157 10.1 11.394 5.551 15.992.582 4.261-3.62 4.261-3.62a19.044 19.044 0 0 0-.338 7.426c.674 3.713-3.038 6.076 4.051 13.5 0 0-5.739 8.439 3.712 13.5s12.827 0 15.865-4.05 10.464 1.012 11.139 5.738a58.027 58.027 0 0 1 .681 7.141s6.745-.728 7.419-7.479c0 0 4.051 7.764 8.439 9.789s14.973-1.909 14.973-1.909-.12 9.673 5.28 12.036a53.381 53.381 0 0 0 11.27 3.313 23.419 23.419 0 0 0 15.734-7.026s6.751 9.114 16.877 9.114 13.5-3.375 13.5-3.375-10.464-4.051-9.789-13.165-.674-15.189-7.089-16.54a17.654 17.654 0 0 0 13.5-6.413c5.4-6.751-3.376-20.928-3.376-20.928s1.351 14.177-15.527 10.126a24.893 24.893 0 0 0-9.789-12.151c-7.426-4.726-16.539-4.051-16.539-4.051s-1.013-7.764-7.089-10.464-18.565-.338-18.565-.338-12.489-4.388-19.241-.338c0 0 8.439-14.515 7.426-23.628s-7.763-21.6-22.615-20.928c0 0-2.7-14.852-14.515-21.265a25.781 25.781 0 0 0-22.278-1.35 13.761 13.761 0 0 0-12.151-8.439c-9.445-.676-26.998 7.088-26.998 7.088z" class="cls-4" transform="translate(-24.906 -18.166)"/>
            <g id="Group_11169" transform="translate(1.762 1.302)">
                <path id="Path_38" d="M109.706 30.7c-5.351-5.3-16.73.229-21.689 3.913-6.427 4.774-11.793 11.376-11.226 19.7.2 2.963 3.542 4.889 4.594 1.305 4.06-13.831 17.8-16.824 28.213-24.439.133-.1.25-.336.108-.479z" class="cls-4" transform="translate(-36.994 -21.613)"/>
                <path id="Path_39" d="M68.449 62.171c-.965-.263-1.823-1.234-2.9-1.522a10.547 10.547 0 0 0-5.618.252 18.485 18.485 0 0 0-8.4 4.913C46.059 71.3 43.6 78.142 46.237 85.583a2.113 2.113 0 0 0 2.7 1.453c2.889-1.37 2.839-4.18 3.944-6.912a24.592 24.592 0 0 1 3.729-6.435c1.37-1.672 2.957-3.318 4.485-4.857 1.971-1.984 4.878-5.383 7.371-6.538.077-.034.048-.105-.017-.123z" class="cls-4" transform="translate(-30.096 -28.572)"/>
                <path id="Path_40" d="M151.985 21.37c-10.813-4.724-23.364 1.127-30.4 9.477-.1.12.158.146.221.123 5.494-2.086 36.553-8.822 32.449 4.4-.536 1.725.21 6.784 3 4.7 6.845-5.098.952-15.981-5.27-18.7z" class="cls-4" transform="translate(-46.785 -19.684)"/>
                <path id="Path_41" d="M173.555 31.7a.049.049 0 0 0 0 .057c1.083 1.616 3.747 1.548 5.549 1.969a75.119 75.119 0 0 1 9.487 2.52c4.606 1.743 17.633 10.122 10.14 16.038-3.166 2.5 1.218 9.862 4.9 8.055 16.697-8.194-15.017-46.472-30.076-28.639z" class="cls-4" transform="translate(-58.14 -21.285)"/>
                <path id="Path_42" d="M239.3 74.869c-2.543-6.2-9.051-11.449-15.791-10.258-.155.027-.579.193-.474.439 1.142 2.669 2.98 4.327 5.171 6.224a26.029 26.029 0 0 1 3.732 3.529c2.659 3.4 1.812 9.328.986 13.441-1.08 5.382-2.04 10.173-1.648 15.7.188 2.65 3.125.038 3.2-1.549.289-6.076 2.073-11.559 4.143-17.244 1.315-3.606 2.211-6.551.681-10.282z" class="cls-4" transform="translate(-68.949 -29.461)"/>
                <path id="Path_43" d="M113.266 79.9c-7.565-9.405-20.2-6.968-25.992 3.206-.581 1.02 1.086.81 1.515.393 6.537-6.356 16.282-3.872 21.941 2.263 3.099 3.358 4.28-3.694 2.536-5.862z" class="cls-4" transform="translate(-39.267 -31.552)"/>
                <path id="Path_44" d="M174.395 79.057c-4.508-5.368-12.814-7.768-19.584-7.725-9.627.062-15.281 5.4-22.277 11.284-.626.527.24.836.7.645 4.692-1.931 10.948-2.5 15.967-3.153 1.179-.153 2.357-.281 3.536-.367 1.1 1.325 2.461 2.318 3.652 2.26 2.953-.145 4.314-.438 6.334 1.9 1.167 1.354 2.015 2.874 3.325 4.125 1.531 1.462 3.5 2.966 5.744 2.92 6.808-.13 5.625-8.291 2.603-11.889z" class="cls-4" transform="translate(-49.133 -30.966)"/>
                <path id="Path_45" d="M188.057 114.787c-1.147-1.788-2.98-3.49-5.182-3.607-1.6-.084-3.665.726-3.841 2.523-.224 2.266 4.4 3.8 5.607 5.381 1.3 1.713.957 3.214-.326 4.735a4.925 4.925 0 0 0-.3 5.094c.568 1.106 2.241 2.448 3.292.982 3.114-4.342 3.714-10.49.75-15.108z" class="cls-4" transform="translate(-59.338 -39.672)"/>
                <path id="Path_46" d="M247.735 134.242c-2.663-1.161-6.229-.474-9.11-1.528a20.6 20.6 0 0 1-8.938-6.237c-5.192-6.323-3.627-14.484-8.226-20.824-.239-.33-1.22.067-1.028.478 2.383 5.093.636 10.306 1.527 15.641a21.981 21.981 0 0 0 3.775 8.86 27.011 27.011 0 0 0 9.306 8.255c.293.157.594.3.895.447a6.114 6.114 0 0 0 1.141 4.129c3.057 3.286 8.784 4.894 12.181 1.036 2.391-2.716 2.196-8.635-1.523-10.257z" class="cls-4" transform="translate(-68.379 -38.438)"/>
                <path id="Path_48" d="M96.65 58.962c-1.1-.375-2.27.34-3.117 1.079a7.565 7.565 0 0 0-2.24 5.06c-.079.721.173 1.644 1.022 1.715.9.076 1.6-.877 1.986-1.554.725-1.275 1.075-2.634 1.7-3.948a7.175 7.175 0 0 0 .863-2.054.333.333 0 0 0-.214-.298z" class="cls-4" transform="translate(-40.168 -28.242)"/>
                <path id="Path_49" d="M62.782 63.292a16.5 16.5 0 0 0-7.974 9.685c-.338 1.044-.42 4.792 1.713 4.086 3.825-1.266 6.655-4.856 9.818-7.253 1.293-.979 2.777-1.649 4.122-2.554.406-.273 2.936-1.554 2.986-2.345.309-4.864-8.231-2.872-10.665-1.619z" class="cls-4" transform="translate(-32.161 -28.886)"/>
                <path id="Path_50" d="M139.2 45.756a10.444 10.444 0 0 1-.613-1.078 11.1 11.1 0 0 0-.824-.819 5.329 5.329 0 0 0-2.254-1.285 7.617 7.617 0 0 0-2.293-.39 2.921 2.921 0 0 0-2.1 1.2c-.835.846-1.622 3.547-.061 4.139 2.843 1.08 5.236-1.839 8.029-1.64.058.002.189-.062.116-.127z" class="cls-4" transform="translate(-48.663 -24.598)"/>
                <path id="Path_51" d="M80.575 95.936c-3.2-2.535-3.687-5.829-4.623-9.675-.273-1.123-2.053.084-2.137.8-.635 5.458-.3 12.716 5.408 15.485 2.977 1.454 3.028-5.284 1.352-6.61z" class="cls-4" transform="translate(-36.303 -34.128)"/>
                <path id="Path_52" d="M106.444 102.142a.371.371 0 0 0-.283.237 6.152 6.152 0 0 0-.05 3.066 7.236 7.236 0 0 1-.816 4.378c-1.56 3.062-4.471 3.557-7.139 5.2-2.445 1.5-.044 7.726 2.628 7.676 5.17-.1 9.319-4.078 10.435-9.048.762-3.4.356-12.52-4.775-11.509z" class="cls-4" transform="translate(-41.449 -37.681)"/>
                <path id="Path_53" d="M152.4 121.148c-5.482 1.549-10.764 4.021-14.559 8.428-2.4 2.79-5.246 7.972-2.784 11.564.935 1.363 2.969-.759 2.771-1.919-.632-3.7-.629-6.138 2.634-9.174a22.409 22.409 0 0 1 3.766-2.552 45.144 45.144 0 0 0 8.37-6.2c.14-.13-.105-.172-.198-.147z" class="cls-4" transform="translate(-49.526 -41.849)"/>
                <path id="Path_54" d="M34.133 137.514a55.261 55.261 0 0 1-1.814-15.682 62.97 62.97 0 0 1 1.738-13.332c.549-2.375 1.5-4.67 1.432-7.122 0-.087-.163-.055-.2-.02-7.242 6.444-9.731 17.28-9.374 26.622a52.81 52.81 0 0 0 2.2 13.233c2.887 9.559 8.67 17.592 10.751 27.6.522 2.508 3.719 3.442 4.306.431 2.117-10.886-6.193-21.635-9.039-31.73z" class="cls-4" transform="translate(-25.881 -37.519)"/>
                <path id="Path_55" d="M61.786 234.49c-5.146-9.393-11-18.378-15.656-28.04-4.177-8.676-7.031-17.669-10.066-26.778-.013-.039-.109-.041-.113.006-1.842 21.039 11.422 42.861 22.682 59.627 2.321 3.46 4.34-2.648 3.153-4.815z" class="cls-4" transform="translate(-28.043 -54.63)"/>
                <path id="Path_56" d="M64.951 139.728c-3.025-3.018-4.269 2.929-3.05 4.994 2.314 3.922 3.947 7.558 3.559 12.189-.38 4.538-2.442 8.613-3.153 13.071-.149.938 1.233.382 1.506-.031 1.741-2.638 4.83-3.948 6.4-6.834a17.384 17.384 0 0 0 1.781-6.87c.481-6.569-2.517-12.005-7.043-16.519z" class="cls-4" transform="translate(-33.648 -45.726)"/>
                <path id="Path_57" d="M67.971 141.913c-3.889-7.228-5.109-14.543-2.344-22.521.24-.691-.983-.41-1.2-.065a23.778 23.778 0 0 0 .42 26.767c1.744 2.477 4.032-2.494 3.124-4.181z" class="cls-4" transform="translate(-33.446 -41.373)"/>
                <path id="Path_58" d="M73.465 186.513c-.426-.46-1.5.218-1.481.758.085 2.185.295 4.34.442 6.52a56.194 56.194 0 0 1-.523 8.621c-.216 2.4 2.713 5.161 3.841 1.848 1.833-5.391 1.796-13.351-2.279-17.747z" class="cls-4" transform="translate(-35.933 -56.097)"/>
                <path id="Path_59" d="M91.477 262.5c-2.632-3.007-5.752-5.634-7.784-9.118-2.4-4.122-2.823-9.035-3.1-13.69-.442-7.545-.825-13.668-3.632-20.708-.2-.513-1.336-.069-1.293.421 1.53 17.241-2.411 36.716 13.517 48.5 2.309 1.709 3.533-3.986 2.292-5.405z" class="cls-4" transform="translate(-36.758 -63.175)"/>
                <path id="Path_60" d="M133.664 311.878c-11.987-3.8-21.9-8.447-31.453-17.01-7.154-6.41-13.762-13.36-20.975-19.714-.337-.3-1.5.132-1.2.633 6.508 11.052 14.361 21.054 24.356 29.185 7.977 6.488 18.346 13.274 28.9 13.81 2.83.143 2.693-6.167.372-6.904z" class="cls-4" transform="translate(-37.701 -75.474)"/>
                <path id="Path_61" d="M244.968 114.691c-3.214-.1-5.06 2.225-5.87 5.192-1.127 4.128.436 9.114 2.974 12.429a1.047 1.047 0 0 0 .791.316l1.213-.237c.492-.1 1.061-.482 1.062-1.035 0-1.437.389-1.287-.194-2.905-.442-1.224-1.14-2.286-.741-3.712.49-1.753 2.394-2.217 3.147-3.868.731-1.604-.009-6.105-2.382-6.18z" class="cls-4" transform="translate(-72.381 -40.438)"/>
                <path id="Path_62" d="M279.727 115.135a17.836 17.836 0 0 0-5.134-1.868c-4.344-.7-5.972 3.07-7.14 6.6-.136.414-.247 1.289.386 1.408 5.375 1.02 9.863-.7 13.782 3.861 1.1 1.28 3.037 2.818 4.578 1.221 4.441-4.602-3.43-9.652-6.472-11.222z" class="cls-4" transform="translate(-78.633 -40.11)"/>
                <path id="Path_63" d="M324.671 149.813c-8.337-6.377-10.471-22.9-23.667-16.078-.312.163-.867.923-.152.951 5.708.217 10.613 6.377 12.944 10.983 2.43 4.8 5.178 8.671 9.854 11.474 4.75 2.844 3.618-5.343 1.021-7.33z" class="cls-4" transform="translate(-85.877 -44.246)"/>
                <path id="Path_64" d="M345.938 146.847c-.208-.429-1.626-.534-1.539-.154.055.234-7.056.8-8.021.86-2.271.146-1.841 3.572-1.2 4.9.983 2.026 2.738 3.807 5.107 3.719a2.975 2.975 0 0 0 2.626-1.386 26.137 26.137 0 0 0 2.374-5.139c.253-.62 1.005-2.072.653-2.8z" class="cls-4" transform="translate(-93.34 -47.38)"/>
                <path id="Path_65" d="M340.484 197.841a15.8 15.8 0 0 1-1.591-6.029 19.864 19.864 0 0 0-2.9-8.258c-2.892-4.809-6.781-7.68-12.453-7.853-1.727-.053-3.381 3.536-1.634 4.471 2.091 1.118 6.742 2.9 8.018 4.921.678 1.075.22 3.464.3 4.765a19.745 19.745 0 0 0 1.409 7.26c1.046 2.285 9.375 11.411 9.985 4.445a7.06 7.06 0 0 0-1.134-3.722z" class="cls-4" transform="translate(-90.391 -53.768)"/>
                <path id="Path_66" d="M271.741 174.843c-.275-1.424-2.326.506-2.437 1.2-.047.3-.1.588-.15.883a11.247 11.247 0 0 1-2.865 2.092 13.354 13.354 0 0 1-2.045.921c-.769.16-.955.293-.571.4-2.187-.32-5.426.365-5.344 3.052.089 2.985 3.781 4.746 6.2 5.325a12.855 12.855 0 0 0 3.98.255c2.279-.2 3.41-1.447 3.74-3.643a31.84 31.84 0 0 0-.508-10.485z" class="cls-4" transform="translate(-76.663 -53.469)"/>
                <path id="Path_68" d="M302.034 163.741c-1.83-4.788-3.322-8.859-7.623-12.042a16.751 16.751 0 0 0-9.885-3.268c-3.34-5.972-13.773-11.557-17.9-6.071-1.122 1.492-1.387 7.051 1.689 6.636 2.275-.307 4.659-.849 6.927-.239a9.574 9.574 0 0 1 2.465 1.1c-1.031 1.291-.14 3.629.9 4.813a8.112 8.112 0 0 0 7.953 2.511c3.982-1.235 11.6 4.2 14.641 6.9.206.19.982.045.833-.34z" class="cls-4" transform="translate(-78.306 -45.994)"/>
                <path id="Path_84" d="M202.447 75.356c-2.491-.571-3.577 5.124-1.128 5.871 3.58 1.092 3.172 6.232 4.757 8.939.4.685 1.86-.131 1.746-.815-.76-4.551.878-12.565-5.375-13.995z" class="cls-4" transform="translate(-63.907 -31.838)"/>
                <path id="Path_85" d="M47.058 129.826c-.126-3.209-.669-6.372-.751-9.586-.041-1.589.321-3.42-.783-4.685-.2-.234-.71-.08-.865.14-3.208 4.582-2.627 11.494-1.377 16.621.292 1.194 1.141 2.2 2.411 1.51 1.374-.743 1.416-2.697 1.365-4z" class="cls-4" transform="translate(-29.465 -40.602)"/>
                <path id="Path_86" d="M51.763 162.372a18.388 18.388 0 0 0-3.088-6.176c-.326-.467-1.433-.1-1.39.49a25.5 25.5 0 0 0 1.6 8.009c.663 1.605 3.182-1.126 2.878-2.323z" class="cls-4" transform="translate(-30.557 -49.46)"/>
                <path id="Path_87" d="M60.427 217.5a44.319 44.319 0 0 1-5.777-18.31c-.081-.789-1.5-.2-1.594.345a33.278 33.278 0 0 0 4.2 22.55c1.951 3.434 4.559-2.246 3.171-4.585z" class="cls-4" transform="translate(-31.712 -58.816)"/>
                <path id="Path_88" d="M89.812 271.821c-14.364-6.547-26.434-20.158-36.479-32.08-8.938-10.608-16.251-22.5-19.99-35.942-.184-.662-1.626.057-1.574.644 1.533 17.045 10.507 31.385 21.51 44.038 5.361 6.164 11.2 11.9 17.138 17.5 5.358 5.052 11.172 10.581 18.431 12.638 3.269.925 3.452-5.664.964-6.798z" class="cls-4" transform="translate(-27.167 -59.849)"/>
                <path id="Path_89" d="M57.06 103.164c-3.84-.147-5.121 3.8-6 7.024a24.181 24.181 0 0 0-.4 11.513c.164.789 1.562.02 1.58-.552.074-2.52-.167-5.667 1.054-7.983a9.951 9.951 0 0 1 3.088-3.042c1.665-1.246 1.984-1.507 2.317-3.612.169-1.097-.127-3.29-1.639-3.348z" class="cls-4" transform="translate(-31.182 -37.92)"/>
                <path id="Path_91" d="M66.274 109.872c-5.318 1.157-8.39 6.211-9.442 11.279-1.133 5.45-.3 9.422 3.359 13.692.133.155.683.013.571-.215a17.4 17.4 0 0 1-1.67-9.965c.915-4.776 5.5-6.664 8.63-9.639 1.128-1.074.721-5.624-1.448-5.152z" class="cls-4" transform="translate(-32.539 -39.379)"/>
                <path id="Path_92" d="M72.352 112.291c-5.309 1.067-6.623 5.724-6.639 10.821-.014 4.381.59 11.209 4.071 14.259.267.234.951-.017.943-.4-.064-3.264-1.43-6.4-1.4-9.661a8.478 8.478 0 0 1 2.922-6.607c1.182-1.086 2.605-1.357 3.127-2.951s-.629-5.943-3.024-5.461z" class="cls-4" transform="translate(-34.583 -39.907)"/>
                <path id="Path_95" d="M71.1 168.416c-1.51.968-1.412 2.817-1.809 4.395-.7 2.778-2.117 5.279-2.859 8.02-.14.516.645.319.847.139 2.891-2.579 5.53-7.5 5.393-11.45-.032-.938-.581-1.739-1.572-1.104z" class="cls-4" transform="translate(-34.737 -52.127)"/>
                <path id="Path_98" d="M83.065 151.792c-.119-.385-.783-.035-.841.229a42.892 42.892 0 0 1-1.551 6.223c-.982 2.55-2.792 4.6-3.613 7.2-.448 1.418.891 5.6 2.831 3.6 2-2.061 2.6-5.357 3.16-8.12a18.116 18.116 0 0 0 .014-9.132z" class="cls-4" transform="translate(-37.043 -48.507)"/>
                <path id="Path_99" d="M144.333 122.117c-2.813-1.267-6.066 2.3-7.751 4.308a17.037 17.037 0 0 0-3.925 12.941c.284 2.868 2.946.374 2.845-1.5-.185-3.464 1.968-6.41 3.784-9.105.581-.863 1.151-1.72 1.769-2.557.869-1.177 1.849-3.368 3.273-4a.047.047 0 0 0 .005-.087z" class="cls-4" transform="translate(-49.187 -42.004)"/>
                <path id="Path_100" d="M200.286 158.325a65.635 65.635 0 0 0-5.725-6.951c-.517-.608-1.793.342-1.626 1.019a18.959 18.959 0 0 0 2.143 5.339 9.856 9.856 0 0 0 3.3 3.839c1.373.746 2.484-2.337 1.908-3.246z" class="cls-4" transform="translate(-62.373 -48.411)"/>
                <path id="Path_101" d="M210.244 170.835c-2.143-.413-3.7-2.35-5.023-3.958a10.648 10.648 0 0 1-2.123-3.447c-.414-1.429.229-2.294.575-3.611.156-.594.383-2.615-.883-2.388-3.713.666-3.294 6.512-2.1 9.1 1.739 3.77 5.2 5.877 9.292 5.086.35-.067.849-.668.262-.782z" class="cls-4" transform="translate(-63.886 -49.773)"/>
                <path id="Path_102" d="M219.261 168.834a8.988 8.988 0 0 1-3.674-2.285c-1.865-1.709-2.212-3.239-1.827-5.647.132-.831-.036-2.182-.963-2.5-.7-.243-2.213 1.271-1.875 1.461-.667-.375-.746 3.673-.688 4.169a8.763 8.763 0 0 0 1.638 4.458c1.839 2.284 4.453 2.005 7 1.237.262-.083.969-.743.389-.893z" class="cls-4" transform="translate(-66.153 -49.982)"/>
                <path id="Path_103" d="M229.161 166.681a7.162 7.162 0 0 1-3.562-2.827c-1.025-1.4-.6-2.323-.478-3.954.053-.673-.2-1.738-.985-1.91-.576-.125-1.9 1.223-1.692 1.327-.7-.353-.734 3.907-.656 4.4a6.924 6.924 0 0 0 1.27 3.112c1.324 1.729 3.641 1.554 5.529 1.007.33-.098 1.383-.923.574-1.155z" class="cls-4" transform="translate(-68.673 -49.897)"/>
                <path id="Path_104" d="M235.092 157.026a9.847 9.847 0 0 0-4.045-2.026c.134-.028.264-.075.4-.1.07-.011.257-.124.168-.219-3.016-3.281-8.582-3.367-10.918.7a3.719 3.719 0 0 0-.323 1.332c-7.273 2.385-14.362 4.316-20.514-2.008-.179-.185-.729-.043-.728.246.023 5.782 5.062 9.357 10.618 9.455a21.336 21.336 0 0 0 9.589-2.384c4.076-2 10.369-7.819 14.583-3.972.47.433 1.754-.55 1.17-1.024z" class="cls-4" transform="translate(-63.73 -48.649)"/>
                <path id="Path_119" d="M200.853 116.784a13.53 13.53 0 0 0-9.54-11.978c-.069-.024-.3.044-.187.136 4.055 3.236 7.286 7.587 7.432 12.969.15 5.555-3.926 8.179-5.054 13.133-.571 2.507 2.027 3.323 2.565.76 1.15-5.477 5.317-8.875 4.784-15.02z" class="cls-4" transform="translate(-61.975 -38.279)"/>
                <path id="Path_120" d="M219.659 78.812c-.163-.013-.547.232-.245.335 5.345 1.812 9.168 7.342 10.615 12.643 1.479 5.417-.082 10.377-1.1 15.69-.467 2.44 1.955 3.5 2.914.991 4.377-11.446 2.52-28.461-12.184-29.659z" class="cls-4" transform="translate(-68.137 -32.601)"/>
                <path id="Path_122" d="M75.3 99.3c-2.1-2.827-4.32-5.053-5.916-8.3-.66-1.341-1.607-.264-2.133.951a6.364 6.364 0 0 0-1.513-1.866 1.428 1.428 0 0 0-.805-.365A18.77 18.77 0 0 0 64 86.85c-.07-.162-.339-.1-.417.024-1.4 2.181-1.39 5.221-.909 7.977a7.53 7.53 0 0 0 2.412 7.286 26.186 26.186 0 0 0 2.574 2.231 10.758 10.758 0 0 0 2.482 1.468 1.139 1.139 0 0 0 1.11-.018 6.03 6.03 0 0 0 3-.645c2.272-1.078 2.448-3.978 1.048-5.873z" class="cls-4" transform="translate(-33.856 -34.336)"/>
                <path id="Path_123" d="M186.481 130.368c-2.136 4.414-7.651 5.72-12.2 5.484-5.233-.271-9.72-2-4.717-8.589.573-.755.109-1.56-.807-1.212-6.811 2.585-5.9 12.314.867 14.286s15.782-3.479 17.834-10.015c.176-.564-.815-.289-.977.046z" class="cls-4" transform="translate(-56.071 -42.903)"/>
                <path id="Path_124" d="M260.728 142.6c.079-.924-1.545-.316-1.58.391a25.844 25.844 0 0 1-.107 4.1 7.673 7.673 0 0 1-2.273 4.395c2.585-1.953 3.658-5.366 3.96-8.886z" class="cls-4" transform="translate(-76.322 -46.435)"/>
                <path id="Path_128" d="M234.515 151.439c-3.4-1.074-6.368-1.586-9.891-.6-5.294 1.487-9.572 4.216-15.321 3.487-5.3-.67-11.2-4.111-12.764-9.551-.01-.036-.088-.027-.088.012.061 11.156 10.653 14.453 20.085 11.234 5.94-2.028 10.183-4.412 16.821-2.989a16.285 16.285 0 0 0 7.3.4 8.19 8.19 0 0 0 2.125-.847c-2.515 1.233-5.82-.375-8.267-1.146z" class="cls-4" transform="translate(-63.145 -47.007)"/>
                <path id="Path_138" d="M312.8 195.084a61.15 61.15 0 0 0-2.7-12.454 11.443 11.443 0 0 0-2.8-4.872c-1.66-1.515-4.051-1.887-5.665-3.445-.055-.055-.256-.014-.236.085a9.034 9.034 0 0 0 2.27 4.135 20.385 20.385 0 0 1 3.789 6.738 52.055 52.055 0 0 1 2.17 11.044c.351 3.367 3.513 1.456 3.172-1.231z" class="cls-4" transform="translate(-86.071 -53.46)"/>
                <path id="Path_139" d="M308.421 195.854c-4.943 2.1-8.883 4.382-14.456 3.98-8.989-.646-12-7.125-11.762-16.078.029-1.052-1.467-.206-1.669.325a16.215 16.215 0 0 0 5.917 19.438c7.239 4.829 16 .508 22.107-4.347.771-.612 1.788-4.136-.137-3.318z" class="cls-4" transform="translate(-81.268 -55.418)"/>
                <path id="Path_140" d="M307.35 194.859c-.715-4.3-1.813-9.71-4.07-13.458-.535-.887-2.173.437-2.048 1.213.356 2.213 1.576 4.559 1.361 6.847-.228 2.415-3.339 5.613-5.9 5.471-2.3-.126-2.527 2.569-1.972 4.11.72 2 3.038 4.452 5.3 4.616 5.945.435 8.298-2.98 7.329-8.799z" class="cls-4" transform="translate(-84.557 -54.949)"/>
            </g>
            <g id="Group_11170" transform="translate(17.294)">
                <path id="Path_34" d="M76.965 119.824s-8.482 1.061-5.831 9.013 12.193 11.132 12.724 17.494-1.179 13.469-9.988 18.276c0 0-.934.8.935 2.8s6.674 6.406 6.273 13.346-1.869 9.342-1.869 9.342 4.805 5.072 5.206 15.616-.134 20.154 1.868 26.292 5.206 8.942 13.881 13.214 14.815 9.343 21.888 15.482 21.221 17.885 40.841 21.888c11.878 1.735 154.953.934 154.953.934a57.692 57.692 0 0 1-26.292-11.077c-12.012-9.476-10.544-10.811-10.544-10.811s-28.962 3.47-46.179-13.614-11.878-39.106-3.6-47.113a45.405 45.405 0 0 1 17.217-10.544s-9.076 2.536-13.48-5.2-3.07-10.143-3.07-10.143-8.675 3.736-14.414 1.6-7.608-9.075-7.608-9.075-3.336 7.073-8.808 7.073c0 0-.534-12.813-7.474-12.813 0 0-4.4-.266-6.406 2.136s-7.608 4-12.813 2.135-6.673-7.608-5.339-13.347c0 0-6.005-6.006-3.87-13.347l.4-6.54-3.87 2.136s-10.544 4-14.014.934-7.341-8.408-2.136-11.611c0 0-12.679-1.468-17.751 6.406s-.534 12.679-.534 12.679-5.205-1.334-6.94-8.675 1.335-10.944 6.139-14.415c0 0 1.335-3.737-2.135-5.338s-9.342-4.4-13.88-.8c0 0-2.136 5.2-3.871 7.34s-6.406 7.874-21.221 5.739c-9.481-.936-8.388-7.412-8.388-7.412z" class="cls-4" transform="translate(-52.186 -38.637)"/>
                <path id="Path_105" d="M242.566 189.918c.892-2.022-1.772-4.388-3.354-5.016a17.019 17.019 0 0 1-8.763-7.633c-.93-1.554-3.783-3.111-5.6-2.494-5.379 1.825-10.754.778-14.581-3.8-.757-.9-2.42-2.27-3.755-1.758-1.555.6-3.55 3.866-5.588 4.624.022-.181-.6-3.153-.593-3.25.395-4.074-3.711-6.8-6.233-9.512-.477-.512-1.733-1.246-2.445-.713-6.752 5.049-20.5 9.367-21.085-2.964-.148-3.134-.1-4.6-1.747-7.309-2.406-3.944-3.612-6.523-3.211-11.365.269-3.265-6.123-4.83-8.311-3.461-.218.136-3.76 1.922-3.543 2.48-1.035-2.656-5.081-5.16-7.781-3.283q-4.006-.392-2.529-2.523a3.2 3.2 0 0 1 1.752-2.008c3.4-2.192-1.715-6.665-4.289-6.575-6.767.239-15.852 3.087-13.683 11.79.536 2.151 1.916 7.626-1.875 7.568-2.062-.031-5.747-4.885-6.124-6.881a12.39 12.39 0 0 1 .025-3.48c.569-5.155 3.242-9.441 8.351-10.835 1.5-.41.966-2.61.5-3.509-3.28-6.316-13.46-12.942-18.88-4.958-2.935 4.325-4.3 8.4-9.052 11.35a19.536 19.536 0 0 1-22.14-1.225 4.651 4.651 0 0 0-.969-.566c-.115-.534-.23-1.067-.316-1.624-.2-1.26-2.557-4.649-4.047-2.777-4.421 5.556-2.752 12.914 1.685 18 3 3.444 9.5 5.618 9.867 10.692.426 5.929-5.227 10.729-9.174 14.247-1.506 1.343-.673 4.031.531 5.26a20.965 20.965 0 0 1 1.7 1.966 107.691 107.691 0 0 0 3.207 14.173 48.165 48.165 0 0 0-.841 5.636 6.2 6.2 0 0 0 .886 4.009c1.989 3.351 4 5.335 4.454 9.421.149 1.343 2.07-.051 2.062-.969a18.218 18.218 0 0 0-1.507-7.783 13.638 13.638 0 0 0-1.024-1.78c1.653 1.15 3.658 1.316 3.07-1.646a69.572 69.572 0 0 1-1.234-8.872A62.945 62.945 0 0 0 95.94 200.5c1.694 2.286 4.669 1.63 3.76-1.562a47.421 47.421 0 0 1 .288-27.3 96.683 96.683 0 0 0 7.4 20.267 134.371 134.371 0 0 0 9.026 14.743c5 16.1 15.828 30.393 32.457 35.161.2.057.781-.255.45-.423-9.369-4.758-17.375-13.146-22.734-22.079-.1-.167-.191-.337-.288-.5 1.483.093 2.7-1.424 1.736-3.472a85.349 85.349 0 0 1-8.143-36.156c1.358.8 3.618 1 3.749-1.056a23.875 23.875 0 0 1 .383-2.953l2.685 2.52c.916.859 4.074 3.055 4.919.7.66-1.837 3.516-10.427 6.39-13.688.207 2.236.163 4.7.443 6.441q.8 5 1.963 9.937a133.125 133.125 0 0 0 5.09 16.569 32.133 32.133 0 0 0 2.745 6.773c1.943 3.54 6.957 3.413 4.933-1.282-.76-1.764-1.476-3.545-2.16-5.34-1.783-5.989-1.987-12.951-1.335-19.72a75.847 75.847 0 0 0 12.534 28.061c1.3 1.81 4.171 2.163 3.89-.8q-.776-8.158-1.4-16.328c-.1-1.36-.266-2.779-.4-4.215a55.728 55.728 0 0 0 9.829 18.302c1.258 1.564 3.5 1.045 3.335-1.168a45.8 45.8 0 0 1 .213-9.03 32.474 32.474 0 0 0 3.186 9.087c.506.943 2.13 2.389 3.184 1.263 2.906-3.108 5.784-6.237 8.8-9.24q1.879-1.869 3.809-3.685c.62-.589 1.248-1.169 1.877-1.748a9.613 9.613 0 0 0 1.482 3.1c1.678 2.18 3.508 1.522 5.621 1.887 1.123 2.7 1.9 4.871 5.947 4.269l1.3-.744q2.75-1.436 3.439 1.033c.878.826 1.367 2.332 2.128 3.291a14.069 14.069 0 0 0 5.843 4.3 2.478 2.478 0 0 0 3.407-1.024 20.281 20.281 0 0 1 13.8-11.138c2.001-.522 1.856-2.202 1.045-3.635z" class="cls-4" transform="translate(-52.073 -37.979)"/>
                <g id="Group_11165">
                    <path id="Path_141" d="M155.725 70.016a28.734 28.734 0 0 0-18.734 6.571c-1.139.928-.07 2.008 1.044 1.083a32.631 32.631 0 0 1 17.682-7.543c.083-.008.11-.111.008-.111z" class="cls-2" transform="translate(-66.579 -29.378)"/>
                    <path id="Path_143" d="M118.255 28.866a19.969 19.969 0 0 0-14.7 15.019c-.043.2.358.136.418.013 2.928-5.961 7.837-9.88 13.983-12.19.965-.364 1.934-3.203.299-2.842z" class="cls-2" transform="translate(-59.38 -20.381)"/>
                    <path id="Path_144" d="M70.891 58.43a13.8 13.8 0 0 0-2.045 12.913c.118.364.964.07.919-.274a17.945 17.945 0 0 1 2.8-12.089c.989-1.485-.884-1.652-1.674-.55z" class="cls-2" transform="translate(-51.631 -26.691)"/>
                    <path id="Path_145" d="M49.961 106.713a5.412 5.412 0 0 1-1.309-5.818c.118-.328-.453-.232-.568-.044a7.067 7.067 0 0 0 .016 7.449c.681 1.109 2.671-.8 1.861-1.587z" class="cls-2" transform="translate(-47.034 -36.077)"/>
                    <path id="Path_146" d="M123.232 44.866c-3.144 1.529-5.719 3.573-7.032 6.928-1.014 2.59-1.767 5.722.7 7.617.155.119.606-.017.6-.242-.041-2.668.38-4.56 2.2-6.534 1.318-1.427 2.8-2.694 4.139-4.112.743-.788 1.547-4.705-.607-3.657z" class="cls-2" transform="translate(-61.935 -23.845)"/>
                    <path id="Path_147" d="M160.524 54.24a12.58 12.58 0 0 0-4.137-.211 6.108 6.108 0 0 0-3.153 1.365c-.816.594-1.03 2.381.4 1.732 2.159-.98 4.3-2.215 6.69-2.489.162-.02.533-.326.2-.397z" class="cls-2" transform="translate(-70.094 -25.867)"/>
                    <path id="Path_148" d="M193.527 62.03a20.209 20.209 0 0 0-7.895-.786c-.789.1-1.965 1.888-.693 2.048a25.58 25.58 0 0 0 8.462-.824c.205-.048.421-.348.126-.438z" class="cls-2" transform="translate(-77.038 -27.437)"/>
                    <path id="Path_149" d="M231.055 84.536c-1.956-3.064-3.693-5.725-6.948-7.53a13.9 13.9 0 0 0-8.521-1.885c-1.7.164-2.117 4.687-.262 4.7 5.28.04 11.633.636 15.333 4.882.111.128.515.015.398-.167z" class="cls-2" transform="translate(-83.534 -27.478)"/>
                    <path id="Path_150" d="M95.523 66.98c-5.418.908-9.137 5.157-11.164 10.031-.87 2.09 1.5 1.825 2.212.269 1.882-4.1 5.433-7.346 9.168-9.75.382-.244.225-.623-.216-.55z" class="cls-2" transform="translate(-55.146 -28.713)"/>
                    <path id="Path_153" d="M80.363 205.326c2.575-2.336 1.78-8.5 1.5-11.494-.5-5.337-2.322-11.406-7.568-13.8-.938-.428-3.706.993-3.245 1.2 4.62 2.11 6.489 7.194 7.177 11.929.428 2.952 1.5 10.1-1 12.373-.77.7 2.486.385 3.138-.208z" class="cls-2" transform="translate(-52.268 -53.395)"/>
                    <path id="Path_154" d="M73.57 168c2.329-2.743 5.675-4.428 7.826-7.357 2.218-3.018 2.773-7.325 3.439-10.931.659-3.561.086-5.907-2.764-8.177-2.336-1.86-4.963-3.134-6.873-5.522a14.192 14.192 0 0 1-2.4-4.245c-.325-1-1.849-12.036 3.386-8.789 1.252.777 4.3-.947 2.67-1.957a6.2 6.2 0 0 0-8.894 1.927c-3.045 4.718-.784 11.351 2.624 15.181 1.831 2.057 4.077 3.2 6.184 4.915 4.071 3.319 2.67 6.261 1.673 10.518-.974 4.166-1.483 6.175-4.863 9.1a41.984 41.984 0 0 0-4.885 4.364c-1.4 1.651 1.889 2.132 2.876.969z" class="cls-2" transform="translate(-51.73 -40.279)"/>
                    <path id="Path_156" d="M108.336 108.405c1.27 7.44.4 13.254-7.575 16.094-6.8 2.421-17.309 2.7-19.487-5.753-.225-.873-3.684.026-3.451.926 2.471 9.582 14.846 8.6 22.269 6.388a22.491 22.491 0 0 0 8.842-4.436c4.192-3.815 3.731-9 2.854-14.141-.14-.824-3.617-.048-3.451.924z" class="cls-2" transform="translate(-53.757 -37.486)"/>
                    <path id="Path_157" d="M73.98 54.683c3.3-17.281 18.668-28.431 36.123-25.83 1.751.261 3.488-2.245 1.173-2.589-19.362-2.886-37.1 9.289-40.8 28.657-.337 1.762 3.2 1.361 3.5-.238z" class="cls-2" transform="translate(-52.15 -19.727)"/>
                    <path id="Path_158" d="M116.665 31.285c6.9-6.978 16.519-11.95 26.56-11.391 8.183.455 15.965 5.859 12.379 14.956-.4 1.01 3.014.617 3.442-.47 4.033-10.229-5.485-15.9-14.446-16.325-11.411-.538-22.764 4.762-30.677 12.76-1.379 1.394 1.992 1.227 2.742.47z" class="cls-2" transform="translate(-61.575 -18.018)"/>
                    <path id="Path_159" d="M171.093 29.814c9.665-3.821 20.633-.547 27.728 6.74 5.06 5.2 8.779 14.055 4.28 20.73-.188.281 2.839.2 3.4-.631 6.009-8.916-1.62-20.211-9.232-25.2-8.222-5.385-18.338-5.9-27.345-2.342-2.282.9-.12 1.211 1.171.7z" class="cls-2" transform="translate(-73.661 -19.947)"/>
                    <path id="Path_160" d="M215.686 58.6c10.835.121 20.27 7.239 22.6 17.975 2.393 11.048-4.874 18.606-7.977 28.431-4.7 14.887 9.215 24.142 21.83 16.893 1.424-.819-2.008-.409-2.629-.052-6.018 3.458-12.8.091-15.531-5.458-2.028-4.117-1.452-8.706.019-12.911 2.377-6.795 7.142-12.58 8.075-19.881 1.875-14.669-9.938-26.2-24.13-26.356-.71-.008-3.9 1.342-2.252 1.36z" class="cls-2" transform="translate(-83.776 -26.586)"/>
                    <path id="Path_161" d="M254.209 140.734a9.665 9.665 0 0 1-1.46 10.15c-3.334 3.724-8.7 2.648-11.824-.719-.873-.94-4.166.345-3.195 1.392 8.314 8.97 24.862.324 19.931-11.748-.523-1.283-3.936-.261-3.451.925z" class="cls-2" transform="translate(-88.655 -44.496)"/>
                    <path id="Path_162" d="M230.177 148.939c-8.546-3.125-13.6 6.575-21.981 4.637-4.777-1.1-11.06-4.2-13.354-8.883-1.286-2.625-2.213-8.122-.312-10.514.682-.86-2.6-.416-3.129.247-2.036 2.565-1.462 6.763-.528 9.691 1.442 4.522 6.1 7.7 10.292 9.459a22.993 22.993 0 0 0 12.326 1.79c4.116-.658 10.183-6.418 13.852-5.076.777.285 3.86-.975 2.833-1.35z" class="cls-2" transform="translate(-78.272 -43.291)"/>
                    <path id="Path_163" d="M185.166 132.72c-1.5 1.672-3.259 3.959-5.239 5.051l-8.126 1.709a10.752 10.752 0 0 1-3.53-1.724 8.983 8.983 0 0 1-3.306-4.589c-.228-.967-.1-5.229 1.495-5.724 1.974-.615 1.7-1.855-.328-1.222-8.146 2.537-4.291 12.217 2.195 14.446 7.968 2.739 14.937-2.511 19.985-8.128.771-.858-2.543-.488-3.146.181z" class="cls-2" transform="translate(-72.044 -41.619)"/>
                    <path id="Path_164" d="M143.755 146.376c-2.808-3.459-2.59-8.053-.486-11.835 3.438-6.181 10.844-7.046 17.239-6.98.729.008 3.906-1.376 2.243-1.394-6.588-.067-13.755.667-19.183 4.774-5.106 3.864-7.339 11.343-3.066 16.6.516.636 3.765-.54 3.254-1.17z" class="cls-2" transform="translate(-66.96 -41.644)"/>
                    <path id="Path_165" d="M142.1 145.466c-3.285-2.456-7.109-5.983-7.849-10.21-.851-4.872 2.951-10.244 6.892-12.667 1.445-.889-2-.533-2.651-.13-3.91 2.4-7.354 6.777-7.769 11.487-.462 5.236 4.285 9.835 8.128 12.706.772.577 3.779-.79 3.249-1.186z" class="cls-2" transform="translate(-65.31 -40.742)"/>
                    <path id="Path_166" d="M138.74 119.94c1.846-5.072-5.489-7.268-9.063-8.2-4.193-1.092-8.885-.361-11.658 3.2-.9 1.149 2.539.856 3.2.011 2.961-3.8 16.1-.1 14.08 5.454-.382 1.054 3.043.635 3.443-.466z" class="cls-2" transform="translate(-62.509 -38.392)"/>
                    <path id="Path_167" d="M262.195 116.7c9.145-2.583 21.949-2.084 23.84 9.608.236 1.459 3.7.608 3.452-.925-2.161-13.362-17.6-13.748-27.872-10.847-2.1.591-1.536 2.762.58 2.164z" class="cls-2" transform="translate(-93.624 -38.784)"/>
                    <path id="Path_168" d="M296.715 130.308a20.036 20.036 0 0 1 21.526 11.912c2.53 6.089 4.166 10.618 11.6 10.572 1.07-.006 3.734-1.617 1.438-1.6-7.887.047-7.726-6.854-10.563-11.953a20.772 20.772 0 0 0-6.847-7.239 22.7 22.7 0 0 0-16.577-3.206c-1.474.253-2.99 1.929-.577 1.515z" class="cls-2" transform="translate(-101.304 -42.136)"/>
                    <path id="Path_169" d="M276.738 173.873c-6.2 9.827 1.6 20.937 12.44 21.684 7.561.521 15.9-4.01 21.612-8.571l-3.285.6c7.115 13.443 21.292 12.09 33.286 6.428.232-.109 1.23-.726.432-.868a11.67 11.67 0 0 1-8.911-6.542c-1.788-3.882-.531-7.927-.639-12-.147-5.538-4.634-9-9.259-11.426l-3.049 1.241a18.078 18.078 0 0 0 16.962-5.317c6.556-7.183 3.206-17.287-1.878-24.272-.461-.633-3.575.09-3.452.924.922 6.217-3.411 14.62-12.032 10.839-.918-.4-3.583 1.021-3.256 1.166 8.786 3.852 20.25-2.746 18.74-12.929l-3.452.924a27.657 27.657 0 0 1 5.378 12.181c1.115 7.791-4.225 17.328-14.169 15.167-.588-.128-3.611.946-3.048 1.241 4.02 2.105 8.6 5.352 9.055 10.173.559 5.924-1.78 11.3 2.839 16.189 1.531 1.622 3.325 2.208 5.156 3.265 1.02.589 3.777-.587-.583.953a34.648 34.648 0 0 1-5.887 1.56c-8.366 1.372-14.875-2.438-18.784-9.822-.439-.833-2.811.224-3.285.6-6.468 5.166-15.128 9.313-22.983 4.729a13.251 13.251 0 0 1-4.548-18.742c.219-.35-2.865-.231-3.4.619z" class="cls-2" transform="translate(-96.736 -43.486)"/>
                    <path id="Path_170" d="M265.486 126.443c-2.718-5.209-5.618-10.177-11.371-12.369a24.166 24.166 0 0 0-16.3-.538c-2.25.8-.23 2.269 1.433 1.677 10.37-3.687 18.447 3.839 22.788 12.155.679 1.3 4.052.227 3.45-.925z" class="cls-2" transform="translate(-88.494 -38.629)"/>
                    <path id="Path_171" d="M228.017 180.6c2.07-6.649-2.7-13.96-10-13.862-4.593.062-5.837 5.181-10.411 6.036-8.4 1.57-15.364-6.734-10.478-14.209a.675.675 0 0 0-.265-.988c-4.512-2.625-6.634-9.019-3.643-13.518.942-1.418-2.545-1.243-3.245-.189-3.229 4.856-1.114 9.626 1.9 13.884 1.1 1.556.944.35 1.192 1.874.16.985-1.119 3.435-1.126 4.611a10.256 10.256 0 0 0 2.465 6.751c3.308 3.9 8.926 4.987 13.727 3.741 2.9-.751 4.564-2.626 7.15-3.87q1.2-2.143 3.516-.883a4.562 4.562 0 0 1 4.518 2.36c2.076 2.631 2.188 5.553 1.23 8.632-.422 1.353 3.069.91 3.467-.371z" class="cls-2" transform="translate(-77.909 -45.331)"/>
                    <path id="Path_172" d="M245.218 171.784c-.564-.776-3.9.342-3.23 1.258 4.051 5.577-.8 11.595-5.986 13.935-2.205.995-.152 1.721 1.273 1.079 6.084-2.742 12.985-9.33 7.943-16.272z" class="cls-2" transform="translate(-88.105 -51.553)"/>
                    <path id="Path_173" d="M245.57 182.471c3.35 3.978 5.144 8.767 10.632 10.32 4.784 1.353 9.6-.73 13.824-2.806 2.066-1.016-1.045-1.411-2.105-.889-5.123 2.52-10.37 3.038-14.528-1.445-1.814-1.957-2.887-4.449-4.6-6.489-.707-.84-4.014.362-3.218 1.309z" class="cls-2" transform="translate(-90.38 -53.597)"/>
                    <path id="Path_245" d="M221.825 83.959c10.753 2.042 7.473 15.479 6.468 22.905-.753 5.556-.5 10.953 3.105 15.5 1 1.264 4.277-.122 3.155-1.54-8.409-10.624 7.522-35.816-11.553-39.439-1.742-.331-3.475 2.137-1.178 2.574z" class="cls-2" transform="translate(-84.978 -31.855)"/>
                    <path id="Path_246" d="M304.246 174.974c4.977 2.267 4.809 7.787 5.75 12.4a22.092 22.092 0 0 0 4.766 9.752c.815 1 4.132-.254 3.193-1.4-3.56-4.341-4.255-8.638-5.254-13.961-.7-3.731-2.146-6.915-5.732-8.55-1.106-.5-4.237 1.07-2.723 1.76z" class="cls-2" transform="translate(-103.137 -51.902)"/>
                    <path id="Path_248" d="M58.05 92.023c-2.3 9.5 5.452 16.828 14.694 16.008 1.625-.144 2.922-1.965.514-1.751-8.132.72-13.575-7.28-11.769-14.733.277-1.143-3.175-.619-3.439.477z" class="cls-2" transform="translate(-49.35 -33.941)"/>
                    <path id="Path_249" d="M80.364 103.259c-6.715 4.943-4.551 13.187-.753 19.263.816 1.3 4.111 0 3.162-1.515-2.976-4.761-5.683-12.1-.125-16.192 1.884-1.387-.918-2.562-2.284-1.557z" class="cls-2" transform="translate(-53.367 -36.558)"/>
                    <path id="Path_250" d="M70.6 201.292c-.934-4.431-3.806-18.948 2.2-21.1 2.278-.815.189-1.819-1.326-1.278-8.211 2.938-5.67 16.936-4.329 23.3.229 1.085 3.7.233 3.452-.926z" class="cls-2" transform="translate(-51.11 -53.135)"/>
                    <path id="Path_251" d="M180.157 109.063c8.708-.838 14.017 6.8 11.161 14.574-1.576 4.288-3.777 7.843-2.415 12.489.289.986 3.735.043 3.452-.924-2.3-7.85 6.462-14.183 2.016-21.987-2.861-5.022-8.311-6.249-13.654-5.735-1.548.148-2.978 1.815-.56 1.582z" class="cls-2" transform="translate(-75.833 -37.539)"/>
                </g>
            </g>
            <g id="Group_11171" transform="translate(2.112 57.601)">
                <path id="Path_125" d="M256.05 154.49a4.169 4.169 0 0 0 .561-.392c-.181.137-.365.269-.561.392z" class="cls-2" transform="translate(-74.515 -105.348)"/>
                <path id="Path_126" d="M256.032 154.606l.014-.008z" class="cls-2" transform="translate(-74.512 -105.457)"/>
                <path id="Path_127" d="M255.729 154.738c.081-.039.158-.084.237-.129-.075.047-.159.085-.237.129z" class="cls-2" transform="translate(-74.446 -105.459)"/>
                <path id="Path_152" d="M143.746 294.683c-27.98-.257-53.187-14.356-72.932-33.393-15.3-14.752-29.474-33.348-36.623-53.59a149.3 149.3 0 0 1-5.308-19.34c-1.5-7.267-3.122-16.944 2.46-22.922.633-.679-2.559-.265-3.108.323-9 9.635-2.136 27.334 1.011 38.1a106.646 106.646 0 0 0 11.961 25.856c13.584 22.052 32.573 41.983 55.481 54.377A95.8 95.8 0 0 0 141.484 296c.687.007 3.886-1.3 2.263-1.32z" class="cls-2" transform="translate(-23.77 -107.748)"/>
                <path id="Path_155" d="M78.879 212.937c9.713 10.888 2.9 27.653 6.856 40.418 3.9 12.585 17.017 13.777 26.331 20.7 5.826 4.333 10.85 9.641 16.645 14.029a104.427 104.427 0 0 0 17.308 10.693c11.489 5.59 24.075 8.709 36.877 7.5 1.032-.1 3.708-1.817 1.438-1.6-14.172 1.342-28.064-2.979-40.327-9.89a110.515 110.515 0 0 1-17.362-12.2c-5.193-4.427-9.96-9.469-15.994-12.782-4.581-2.515-9.74-3.989-14.021-7.045-5.619-4.011-8-10.154-8.656-16.836-1.1-11.2 2.38-24.987-5.861-34.224-.65-.727-3.911.484-3.235 1.241z" class="cls-2" transform="translate(-35.79 -117.882)"/>
                <path id="Path_189" d="M292.186 210.218c-21.11 3.826-34.26 25.151-26.871 45.686 7.605 21.144 34.867 28.616 55.11 28.9 1.509.021 3.588-2.239 1.259-2.272-16.988-.237-40.6-5.788-50.088-21.568-11.132-18.522-2.022-44.452 20.213-48.483 1.767-.319 2.728-2.687.378-2.261z" class="cls-2" transform="translate(-76.087 -117.596)"/>
                <path id="Path_192" d="M110.416 202.478A76.438 76.438 0 0 1 127.3 116.09c.216-.206-.8-.09-.988.092a76.6 76.6 0 0 0-16.994 86.59c.114.252 1.174-.115 1.094-.293z" class="cls-2" transform="translate(-41.003 -97.02)"/>
                <path id="Path_193" d="M93.507 170.661a51.15 51.15 0 0 1 10.951-39.886c.282-.344-.8-.249-1.01.006a51.539 51.539 0 0 0-11.035 40.173c.048.326 1.149.08 1.093-.293z" class="cls-2" transform="translate(-38.642 -100.204)"/>
                <path id="Path_194" d="M107.831 244.189a61.246 61.246 0 0 1-8.307-17.932c-.087-.312-1.18-.017-1.093.293a61.6 61.6 0 0 0 8.377 18.038c.169.25 1.23-.094 1.023-.4z" class="cls-2" transform="translate(-40.079 -121.083)"/>
                <path id="Path_195" d="M167.335 286.787c-8.605-7.1-17.738-13.882-25.567-21.857a64.5 64.5 0 0 1-5.113-5.832c-1.135-1.479-2.448-4.766-4.225-5.506a5.434 5.434 0 0 0-.943-.169 24.126 24.126 0 0 1-2.886-.96 2.138 2.138 0 0 0-1.837-.086c-.152.051-.335.161-.34.336-.051 1.678 1.189 3.041 2.235 4.23 1.617 1.836 3.206 3.689 4.808 5.541a163.291 163.291 0 0 0 12.385 12.834 165.7 165.7 0 0 0 27.905 20.852c.272.161 1.286-.251.881-.493a163.427 163.427 0 0 1-37.828-30.973 106.114 106.114 0 0 1-8.291-9.578c-.179-.253-1.557-2.16-.714-2.111.353.02 1.1.888 1.519 1.061 1.126.462 2.073-.122 3.134.842a18.871 18.871 0 0 1 2.023 3.029c.747 1.053 1.538 2.077 2.359 3.073a71.121 71.121 0 0 0 5.287 5.69c7.554 7.351 16.063 13.78 24.186 20.483.271.225 1.276-.2 1.021-.408z" class="cls-2" transform="translate(-46.196 -126.781)"/>
                <path id="Path_196" d="M119.165 215.78a98.417 98.417 0 0 0 41.881 52.813c.367.225 1.35-.288.854-.591a97.852 97.852 0 0 1-41.641-52.515c-.149-.453-1.24-.149-1.094.293z" class="cls-2" transform="translate(-44.608 -118.71)"/>
                <path id="Path_197" d="M117.782 175.051a44.793 44.793 0 0 1 4.776-25.692c.128-.248-.924-.156-1.088.16a45.034 45.034 0 0 0-4.782 25.824c.034.3 1.134.071 1.094-.292z" class="cls-2" transform="translate(-44.008 -104.281)"/>
                <path id="Path_198" d="M142.907 174.646a49.451 49.451 0 0 1 14.213-35.681c.242-.245-.8-.134-.995.065a49.769 49.769 0 0 0-14.311 35.909c0 .208 1.1.036 1.093-.293z" class="cls-2" transform="translate(-49.556 -102.011)"/>
                <path id="Path_199" d="M152.811 179.632a82.147 82.147 0 0 0 26.237 69.258c.255.229 1.269-.182 1.021-.406a81.9 81.9 0 0 1-26.17-69.011c.042-.372-1.052-.163-1.088.16z" class="cls-2" transform="translate(-51.856 -110.848)"/>
                <path id="Path_200" d="M168.9 250.376a51.483 51.483 0 0 1-15.585-19.18 94.227 94.227 0 0 1-4.8-11.818c-.795-2.362-1.162-7.12-4.052-7.872-.222-.058-.969.061-1 .359-.036.4-.013 2.688-.839 2.534a18.393 18.393 0 0 1-.951-2.625c-.444-1.062-.827-2.568-2.129-2.8a1.662 1.662 0 0 0-1.844.846c-.677 1.458 1.011 4.719 1.408 6.064a76.976 76.976 0 0 0 4.784 12.382c7.543 15.291 19.407 27.886 32.342 38.778 7.772 6.543 15.972 12.552 24.164 18.552.244.178 1.188-.258 1.031-.373-13.833-10.133-27.8-20.356-39.465-33.019a106.3 106.3 0 0 1-15.535-21.436 73.589 73.589 0 0 1-5.259-11.907c-.819-2.5-2.115-5.406-2.389-8.054-.12-1.159.087-1.716 1.027-.428a12.516 12.516 0 0 1 1.276 2.995c.338.935.473 2.394 1.69 2.478 2.009.139 1.679-3.107 1.784-4.275l-1 .358c2.038.531 2.373 3.121 2.909 4.824.613 1.951 1.26 3.891 1.962 5.812a82.8 82.8 0 0 0 5.206 11.636 49.948 49.948 0 0 0 14.23 16.547c.244.177 1.186-.259 1.029-.373z" class="cls-2" transform="translate(-48.625 -117.328)"/>
                <path id="Path_201" d="M192.415 297.884c9.361 10.294 21.844 17.008 35.011 21.141 14.531 4.561 29.923 3.909 44.914 5.482.278.029 1.264-.445.693-.5-14.924-1.568-30.254-.9-44.721-5.443-13.124-4.119-25.542-10.812-34.873-21.07-.211-.231-1.243.156-1.024.4z" class="cls-2" transform="translate(-60.607 -136.658)"/>
                <path id="Path_202" d="M211.33 288.33c18.651 25.126 51.435 30.067 80.353 33.837.256.035 1.182-.383.9-.419-28.826-3.76-61.569-8.669-80.158-33.712-.195-.262-1.175.184-1.094.294z" class="cls-2" transform="translate(-64.744 -134.591)"/>
                <path id="Path_203" d="M83.115 138.007a11.882 11.882 0 0 1 2.806-6.48c.45-.529-.587-.73-.919-.339a12.735 12.735 0 0 0-3 6.9c-.065.572 1.052.432 1.11-.077z" class="cls-2" transform="translate(-36.492 -100.298)"/>
                <path id="Path_204" d="M89.029 139.867a63.214 63.214 0 0 1 3.836-7.5c.305-.512-.8-.51-1.043-.112a63.439 63.439 0 0 0-3.835 7.5c-.242.564.856.543 1.042.112z" class="cls-2" transform="translate(-37.791 -100.513)"/>
                <path id="Path_205" d="M76.9 131.811a21.7 21.7 0 0 1 2.454-5.911c.064-.107-.916-.069-1.077.2a21.7 21.7 0 0 0-2.453 5.912c-.051.2 1.01.064 1.076-.2z" class="cls-2" transform="translate(-35.142 -99.175)"/>
                <path id="Path_206" d="M106.332 137.1c4.963-8.406 10.4-16.664 18.394-22.491.6-.436-.277-.88-.738-.545-8.128 5.926-13.663 14.337-18.709 22.885-.319.541.793.594 1.053.152z" class="cls-2" transform="translate(-41.565 -96.575)"/>
                <path id="Path_207" d="M127.48 175.8a60.564 60.564 0 0 0 1.106 22.129c.07.292 1.168.016 1.094-.293a60.166 60.166 0 0 1-1.115-22.007c.044-.333-1.044-.131-1.085.171z" class="cls-2" transform="translate(-46.309 -110.014)"/>
                <path id="Path_208" d="M101.68 258.276c6.553 12.87 18.509 21.377 30.09 29.4.293.2 1.276-.234 1.021-.411-11.536-7.99-23.487-16.458-30.018-29.282-.173-.34-1.231.024-1.093.292z" class="cls-2" transform="translate(-40.788 -128.013)"/>
                <path id="Path_209" d="M266.742 275.574a37 37 0 0 1 5.985-64.516c.657-.292-.362-.29-.637-.167a38.356 38.356 0 0 0-22.39 29.921c-1.635 13.581 4.871 27.358 16.011 35.142.258.179 1.2-.258 1.029-.38z" class="cls-2" transform="translate(-73.074 -117.738)"/>
                <path id="Path_210" d="M239.581 209.877a32.649 32.649 0 0 0-7.807 14.148 22.48 22.48 0 0 0-.394 7.9 19.266 19.266 0 0 0 1.118 4.432c.123.317.259.634.4.943a12.609 12.609 0 0 0 .618 1.228q.836 1.119-.78 2.244c-.3-.287-1.054.035-.966.472.107.528 1.03 2.752-.148 2.684-.534-.031-1.234-2.209-1.371-2.594a23.294 23.294 0 0 1-1.065-6.134 45.311 45.311 0 0 1 .925-13.8 39.05 39.05 0 0 1 18.839-24.7c.644-.364.063-1-.5-.682A39.949 39.949 0 0 0 228.021 228c-.31 4.659-.443 10.637 1.665 14.925.552 1.123 1.906 3.28 3.462 2.5 1.874-.943-.042-3.283-.281-4.467l-.966.471a2.113 2.113 0 0 0 3.177-.393c.441-.687.292-1.109.054-1.877-.608-1.964-1.873-3.64-2.338-5.713-1.934-8.626 2.115-16.884 7.71-23.214.46-.521-.578-.738-.923-.349z" class="cls-2" transform="translate(-68.354 -114.486)"/>
                <path id="Path_211" d="M212.63 228.845c-6.57-14.634-.246-30.724 9.634-42.115.432-.5-.622-.529-.887-.222-9.993 11.521-16.5 27.8-9.841 42.631.184.409 1.261.078 1.094-.293z" class="cls-2" transform="translate(-64.199 -112.384)"/>
                <path id="Path_212" d="M216.535 255.225c-19.347-20.206-34.417-48.242-25.507-76.764.151-.483-.964-.356-1.105.094-8.943 28.626 6.185 56.857 25.609 77.142.325.34 1.364-.094 1-.471z" class="cls-2" transform="translate(-59.493 -110.602)"/>
                <path id="Path_458" d="M216.535 255.225c-19.347-20.206-34.417-48.242-25.507-76.764.151-.483-.964-.356-1.105.094-8.943 28.626 6.185 56.857 25.609 77.142.325.34 1.364-.094 1-.471z" class="cls-2" transform="translate(-79.489 -120.6)"/>
                <path id="Path_213" d="M177.825 183.232a40.634 40.634 0 0 1 8.612-27.081c.038-.048-.88-.044-1.075.206a40.774 40.774 0 0 0-8.631 27.168c.007.147 1.107-.02 1.094-.293z" class="cls-2" transform="translate(-57.177 -105.791)"/>
                <path id="Path_214" d="M220.7 255.8a89.045 89.045 0 0 0 59.727 45.871c.248.053 1.187-.35.9-.412a88.794 88.794 0 0 1-59.535-45.752c-.131-.253-1.173.139-1.094.293z" class="cls-2" transform="translate(-66.791 -127.486)"/>
                <path id="Path_215" d="M242.236 245.826a45.745 45.745 0 0 1 27.936-44.347c.695-.292.073-.792-.464-.566a46.58 46.58 0 0 0-28.574 45.018c.024.529 1.121.327 1.1-.1z" class="cls-2" transform="translate(-72.246 -114.563)"/>
                <path id="Path_216" d="M220.546 228.591a40.474 40.474 0 0 1 22.048-42.144c.673-.333.067-.849-.468-.584a41.307 41.307 0 0 0-22.674 43.021c.066.461 1.165.2 1.094-.293z" class="cls-2" transform="translate(-67.426 -112.271)"/>
                <path id="Path_217" d="M209.092 238.922a77.043 77.043 0 0 1-11.5-28.538c-1.787-9.849-1.791-20.532 3.711-29.263.283-.45-.818-.376-1.025-.047-5.38 8.538-5.574 18.949-3.949 28.632a77.432 77.432 0 0 0 11.752 29.657c.217.329 1.275-.04 1.012-.441z" class="cls-2" transform="translate(-61.273 -111.182)"/>
                <path id="Path_218" d="M186.357 225.309a50.237 50.237 0 0 1-6.546-19.984c-.052-.478-1.148-.216-1.094.293a50.714 50.714 0 0 0 6.636 20.164c.236.4 1.284.008 1-.473z" class="cls-2" transform="translate(-57.62 -116.484)"/>
                <path id="Path_219" d="M242.111 267.64c2.891 7.789 8.653 13.825 15.056 18.921a94.5 94.5 0 0 0 21.862 13.43c5.652 2.382 11.521 3.522 17.5 4.675 6.122 1.183 12.251 2.333 18.4 3.351 6.022 1 12.177 2.113 18.3 2.16.352 0 1.179-.523.45-.529-11.223-.086-22.677-2.865-33.654-4.961-5.364-1.023-10.852-1.847-16.031-3.612-8.316-2.835-15.9-7.477-22.919-12.695-7.477-5.557-14.561-12.1-17.876-21.033-.117-.319-1.2.009-1.093.292z" class="cls-2" transform="translate(-71.469 -130.06)"/>
                <path id="Path_220" d="M240.767 292.973a114.563 114.563 0 0 0 64.1 24.784c.405.027 1.166-.553.43-.6a113.643 113.643 0 0 1-63.511-24.607c-.292-.234-1.3.193-1.017.422z" class="cls-2" transform="translate(-71.166 -135.58)"/>
                <path id="Path_221" d="M258.7 267.606c9.909 25.878 40.1 31.315 64.539 31.514.488 0 1.131-.731.394-.737-24.143-.2-54.04-5.482-63.838-31.07-.176-.456-1.261-.144-1.095.293z" class="cls-2" transform="translate(-75.091 -130.032)"/>
                <path id="Path_230" d="M146.426 142.818a28.174 28.174 0 0 1 14.958-14.389c.7-.288.073-.767-.458-.548a29.234 29.234 0 0 0-15.532 14.863c-.242.524.855.458 1.032.074z" class="cls-2" transform="translate(-50.333 -99.608)"/>
                <path id="Path_231" d="M120.69 140.77A36.872 36.872 0 0 1 136 120.563c.476-.306-.619-.242-.853-.092a37.417 37.417 0 0 0-15.543 20.469c-.089.284.988.143 1.085-.171z" class="cls-2" transform="translate(-44.706 -97.974)"/>
                <path id="Path_232" d="M155.347 166.143a30.964 30.964 0 0 1 12.322-22.779c.593-.445-.309-.731-.707-.432a31.758 31.758 0 0 0-12.718 23.315c-.035.521 1.072.341 1.1-.1z" class="cls-2" transform="translate(-52.274 -102.882)"/>
                <path id="Path_233" d="M175.031 165.063a36.457 36.457 0 0 1 12.828-20.753c.492-.4-.591-.441-.884-.206a37.108 37.108 0 0 0-13.041 21.086c-.093.433 1.01.266 1.1-.127z" class="cls-2" transform="translate(-56.574 -103.133)"/>
                <path id="Path_234" d="M184.294 176.336a32.976 32.976 0 0 1 8.248-14.1c.478-.488-.573-.67-.915-.321a33.829 33.829 0 0 0-8.44 14.5c-.148.512.971.39 1.107-.084z" class="cls-2" transform="translate(-58.595 -107.016)"/>
                <path id="Path_235" d="M202.87 208.547a31.236 31.236 0 0 1 10.991-26.828c.247-.208-.781-.117-.995.063a31.526 31.526 0 0 0-11.09 27.058c.022.232 1.123.023 1.093-.293z" class="cls-2" transform="translate(-62.628 -111.356)"/>
                <path id="Path_236" d="M216.506 207.824a53.154 53.154 0 0 1 15.394-23.459c.5-.441-.569-.584-.906-.286a53.934 53.934 0 0 0-15.594 23.843c-.152.471.961.345 1.1-.1z" class="cls-2" transform="translate(-66.632 -110.863)"/>
                <path id="Path_237" d="M226.995 213.983a40.8 40.8 0 0 1 20.5-24.551c.671-.342.058-.757-.445-.5a41.834 41.834 0 0 0-21.15 25.175c-.126.417.977.273 1.1-.124z" class="cls-2" transform="translate(-68.926 -111.94)"/>
                <path id="Path_238" d="M239.3 222.414a46.365 46.365 0 0 1 28.346-25.782c.653-.209.483-.9-.183-.683a47.6 47.6 0 0 0-29.2 26.372c-.235.548.862.5 1.038.093z" class="cls-2" transform="translate(-72.622 -113.482)"/>
                <path id="Path_239" d="M88.082 188.306a73.37 73.37 0 0 0 3.524 21.38c.1.308 1.187 0 1.094-.293a73.314 73.314 0 0 1-3.524-21.38c0-.25-1.1-.067-1.094.293z" class="cls-2" transform="translate(-37.82 -112.732)"/>
                <path id="Path_240" d="M96.9 199.342a82.024 82.024 0 0 0 19.866 44.5c.241.274 1.286-.115 1.017-.422a81.752 81.752 0 0 1-19.788-44.372c-.042-.347-1.141-.106-1.094.294z" class="cls-2" transform="translate(-39.746 -115.132)"/>
                <path id="Path_241" d="M113.761 191.274a66.584 66.584 0 0 0 2.5 10.022c.082.244 1.167-.074 1.093-.293a66.522 66.522 0 0 1-2.5-10.022c-.036-.213-1.139.026-1.094.293z" class="cls-2" transform="translate(-43.43 -113.388)"/>
                <path id="Path_242" d="M122 194.725a116.789 116.789 0 0 0 29.956 56.182c.273.284 1.314-.123 1.014-.435a116.44 116.44 0 0 1-29.876-56.04c-.085-.393-1.182-.117-1.094.293z" class="cls-2" transform="translate(-45.229 -114.118)"/>
                <path id="Path_243" d="M136.309 189.816c-2.186-12.179-3.052-25.124 3.268-36.279.063-.113-.923-.07-1.077.2-6.336 11.181-5.477 24.157-3.286 36.371.037.2 1.14-.041 1.094-.293z" class="cls-2" transform="translate(-47.763 -105.213)"/>
                <path id="Path_253" d="M145.981 291.114a101.626 101.626 0 0 0 51.219 32.064c.425.112 1.292-.513.646-.683a100.861 100.861 0 0 1-50.862-31.844c-.293-.341-1.339.076-1.006.462z" class="cls-2" transform="translate(-50.455 -135.153)"/>
                <path id="Path_254" d="M200.377 316.293a261.059 261.059 0 0 0 25.573 12.526c.307.131 1.307-.326.876-.509a261.253 261.253 0 0 1-25.573-12.526c-.293-.164-1.3.271-.876.509z" class="cls-2" transform="translate(-62.33 -140.663)"/>
                <path id="Path_255" d="M230.246 313.224a190.842 190.842 0 0 0 39.983 14.1c.386.09 1.29-.491.657-.638a189.87 189.87 0 0 1-39.778-14.019c-.352-.169-1.344.329-.862.562z" class="cls-2" transform="translate(-68.849 -139.981)"/>
                <path id="Path_256" d="M71.475 144.642c-5.035-4.066-9.393-9.509-10.258-16.113-.823-6.274 2.212-13.234 8.283-15.682.713-.288.054-.552-.409-.365a15.01 15.01 0 0 0-9.074 13.31c-.446 7.808 4.658 14.589 10.436 19.255.268.216 1.267-.206 1.022-.4z" class="cls-2" transform="translate(-31.682 -96.242)"/>
                <path id="Path_257" d="M54.524 130.367a22.985 22.985 0 0 1 8.013-21.783c.476-.392-.608-.381-.873-.163a23.491 23.491 0 0 0-8.233 22.24c.063.356 1.162.1 1.093-.293z" class="cls-2" transform="translate(-30.171 -95.336)"/>
                <path id="Path_258" d="M51.518 112.885a16.941 16.941 0 0 1 6.907-8.581c.625-.4-.3-.676-.7-.42a17.727 17.727 0 0 0-7.237 8.922c-.2.552.886.478 1.033.079z" class="cls-2" transform="translate(-29.601 -94.357)"/>
                <path id="Path_259" d="M205.01 166a4.874 4.874 0 0 1 .263-6.031c.443-.508-.606-.606-.9-.269a5.425 5.425 0 0 0-.369 6.762c.26.363 1.31-.036 1.007-.462z" class="cls-2" transform="translate(-62.924 -106.528)"/>
                <path id="Path_260" d="M215.3 165.551c-1.517-1.108-1.561-3.892.183-4.833.656-.355.062-.893-.474-.6a3.632 3.632 0 0 0-.558 6.046c.367.269 1.338-.251.848-.609z" class="cls-2" transform="translate(-65.128 -106.644)"/>
                <path id="Path_261" d="M223.854 160.921a1.939 1.939 0 0 1 .77-2.074c.192-.128.116-.231-.072-.269a1.209 1.209 0 0 0-.774.207 2.289 2.289 0 0 0-1.018 2.429c.061.265 1.159-.007 1.095-.293z" class="cls-2" transform="translate(-67.23 -106.324)"/>
                <path id="Path_269" d="M32.546 173.2a53.2 53.2 0 0 0 4.881 26.616c.17.364 1.239.017 1.093-.293a52.926 52.926 0 0 1-4.882-26.467c.031-.423-1.065-.209-1.092.144z" class="cls-2" transform="translate(-25.654 -109.437)"/>
                <path id="Path_270" d="M43.2 216.007a156.97 156.97 0 0 0 23.073 43.517c.178.237 1.23-.121 1.024-.394a156.576 156.576 0 0 1-23-43.417c-.1-.3-1.189.015-1.094.293z" class="cls-2" transform="translate(-28.013 -118.781)"/>
                <path id="Path_271" d="M59.238 148.667a23.558 23.558 0 0 0 3.91 5.472c1.672 1.575 3.79 2.421 5.709 3.629 4.938 3.11 6.038 9.319 2.1 13.741-.238.266.808.145.995-.064a8.982 8.982 0 0 0 .6-11.768c-1.629-2.035-4.037-2.946-6.194-4.281-2.752-1.7-4.434-4.277-6.035-7.023-.166-.286-1.2.115-1.094.293z" class="cls-2" transform="translate(-31.517 -104.075)"/>
                <path id="Path_272" d="M77.818 157.251a8.727 8.727 0 0 1 2.487 10.631c-.141.3.931.19 1.09-.147a8.983 8.983 0 0 0-2.56-10.9c-.288-.227-1.294.2-1.018.418z" class="cls-2" transform="translate(-35.567 -105.931)"/>
                <path id="Path_273" d="M63.145 164.367c4.622 4.185 7.353 10.74 3.486 16.392-.3.435.806.369 1.025.049 3.955-5.781 1.268-12.567-3.5-16.883-.3-.275-1.334.15-1.011.442z" class="cls-2" transform="translate(-32.358 -109.474)"/>
                <path id="Path_274" d="M65.966 92.077a12.213 12.213 0 0 0 8.713 12.977c.263.082.976-.025.989-.388l.029-.814c.009-.255-1.08-.087-1.093.293l-.029.814.988-.387a11.957 11.957 0 0 1-8.51-12.658c.031-.371-1.061-.152-1.086.163z" class="cls-2" transform="translate(-32.978 -91.72)"/>
                <path id="Path_275" d="M72.936 95.758a10.483 10.483 0 0 0 5.545 8.019c.351.186 1.344-.31.861-.566a10.062 10.062 0 0 1-5.312-7.745c-.051-.413-1.15-.16-1.093.292z" class="cls-2" transform="translate(-34.511 -92.493)"/>
            </g>
        </g>
    </g>
</svg>
