<svg xmlns="http://www.w3.org/2000/svg" id="Group_11332" width="92.308" height="28.504" viewBox="0 0 92.308 28.504">
    <defs>
        <clipPath id="clip-path">
            <circle id="Ellipse_42" cx="13.361" cy="13.361" r="13.361" fill="#fff"/>
        </clipPath>
        <style>
            .cls-3{fill:none}
        </style>
    </defs>
    <g id="Group_11317">
        <g id="Group_11186">
            <path id="Subtraction_3" d="M14.252 28.5a14.358 14.358 0 0 1-2.872-.29 14.174 14.174 0 0 1-5.1-2.145A14.294 14.294 0 0 1 1.12 19.8a14.181 14.181 0 0 1-.83-2.675 14.391 14.391 0 0 1 0-5.745 14.174 14.174 0 0 1 2.145-5.1A14.294 14.294 0 0 1 8.7 1.12a14.181 14.181 0 0 1 2.68-.83 14.391 14.391 0 0 1 5.745 0 14.174 14.174 0 0 1 5.1 2.145A14.294 14.294 0 0 1 27.384 8.7a14.18 14.18 0 0 1 .83 2.675 14.391 14.391 0 0 1 0 5.745 14.174 14.174 0 0 1-2.145 5.1 14.294 14.294 0 0 1-6.269 5.164 14.181 14.181 0 0 1-2.675.83 14.358 14.358 0 0 1-2.873.286zm0-27.614a13.46 13.46 0 0 0-2.693.271 13.288 13.288 0 0 0-4.778 2.01 13.4 13.4 0 0 0-4.84 5.884 13.294 13.294 0 0 0-.779 2.508 13.492 13.492 0 0 0 0 5.386 13.288 13.288 0 0 0 2.01 4.778 13.4 13.4 0 0 0 5.879 4.841 13.294 13.294 0 0 0 2.508.779 13.492 13.492 0 0 0 5.386 0 13.288 13.288 0 0 0 4.778-2.01 13.4 13.4 0 0 0 4.841-5.879 13.294 13.294 0 0 0 .779-2.508 13.492 13.492 0 0 0 0-5.386 13.288 13.288 0 0 0-2.01-4.778 13.4 13.4 0 0 0-5.879-4.841 13.294 13.294 0 0 0-2.508-.779 13.46 13.46 0 0 0-2.694-.271z"/>
            <g id="Mask_Group_6" clip-path="url(#clip-path)" transform="translate(.796 .986)">
                <g id="Group_11172" transform="translate(-1.487 3.336)">
                    <path id="Path_285" d="M32.034 19.372a2.951 2.951 0 0 0-2.438.609c-1.026.93-1.09 1.539-1.09 1.539a3.674 3.674 0 0 0-1.572.9A9.754 9.754 0 0 0 26 24.151a5.09 5.09 0 0 0-1.022 2.249 5.445 5.445 0 0 0 .385 3.271s-.738.706 0 3.111a13.511 13.511 0 0 0 3.56 5.933c1.379 1.155 3.4 2.694 5.067 2.983a12.12 12.12 0 0 0 3.077.129 8.4 8.4 0 0 1-2.917-1.38 13.413 13.413 0 0 0-2.886-2.117 2.469 2.469 0 0 1-1.6-1.507c-.289-.834.128-2.245-.16-2.822a4.334 4.334 0 0 0-.481-.8s.449-.385.128-1.379-.673-1.058-.673-1.058a2.427 2.427 0 0 0 .93-1.026 1.517 1.517 0 0 0-.032-1.219c-.128-.257-.77-.545-.93-1.026s-.072-1.2.557-1.064c0 0 .405.968 1.848.551s1.058-1.155 1.058-1.155a1.289 1.289 0 0 1 1.4.013c.78.468.364.468.364.468s-1.219.962-.706 1.668.717.63.717.63-.461-1.239.405-1.592a2.259 2.259 0 0 1 1.332-.222s-.466.542.015.959a1.034 1.034 0 0 0 1.52.055c.437-.472.4-.344.4-.344a1.809 1.809 0 0 0-.032.706c.064.353-.289.577.385 1.283a.854.854 0 0 0 .353 1.283.984.984 0 0 0 1.507-.385c.289-.385.994.1 1.058.545a5.513 5.513 0 0 1 .065.678.8.8 0 0 0 .7-.711 2.511 2.511 0 0 0 .8.93c.417.192 1.423-.181 1.423-.181s-.011.919.5 1.144a5.072 5.072 0 0 0 1.071.315 2.225 2.225 0 0 0 1.495-.668 2.236 2.236 0 0 0 1.6.866 1.875 1.875 0 0 0 1.283-.321s-.994-.385-.93-1.251-.064-1.443-.674-1.572a1.677 1.677 0 0 0 1.283-.609c.513-.641-.321-1.988-.321-1.988s.128 1.347-1.475.962a2.365 2.365 0 0 0-.93-1.155 2.879 2.879 0 0 0-1.571-.385 1.355 1.355 0 0 0-.674-.994 4.011 4.011 0 0 0-1.764-.032 2.708 2.708 0 0 0-1.828-.032 4.988 4.988 0 0 0 .706-2.245 2.1 2.1 0 0 0-2.149-1.988 3.142 3.142 0 0 0-1.379-2.021 2.45 2.45 0 0 0-2.117-.128 1.308 1.308 0 0 0-1.155-.8 7.678 7.678 0 0 0-2.552.666z" class="cls-3" transform="translate(-24.906 -18.645)"/>
                    <g id="Group_11169" transform="translate(.167 .124)">
                        <path id="Path_38" d="M79.881 28.723c-.508-.5-1.59.022-2.061.372a2.217 2.217 0 0 0-1.067 1.871c.019.282.337.464.436.124.386-1.314 1.692-1.6 2.681-2.322.013-.009.024-.032.011-.045z" class="cls-3" transform="translate(-72.972 -27.859)"/>
                        <path id="Path_39" d="M47.385 60.543c-.092-.025-.173-.117-.276-.145a1 1 0 0 0-.534.024 1.756 1.756 0 0 0-.8.467 1.739 1.739 0 0 0-.5 1.878.2.2 0 0 0 .257.138c.274-.13.27-.4.375-.657a2.336 2.336 0 0 1 .354-.611c.13-.159.281-.315.426-.462a3.2 3.2 0 0 1 .7-.621c.007-.003.004-.01-.002-.011z" class="cls-3" transform="translate(-43.741 -57.35)"/>
                        <path id="Path_40" d="M124.456 19.844a2.6 2.6 0 0 0-2.888.9c-.01.011.015.014.021.012.522-.2 3.473-.838 3.083.418-.051.164.02.645.285.447.65-.485.09-1.521-.501-1.777z" class="cls-3" transform="translate(-114.46 -19.684)"/>
                        <path id="Path_41" d="M173.546 27.463v.005c.1.154.356.147.527.187a7.14 7.14 0 0 1 .9.239c.438.166 1.675.962.963 1.524-.3.237.116.937.466.765 1.588-.777-1.426-4.414-2.856-2.72z" class="cls-3" transform="translate(-162.579 -26.474)"/>
                        <path id="Path_42" d="M224.566 65.432a1.474 1.474 0 0 0-1.5-.975c-.015 0-.055.018-.045.042a1.619 1.619 0 0 0 .491.591 2.473 2.473 0 0 1 .355.335 1.693 1.693 0 0 1 .094 1.277 5.362 5.362 0 0 0-.157 1.492c.018.252.3 0 .3-.147a5.5 5.5 0 0 1 .394-1.638 1.233 1.233 0 0 0 .068-.977z" class="cls-3" transform="translate(-208.38 -61.117)"/>
                        <path id="Path_43" d="M89.633 74.567a1.455 1.455 0 0 0-2.47.3c-.055.1.1.077.144.037a1.454 1.454 0 0 1 2.085.215c.294.324.408-.346.241-.552z" class="cls-3" transform="translate(-82.602 -69.973)"/>
                        <path id="Path_44" d="M136.313 72.065a2.5 2.5 0 0 0-1.861-.734 3.207 3.207 0 0 0-2.117 1.072c-.059.05.023.079.067.061a6.389 6.389 0 0 1 1.517-.3c.112-.015.224-.027.336-.035a.493.493 0 0 0 .347.215c.281-.014.41-.042.6.181.111.129.191.273.316.392a.818.818 0 0 0 .546.277c.648-.011.536-.787.249-1.129z" class="cls-3" transform="translate(-124.411 -67.496)"/>
                        <path id="Path_45" d="M179.885 111.518a.675.675 0 0 0-.492-.343c-.152-.008-.348.069-.365.24-.021.215.418.361.533.511a.321.321 0 0 1-.031.45.468.468 0 0 0-.029.484c.054.105.213.233.313.093a1.3 1.3 0 0 0 .071-1.435z" class="cls-3" transform="translate(-167.655 -104.381)"/>
                        <path id="Path_46" d="M223 108.258c-.253-.11-.592-.045-.866-.145a1.958 1.958 0 0 1-.849-.593c-.493-.6-.345-1.376-.782-1.979-.023-.031-.116.006-.1.045.226.484.06.979.145 1.486a2.088 2.088 0 0 0 .359.842 2.566 2.566 0 0 0 .884.784c.028.015.056.029.085.042a.581.581 0 0 0 .108.392.789.789 0 0 0 1.157.1.659.659 0 0 0-.141-.974z" class="cls-3" transform="translate(-205.962 -99.155)"/>
                        <path id="Path_48" d="M91.789 58.869a.323.323 0 0 0-.3.1.719.719 0 0 0-.213.481c-.008.068.016.156.1.163s.152-.083.189-.148c.069-.121.1-.25.162-.375a.682.682 0 0 0 .082-.2.032.032 0 0 0-.02-.021z" class="cls-3" transform="translate(-86.422 -55.95)"/>
                        <path id="Path_49" d="M55.4 61.947a1.567 1.567 0 0 0-.758.92c-.032.1-.04.455.163.388a3.645 3.645 0 0 0 .933-.689c.123-.093.264-.157.392-.243.039-.026.279-.148.284-.223.03-.462-.782-.272-1.014-.153z" class="cls-3" transform="translate(-52.491 -58.678)"/>
                        <path id="Path_50" d="M131.021 42.519a.989.989 0 0 1-.058-.1 1.055 1.055 0 0 0-.078-.078.506.506 0 0 0-.214-.122.724.724 0 0 0-.218-.037.277.277 0 0 0-.2.114c-.079.08-.154.337-.006.393.27.1.5-.175.763-.156.006-.002.018-.008.011-.014z" class="cls-3" transform="translate(-122.419 -40.509)"/>
                        <path id="Path_51" d="M74.248 86.766a1.441 1.441 0 0 1-.439-.919c-.026-.107-.2.008-.2.076-.06.519-.028 1.208.514 1.471.277.138.285-.502.125-.628z" class="cls-3" transform="translate(-70.042 -80.893)"/>
                        <path id="Path_52" d="M98.023 102.072a.035.035 0 0 0-.027.023.585.585 0 0 0 0 .291.687.687 0 0 1-.078.416c-.148.291-.425.338-.678.494-.232.143 0 .734.25.729a1.066 1.066 0 0 0 .992-.86c.067-.323.029-1.189-.459-1.093z" class="cls-3" transform="translate(-91.848 -95.947)"/>
                        <path id="Path_53" d="M135.851 121.142a2.76 2.76 0 0 0-1.383.8c-.228.265-.5.757-.265 1.1.089.129.282-.072.263-.182a.8.8 0 0 1 .25-.872 2.131 2.131 0 0 1 .358-.242 4.29 4.29 0 0 0 .8-.589c.008-.014-.015-.018-.023-.015z" class="cls-3" transform="translate(-126.076 -113.607)"/>
                        <path id="Path_54" d="M26.665 104.762a5.25 5.25 0 0 1-.172-1.49 5.983 5.983 0 0 1 .165-1.267 2.7 2.7 0 0 0 .136-.677c0-.008-.016-.005-.019 0a3.248 3.248 0 0 0-.891 2.529 5.017 5.017 0 0 0 .209 1.257c.274.908.824 1.672 1.021 2.622.05.238.353.327.409.041.202-1.034-.588-2.056-.858-3.015z" class="cls-3" transform="translate(-25.881 -95.261)"/>
                        <path id="Path_55" d="M38.248 184.855c-.489-.893-1.046-1.746-1.488-2.664a21.246 21.246 0 0 1-.956-2.544h-.011c-.175 2 1.085 4.072 2.155 5.665.221.329.413-.251.3-.457z" class="cls-3" transform="translate(-35.042 -167.765)"/>
                        <path id="Path_56" d="M61.771 138.969c-.287-.287-.406.278-.29.474a1.879 1.879 0 0 1 .338 1.158c-.036.431-.232.818-.3 1.242-.014.089.117.036.143 0 .165-.251.459-.375.608-.649a1.652 1.652 0 0 0 .169-.653 1.983 1.983 0 0 0-.668-1.572z" class="cls-3" transform="translate(-58.797 -130.038)"/>
                        <path id="Path_57" d="M61.217 121.148a2.544 2.544 0 0 1-.223-2.14c.023-.066-.093-.039-.114-.006a2.259 2.259 0 0 0 .04 2.543c.166.235.38-.237.297-.397z" class="cls-3" transform="translate(-57.937 -111.595)"/>
                        <path id="Path_58" d="M72.041 186.375c-.04-.044-.143.021-.141.072.008.208.028.412.042.619a5.341 5.341 0 0 1-.05.819c-.02.228.258.49.365.176a1.8 1.8 0 0 0-.216-1.686z" class="cls-3" transform="translate(-68.475 -173.983)"/>
                        <path id="Path_59" d="M77.172 222.913a5.958 5.958 0 0 1-.74-.866 2.882 2.882 0 0 1-.294-1.3 5.837 5.837 0 0 0-.345-1.968c-.019-.049-.127-.007-.123.04.145 1.638-.229 3.489 1.284 4.608.22.162.336-.379.218-.514z" class="cls-3" transform="translate(-71.973 -203.974)"/>
                        <path id="Path_60" d="M85.085 278.556a7.675 7.675 0 0 1-2.985-1.616c-.68-.609-1.308-1.269-1.993-1.873-.032-.028-.142.013-.114.06A10.142 10.142 0 0 0 82.3 277.9a5.129 5.129 0 0 0 2.746 1.312c.273.014.26-.586.039-.656z" class="cls-3" transform="translate(-75.967 -256.094)"/>
                        <path id="Path_61" d="M239.319 114.688a.569.569 0 0 0-.558.493 1.445 1.445 0 0 0 .283 1.181.1.1 0 0 0 .075.03l.115-.023c.047-.009.1-.046.1-.1 0-.137.037-.122-.018-.276a.54.54 0 0 1-.07-.353c.047-.167.227-.211.3-.367s-.002-.573-.227-.585z" class="cls-3" transform="translate(-222.921 -107.633)"/>
                        <path id="Path_62" d="M268.523 113.367a1.693 1.693 0 0 0-.488-.177c-.413-.067-.567.292-.678.627-.013.039-.023.122.037.134.511.1.937-.067 1.309.367.1.122.289.268.435.116.422-.434-.326-.918-.615-1.067z" class="cls-3" transform="translate(-249.416 -106.239)"/>
                        <path id="Path_63" d="M302.8 133.8c-.792-.606-.995-2.176-2.249-1.528-.03.015-.082.088-.014.09.542.021 1.008.606 1.23 1.044a2.463 2.463 0 0 0 .936 1.09c.451.268.343-.511.097-.696z" class="cls-3" transform="translate(-280.111 -123.766)"/>
                        <path id="Path_64" d="M335.737 146.5c-.02-.041-.154-.051-.146-.015a7.314 7.314 0 0 1-.762.082c-.216.014-.175.339-.114.466a.545.545 0 0 0 .485.353.283.283 0 0 0 .249-.132 2.482 2.482 0 0 0 .226-.488c.025-.066.096-.201.062-.266z" class="cls-3" transform="translate(-311.737 -137.045)"/>
                        <path id="Path_65" d="M323 177.8a1.5 1.5 0 0 1-.151-.573 1.887 1.887 0 0 0-.275-.785 1.366 1.366 0 0 0-1.183-.746c-.164-.005-.321.336-.155.425.2.106.641.276.762.468.064.1.021.329.028.453a1.876 1.876 0 0 0 .134.69c.1.217.891 1.084.949.422a.671.671 0 0 0-.109-.354z" class="cls-3" transform="translate(-299.238 -164.115)"/>
                        <path id="Path_66" d="M259.6 174.381c-.026-.135-.221.048-.232.114 0 .028-.01.056-.014.084a1.068 1.068 0 0 1-.272.2 1.268 1.268 0 0 1-.194.088c-.073.015-.091.028-.054.038-.208-.03-.516.035-.508.29.009.284.359.451.589.506a1.22 1.22 0 0 0 .378.024.359.359 0 0 0 .355-.346 3.025 3.025 0 0 0-.048-.998z" class="cls-3" transform="translate(-241.067 -162.848)"/>
                        <path id="Path_68" d="M269.286 142.364a2.236 2.236 0 0 0-.724-1.144 1.592 1.592 0 0 0-.939-.31c-.317-.567-1.309-1.1-1.7-.577-.107.142-.132.67.16.63a1.678 1.678 0 0 1 .658-.023.908.908 0 0 1 .234.1c-.1.123-.013.345.085.457a.771.771 0 0 0 .756.239c.378-.117 1.1.4 1.391.655.02.023.093.009.079-.027z" class="cls-3" transform="translate(-248.029 -131.176)"/>
                        <path id="Path_84" d="M200.179 75.32c-.237-.054-.34.487-.107.558.34.1.3.592.452.849.038.065.177-.012.166-.077-.073-.433.083-1.195-.511-1.33z" class="cls-3" transform="translate(-187.015 -71.185)"/>
                        <path id="Path_85" d="M42.738 116.8c-.012-.3-.064-.605-.071-.911 0-.151.031-.325-.074-.445-.019-.022-.068-.008-.082.013a2.043 2.043 0 0 0-.131 1.579c.028.113.108.209.229.143s.134-.251.129-.379z" class="cls-3" transform="translate(-41.066 -108.327)"/>
                        <path id="Path_86" d="M47.71 156.591a1.747 1.747 0 0 0-.293-.587c-.031-.044-.136-.009-.132.047a2.422 2.422 0 0 0 .152.761c.063.153.302-.112.273-.221z" class="cls-3" transform="translate(-45.695 -145.863)"/>
                        <path id="Path_87" d="M53.319 200.584a4.211 4.211 0 0 1-.549-1.74c-.008-.075-.142-.019-.151.033a3.162 3.162 0 0 0 .4 2.143c.181.326.432-.214.3-.436z" class="cls-3" transform="translate(-50.591 -185.506)"/>
                        <path id="Path_88" d="M37.283 210.023a10.973 10.973 0 0 1-3.466-3.048 9.15 9.15 0 0 1-1.9-3.415c-.018-.063-.155.005-.15.061a7.475 7.475 0 0 0 2.044 4.184c.509.586 1.064 1.13 1.628 1.663a4.526 4.526 0 0 0 1.751 1.2c.31.089.33-.537.093-.645z" class="cls-3" transform="translate(-31.331 -189.883)"/>
                        <path id="Path_89" d="M50.8 103.16c-.365-.014-.487.361-.57.667a2.3 2.3 0 0 0-.038 1.094c.016.075.148 0 .15-.052a1.786 1.786 0 0 1 .1-.758.945.945 0 0 1 .293-.289.4.4 0 0 0 .22-.343c.019-.105-.01-.313-.155-.319z" class="cls-3" transform="translate(-48.343 -96.961)"/>
                        <path id="Path_91" d="M57.3 109.841a1.288 1.288 0 0 0-.9 1.072 1.362 1.362 0 0 0 .319 1.3c.013.015.065 0 .054-.02a1.653 1.653 0 0 1-.159-.947c.087-.454.523-.633.82-.916.113-.101.074-.53-.134-.489z" class="cls-3" transform="translate(-54.097 -103.144)"/>
                        <path id="Path_92" d="M66.344 112.257c-.5.1-.629.544-.631 1.028a1.935 1.935 0 0 0 .387 1.355c.025.022.09 0 .09-.038-.006-.31-.136-.608-.133-.918a.806.806 0 0 1 .278-.628c.112-.1.248-.129.3-.28s-.064-.564-.291-.519z" class="cls-3" transform="translate(-62.755 -105.38)"/>
                        <path id="Path_95" d="M66.862 168.21c-.144.092-.134.268-.172.418-.067.264-.2.5-.272.762-.013.049.061.03.08.013a1.586 1.586 0 0 0 .512-1.088c-.002-.089-.054-.165-.148-.105z" class="cls-3" transform="translate(-63.407 -157.161)"/>
                        <path id="Path_98" d="M77.552 151.638c-.011-.037-.074 0-.08.022a4.072 4.072 0 0 1-.147.591c-.093.242-.265.437-.343.684-.043.135.085.532.269.342a1.537 1.537 0 0 0 .3-.772 1.722 1.722 0 0 0 .001-.867z" class="cls-3" transform="translate(-73.179 -141.824)"/>
                        <path id="Path_99" d="M133.681 121.876c-.267-.12-.576.218-.736.409a1.619 1.619 0 0 0-.373 1.23c.027.273.28.036.27-.142a1.475 1.475 0 0 1 .36-.865c.055-.082.109-.163.168-.243.083-.112.176-.32.311-.38v-.009z" class="cls-3" transform="translate(-124.641 -114.264)"/>
                        <path id="Path_100" d="M193.621 151.859a6.238 6.238 0 0 0-.544-.66c-.049-.058-.17.032-.154.1a1.8 1.8 0 0 0 .2.507.936.936 0 0 0 .314.365c.133.067.238-.226.184-.312z" class="cls-3" transform="translate(-180.517 -141.415)"/>
                        <path id="Path_101" d="M200.832 158.689a.921.921 0 0 1-.477-.376 1.012 1.012 0 0 1-.2-.328c-.039-.136.022-.218.055-.343.015-.056.036-.248-.084-.227-.353.063-.313.619-.2.865a.784.784 0 0 0 .883.483c.032-.006.079-.063.023-.074z" class="cls-3" transform="translate(-186.926 -147.186)"/>
                        <path id="Path_102" d="M211.078 159.365a.854.854 0 0 1-.349-.217.516.516 0 0 1-.174-.536c.013-.079 0-.207-.091-.238-.066-.023-.21.121-.178.139-.063-.036-.071.349-.065.4a.833.833 0 0 0 .156.424.567.567 0 0 0 .665.118c.024-.013.092-.075.036-.09z" class="cls-3" transform="translate(-196.531 -148.073)"/>
                        <path id="Path_103" d="M222.462 158.809a.681.681 0 0 1-.339-.269c-.1-.133-.057-.221-.045-.376.005-.064-.019-.165-.094-.181-.055-.012-.18.116-.161.126-.066-.034-.07.371-.062.418a.658.658 0 0 0 .121.3.469.469 0 0 0 .525.1c.032-.018.132-.096.055-.118z" class="cls-3" transform="translate(-207.213 -147.713)"/>
                        <path id="Path_104" d="M202.547 152.722a.936.936 0 0 0-.384-.193c.013 0 .025-.007.038-.009s.024-.012.016-.021a.645.645 0 0 0-1.037.067.353.353 0 0 0-.031.127c-.691.227-1.365.41-1.949-.191-.017-.018-.069 0-.069.023a.949.949 0 0 0 1.009.9 2.027 2.027 0 0 0 .911-.227c.387-.19.985-.743 1.386-.377.043.04.163-.054.11-.099z" class="cls-3" transform="translate(-186.265 -142.425)"/>
                        <path id="Path_119" d="M192.021 105.94a1.286 1.286 0 0 0-.906-1.138c-.007 0-.029 0-.018.013a1.666 1.666 0 0 1 .706 1.232c.014.528-.373.777-.48 1.248-.054.238.193.316.244.072.109-.52.505-.843.454-1.427z" class="cls-3" transform="translate(-178.826 -98.481)"/>
                        <path id="Path_120" d="M219.335 78.811c-.015 0-.052.022-.023.032a1.744 1.744 0 0 1 1.009 1.2 3.185 3.185 0 0 1-.1 1.491c-.044.232.186.333.277.094.411-1.086.234-2.703-1.163-2.817z" class="cls-3" transform="translate(-204.938 -74.421)"/>
                        <path id="Path_122" d="M63.611 87.945a5.04 5.04 0 0 1-.562-.788c-.063-.127-.153-.025-.2.09a.6.6 0 0 0-.144-.177.136.136 0 0 0-.076-.035 1.784 1.784 0 0 0-.088-.273c-.007-.015-.032-.009-.04 0a1.086 1.086 0 0 0-.086.758.715.715 0 0 0 .229.692 2.485 2.485 0 0 0 .245.212 1.022 1.022 0 0 0 .236.14.108.108 0 0 0 .105 0 .573.573 0 0 0 .285-.061.367.367 0 0 0 .096-.558z" class="cls-3" transform="translate(-59.674 -81.772)"/>
                        <path id="Path_123" d="M166.2 126.386a1.176 1.176 0 0 1-1.159.521c-.5-.026-.924-.19-.448-.816.054-.072.01-.148-.077-.115a.719.719 0 0 0 .082 1.357 1.535 1.535 0 0 0 1.694-.952c.021-.053-.073-.027-.092.005z" class="cls-3" transform="translate(-153.812 -118.076)"/>
                        <path id="Path_124" d="M257.144 142.179c.008-.088-.147-.03-.15.037a2.46 2.46 0 0 1-.01.389.729.729 0 0 1-.216.418 1.147 1.147 0 0 0 .376-.844z" class="cls-3" transform="translate(-239.623 -133.041)"/>
                        <path id="Path_128" d="M200.068 145.39a1.542 1.542 0 0 0-.94-.057 3.5 3.5 0 0 1-1.456.331 1.437 1.437 0 0 1-1.213-.908h-.008c.006 1.06 1.012 1.373 1.908 1.067a2.689 2.689 0 0 1 1.6-.284 1.547 1.547 0 0 0 .693.038.778.778 0 0 0 .2-.08c-.238.119-.552-.034-.784-.107z" class="cls-3" transform="translate(-183.785 -135.467)"/>
                        <path id="Path_138" d="M302.477 176.265a5.811 5.811 0 0 0-.256-1.183 1.089 1.089 0 0 0-.266-.463c-.158-.144-.385-.179-.538-.327-.005-.005-.024 0-.022.008a.858.858 0 0 0 .216.393 1.938 1.938 0 0 1 .36.64 4.948 4.948 0 0 1 .206 1.049c.032.318.333.138.3-.117z" class="cls-3" transform="translate(-280.935 -162.808)"/>
                        <path id="Path_139" d="M282.165 184.452a2.8 2.8 0 0 1-1.374.378c-.854-.061-1.14-.677-1.118-1.528 0-.1-.139-.02-.159.031a1.541 1.541 0 0 0 .562 1.847 1.826 1.826 0 0 0 2.1-.413c.075-.058.172-.393-.011-.315z" class="cls-3" transform="translate(-260.582 -171.108)"/>
                        <path id="Path_140" d="M295.687 182.413a3.86 3.86 0 0 0-.387-1.279c-.051-.084-.206.041-.195.115a2.7 2.7 0 0 1 .129.651.654.654 0 0 1-.561.52c-.219-.012-.24.244-.187.391a.7.7 0 0 0 .5.439c.57.041.793-.284.701-.837z" class="cls-3" transform="translate(-274.519 -169.12)"/>
                    </g>
                    <g id="Group_11170" transform="translate(1.643)">
                        <path id="Path_34" d="M71.223 113.106a.628.628 0 0 0-.554.856c.252.755 1.159 1.058 1.209 1.662a1.68 1.68 0 0 1-.949 1.736s-.089.076.089.266a1.684 1.684 0 0 1 .6 1.268 2.128 2.128 0 0 1-.178.888 2.366 2.366 0 0 1 .495 1.484 11.387 11.387 0 0 0 .178 2.5c.19.583.495.85 1.319 1.255a9.336 9.336 0 0 1 2.08 1.471 8.625 8.625 0 0 0 3.88 2.08c1.129.165 14.723.089 14.723.089a5.482 5.482 0 0 1-2.5-1.053c-1.141-.9-1-1.027-1-1.027s-2.752.33-4.388-1.293a3.237 3.237 0 0 1-.342-4.476 4.314 4.314 0 0 1 1.636-1 1.15 1.15 0 0 1-1.281-.495c-.419-.736-.292-.964-.292-.964a2.281 2.281 0 0 1-1.37.152 1.368 1.368 0 0 1-.723-.862s-.317.672-.837.672c0 0-.051-1.217-.71-1.217a.836.836 0 0 0-.609.2 1.193 1.193 0 0 1-1.217.2 1 1 0 0 1-.507-1.268 1.4 1.4 0 0 1-.368-1.268l.038-.621-.368.2s-1 .38-1.332.089-.7-.8-.2-1.1c0 0-1.2-.14-1.687.609a.96.96 0 0 0-.051 1.2 1.04 1.04 0 0 1-.659-.824 1.164 1.164 0 0 1 .583-1.37.405.405 0 0 0-.2-.507c-.33-.152-.888-.419-1.319-.076a3.82 3.82 0 0 1-.368.7c-.165.2-.609.748-2.016.545-.909-.085-.805-.701-.805-.701z" class="cls-3" transform="translate(-68.869 -105.392)"/>
                        <path id="Path_105" d="M86.488 117.04c.085-.192-.168-.417-.319-.477a1.617 1.617 0 0 1-.833-.725.55.55 0 0 0-.532-.237 1.209 1.209 0 0 1-1.385-.361c-.072-.086-.23-.216-.357-.167-.148.057-.337.367-.531.439 0-.017-.057-.3-.056-.309.038-.387-.353-.646-.592-.9-.045-.049-.165-.118-.232-.068-.642.48-1.948.89-2-.282a1.173 1.173 0 0 0-.166-.695 1.553 1.553 0 0 1-.305-1.08c.026-.31-.582-.459-.79-.329-.021.013-.357.183-.337.236-.1-.252-.483-.49-.739-.312q-.381-.037-.24-.24a.3.3 0 0 1 .166-.191c.323-.208-.163-.633-.408-.625-.643.023-1.506.293-1.3 1.12.051.2.182.725-.178.719-.2 0-.546-.464-.582-.654a1.177 1.177 0 0 1 0-.331 1.111 1.111 0 0 1 .794-1.03c.142-.039.092-.248.047-.333-.312-.6-1.279-1.23-1.794-.471-.279.411-.408.8-.86 1.078a1.856 1.856 0 0 1-2.1-.116.442.442 0 0 0-.092-.054c-.011-.051-.022-.1-.03-.154-.019-.12-.243-.442-.385-.264a1.326 1.326 0 0 0 .16 1.71c.285.327.9.534.938 1.016.04.563-.5 1.019-.872 1.354-.143.128-.064.383.05.5a1.991 1.991 0 0 1 .161.187 10.232 10.232 0 0 0 .3 1.347 4.578 4.578 0 0 0-.08.535.589.589 0 0 0 .084.381 2.049 2.049 0 0 1 .423.9c.014.128.2 0 .2-.092a1.731 1.731 0 0 0-.143-.74 1.3 1.3 0 0 0-.1-.169c.157.109.348.125.292-.156a6.612 6.612 0 0 1-.117-.843 5.981 5.981 0 0 0 .909 1.894c.161.217.444.155.357-.148a4.506 4.506 0 0 1 .027-2.594 9.187 9.187 0 0 0 .7 1.926 12.77 12.77 0 0 0 .858 1.4 4.757 4.757 0 0 0 3.084 3.341c.019.005.074-.024.043-.04a5.6 5.6 0 0 1-2.16-2.1l-.027-.048c.141.009.256-.135.165-.33a8.109 8.109 0 0 1-.774-3.435c.129.076.344.095.356-.1a2.269 2.269 0 0 1 .036-.281l.255.239c.087.082.387.29.467.067a5.114 5.114 0 0 1 .607-1.3c.02.212.016.446.042.612q.076.475.187.944a12.648 12.648 0 0 0 .484 1.574 3.053 3.053 0 0 0 .261.644c.185.336.661.324.469-.122q-.108-.251-.205-.507a5.026 5.026 0 0 1-.127-1.874 7.207 7.207 0 0 0 1.191 2.666c.123.172.4.205.37-.076q-.074-.775-.133-1.551c-.01-.129-.025-.264-.038-.4a5.3 5.3 0 0 0 .934 1.74c.12.149.333.1.317-.111a4.351 4.351 0 0 1 .02-.858 3.086 3.086 0 0 0 .3.863c.048.09.2.227.3.12.276-.3.55-.593.836-.878q.179-.178.362-.35l.178-.166a.914.914 0 0 0 .141.3c.159.207.333.145.534.179.107.256.18.463.565.406l.123-.071q.261-.136.327.1a2.853 2.853 0 0 1 .2.313 1.337 1.337 0 0 0 .555.408.235.235 0 0 0 .324-.1 1.927 1.927 0 0 1 1.312-1.058c.198-.059.185-.219.108-.355z" class="cls-3" transform="translate(-68.388 -102.604)"/>
                        <g id="Group_11165">
                            <path id="Path_141" d="M138.33 70.016a2.73 2.73 0 0 0-1.78.624c-.108.088-.007.191.1.1a3.1 3.1 0 0 1 1.68-.717c.008.003.01-.007 0-.007z" transform="translate(-129.86 -66.155)"/>
                            <path id="Path_143" d="M104.947 28.838a1.9 1.9 0 0 0-1.4 1.427c0 .019.034.013.04 0a2.326 2.326 0 0 1 1.329-1.158c.094-.034.184-.307.031-.269z" transform="translate(-99.353 -28.031)"/>
                            <path id="Path_144" d="M68.345 57.784a1.311 1.311 0 0 0-.194 1.227c.011.035.092.007.087-.026a1.7 1.7 0 0 1 .266-1.149c.096-.136-.084-.157-.159-.052z" transform="translate(-66.515 -54.768)"/>
                            <path id="Path_145" d="M47.312 101.253a.514.514 0 0 1-.124-.553c.011-.031-.043-.022-.054 0a.672.672 0 0 0 0 .708c.066.101.255-.08.178-.155z" transform="translate(-47.034 -94.542)"/>
                            <path id="Path_146" d="M116 44.706a1.24 1.24 0 0 0-.668.658c-.1.246-.168.544.066.724.015.011.058 0 .057-.023a.793.793 0 0 1 .209-.621c.125-.136.266-.256.393-.391.074-.075.151-.447-.057-.347z" transform="translate(-110.179 -42.708)"/>
                            <path id="Path_147" d="M153.345 53.973a1.2 1.2 0 0 0-.393-.02.581.581 0 0 0-.3.13c-.078.056-.1.226.038.165a2.185 2.185 0 0 1 .636-.236c.015-.003.051-.032.019-.039z" transform="translate(-144.753 -51.277)"/>
                            <path id="Path_148" d="M185.246 61.217a1.92 1.92 0 0 0-.75-.075c-.075.009-.187.179-.066.195a2.43 2.43 0 0 0 .8-.078c.024-.005.044-.034.016-.042z" transform="translate(-174.178 -57.93)"/>
                            <path id="Path_149" d="M215.72 75.95a1.871 1.871 0 0 0-.66-.715 1.32 1.32 0 0 0-.81-.179c-.162.016-.2.445-.025.447a1.908 1.908 0 0 1 1.457.464c.011.011.049 0 .038-.017z" transform="translate(-201.703 -70.528)"/>
                            <path id="Path_150" d="M85.248 66.972a1.46 1.46 0 0 0-1.061.953c-.083.2.142.173.21.026a2.3 2.3 0 0 1 .871-.926c.037-.025.022-.06-.02-.053z" transform="translate(-81.412 -63.336)"/>
                            <path id="Path_153" d="M71.887 182.36c.245-.222.169-.808.142-1.092a1.507 1.507 0 0 0-.719-1.312c-.089-.041-.352.094-.308.114a1.384 1.384 0 0 1 .682 1.133c.041.28.142.96-.1 1.176-.073.066.236.037.3-.02z" transform="translate(-69.218 -167.924)"/>
                            <path id="Path_154" d="M69.01 124.486c.221-.261.539-.421.744-.7a2.541 2.541 0 0 0 .327-1.039.7.7 0 0 0-.263-.777 3.641 3.641 0 0 1-.653-.525 1.348 1.348 0 0 1-.228-.4c-.031-.1-.176-1.144.322-.835.119.074.409-.09.254-.186a.589.589 0 0 0-.845.183 1.271 1.271 0 0 0 .249 1.442 4.527 4.527 0 0 0 .588.467c.387.315.254.595.159 1a1.3 1.3 0 0 1-.462.865 3.988 3.988 0 0 0-.464.415c-.133.157.179.2.273.092z" transform="translate(-66.934 -112.351)"/>
                            <path id="Path_156" d="M80.711 107.254c.121.707.038 1.259-.72 1.529-.646.23-1.645.256-1.852-.547-.021-.083-.35 0-.328.088.235.91 1.411.817 2.116.607a2.137 2.137 0 0 0 .84-.422 1.353 1.353 0 0 0 .271-1.344c-.013-.078-.344 0-.328.088z" transform="translate(-75.525 -100.516)"/>
                            <path id="Path_157" d="M70.789 28.582a2.994 2.994 0 0 1 3.432-2.454c.166.025.331-.213.111-.246a3.378 3.378 0 0 0-3.876 2.718c-.032.167.3.129.333-.023z" transform="translate(-68.715 -25.261)"/>
                            <path id="Path_158" d="M113.887 19.279a3.386 3.386 0 0 1 2.524-1.082c.777.043 1.517.557 1.176 1.421-.038.1.286.059.327-.045.383-.972-.521-1.511-1.373-1.551a3.954 3.954 0 0 0-2.915 1.212c-.131.132.189.117.26.045z" transform="translate(-108.653 -18.018)"/>
                            <path id="Path_159" d="M169.128 27.126a2.465 2.465 0 0 1 2.635.64 1.641 1.641 0 0 1 .407 1.97c-.018.027.27.019.323-.06.571-.847-.154-1.92-.877-2.394a2.817 2.817 0 0 0-2.6-.223c-.217.086-.011.115.111.067z" transform="translate(-159.871 -26.189)"/>
                            <path id="Path_160" d="M215.265 57.368a2.183 2.183 0 0 1 2.147 1.708c.227 1.05-.463 1.768-.758 2.7a1.359 1.359 0 0 0 2.074 1.605c.135-.078-.191-.039-.25 0a1.066 1.066 0 0 1-1.478-.522 1.571 1.571 0 0 1 0-1.227 9.567 9.567 0 0 0 .767-1.889 2.254 2.254 0 0 0-2.293-2.5c-.068 0-.37.127-.214.129z" transform="translate(-202.731 -54.326)"/>
                            <path id="Path_161" d="M239.135 139.359a.918.918 0 0 1-.139.964.753.753 0 0 1-1.123-.068c-.083-.089-.4.033-.3.132.79.852 2.362.031 1.894-1.116-.05-.122-.374-.025-.328.088z" transform="translate(-223.405 -130.215)"/>
                            <path id="Path_162" d="M193.839 135.151c-.812-.3-1.292.625-2.089.441a1.948 1.948 0 0 1-1.269-.844 1.158 1.158 0 0 1-.03-1c.065-.082-.247-.039-.3.023a1.052 1.052 0 0 0-.05.921 1.659 1.659 0 0 0 .978.9 2.185 2.185 0 0 0 1.171.17c.391-.063.968-.61 1.316-.482.074.027.367-.093.269-.128z" transform="translate(-179.406 -125.113)"/>
                            <path id="Path_163" d="M163.764 126.68a2.253 2.253 0 0 1-.5.48l-.772.162a1.022 1.022 0 0 1-.335-.164.854.854 0 0 1-.314-.436c-.022-.092-.009-.5.142-.544.188-.058.162-.176-.031-.116-.774.241-.408 1.161.209 1.373a1.825 1.825 0 0 0 1.9-.772c.073-.082-.242-.046-.3.017z" transform="translate(-153.016 -118.024)"/>
                            <path id="Path_164" d="M138.77 128.083a.991.991 0 0 1-.046-1.124 1.71 1.71 0 0 1 1.638-.663c.069 0 .371-.131.213-.132a2.936 2.936 0 0 0-1.823.454 1.122 1.122 0 0 0-.291 1.578c.049.06.358-.051.309-.111z" transform="translate(-131.473 -118.132)"/>
                            <path id="Path_165" d="M131.779 124.262a1.75 1.75 0 0 1-.746-.97 1.32 1.32 0 0 1 .655-1.2c.137-.084-.19-.051-.252-.012a1.529 1.529 0 0 0-.738 1.091c-.044.5.407.934.772 1.207.073.055.359-.075.309-.113z" transform="translate(-124.482 -114.311)"/>
                            <path id="Path_166" d="M119.854 112.1c.175-.482-.522-.691-.861-.779a1.039 1.039 0 0 0-1.108.3c-.085.109.241.081.3 0 .281-.361 1.53-.01 1.338.518-.036.1.289.06.327-.044z" transform="translate(-112.611 -104.35)"/>
                            <path id="Path_167" d="M260.478 113.416c.869-.245 2.086-.2 2.265.913.022.139.352.058.328-.088-.205-1.27-1.672-1.306-2.648-1.031-.2.056-.146.262.055.206z" transform="translate(-244.461 -106.013)"/>
                            <path id="Path_168" d="M295.568 128.593a1.9 1.9 0 0 1 2.045 1.132c.24.579.4 1.009 1.1 1 .1 0 .355-.154.137-.152-.749 0-.734-.651-1-1.136a1.974 1.974 0 0 0-.651-.688 2.158 2.158 0 0 0-1.575-.3c-.14.024-.284.183-.055.144z" transform="translate(-277.001 -120.215)"/>
                            <path id="Path_169" d="M274.749 138.324a1.369 1.369 0 0 0 1.182 2.06 3.263 3.263 0 0 0 2.053-.814l-.312.057c.676 1.277 2.023 1.149 3.163.611.022-.01.117-.069.041-.083a1.109 1.109 0 0 1-.847-.622 2.737 2.737 0 0 1-.061-1.14 1.356 1.356 0 0 0-.88-1.086l-.29.118a1.718 1.718 0 0 0 1.612-.505 1.822 1.822 0 0 0-.178-2.306c-.044-.06-.34.009-.328.088.088.591-.324 1.389-1.143 1.03-.087-.038-.341.1-.309.111a1.253 1.253 0 0 0 1.781-1.228l-.328.088a2.628 2.628 0 0 1 .511 1.157 1.182 1.182 0 0 1-1.346 1.441c-.056-.012-.343.09-.29.118.382.2.817.509.86.967.053.563-.169 1.073.27 1.538a1.859 1.859 0 0 0 .49.31c.1.056.359-.056-.055.091a3.293 3.293 0 0 1-.559.148 1.624 1.624 0 0 1-1.786-.933c-.042-.079-.267.021-.312.057a1.948 1.948 0 0 1-2.184.449 1.259 1.259 0 0 1-.432-1.781c.021-.033-.272-.022-.323.059z" transform="translate(-257.646 -125.936)"/>
                            <path id="Path_170" d="M239.539 113.7a2.167 2.167 0 0 0-1.08-1.175 2.3 2.3 0 0 0-1.549-.051c-.214.076-.022.216.136.159a1.812 1.812 0 0 1 2.165 1.155c.065.124.385.022.328-.088z" transform="translate(-222.723 -105.359)"/>
                            <path id="Path_171" d="M192.131 146.609a1.007 1.007 0 0 0-.95-1.317c-.436.006-.555.492-.989.574a.9.9 0 0 1-1-1.35.064.064 0 0 0-.025-.094.941.941 0 0 1-.346-1.284c.09-.135-.242-.118-.308-.018a1.1 1.1 0 0 0 .18 1.319c.1.148.09.033.113.178.015.094-.106.326-.107.438a.975.975 0 0 0 .234.641 1.293 1.293 0 0 0 1.3.355 3.6 3.6 0 0 0 .679-.368.217.217 0 0 1 .334-.084.433.433 0 0 1 .429.224.84.84 0 0 1 .117.82c-.04.129.292.086.329-.035z" transform="translate(-177.868 -133.757)"/>
                            <path id="Path_172" d="M236 171.548c-.054-.074-.37.032-.307.119.385.53-.076 1.1-.569 1.324-.21.095-.014.164.121.1.578-.257 1.234-.883.755-1.543z" transform="translate(-221.072 -160.125)"/>
                            <path id="Path_173" d="M245.459 181.029c.318.378.489.833 1.01.981a1.877 1.877 0 0 0 1.313-.267c.2-.1-.1-.134-.2-.085a1.081 1.081 0 0 1-1.38-.137c-.172-.186-.274-.423-.437-.617-.067-.08-.381.034-.306.124z" transform="translate(-230.714 -168.784)"/>
                            <path id="Path_245" d="M220.827 81.6c1.022.194.71 1.471.615 2.176a1.852 1.852 0 0 0 .3 1.473c.1.12.406-.012.3-.146-.8-1.009.715-3.4-1.1-3.748-.166-.031-.33.2-.112.245z" transform="translate(-207.824 -76.652)"/>
                            <path id="Path_246" d="M303.879 173.293c.473.215.457.74.546 1.178a2.1 2.1 0 0 0 .453.927c.078.095.393-.024.3-.133a2.618 2.618 0 0 1-.5-1.326 1 1 0 0 0-.545-.812c-.105-.048-.4.1-.259.167z" transform="translate(-284.771 -161.6)"/>
                            <path id="Path_248" d="M57.679 91.011a1.242 1.242 0 0 0 1.4 1.521c.154-.014.278-.187.049-.166a1.1 1.1 0 0 1-1.118-1.4c.026-.109-.3-.059-.327.045z" transform="translate(-56.853 -85.492)"/>
                            <path id="Path_249" d="M76.44 102.918c-.638.47-.432 1.253-.072 1.83.078.124.391 0 .3-.144-.283-.452-.54-1.15-.012-1.538.179-.132-.087-.243-.217-.148z" transform="translate(-73.875 -96.58)"/>
                            <path id="Path_250" d="M66.161 180.9c-.089-.421-.362-1.8.209-2 .216-.077.018-.173-.126-.121-.78.279-.539 1.609-.411 2.214.022.1.351.022.328-.088z" transform="translate(-64.31 -166.826)"/>
                            <path id="Path_251" d="M178.985 107.533a1 1 0 0 1 1.06 1.385 1.789 1.789 0 0 0-.229 1.187c.027.094.355 0 .328-.088-.219-.746.614-1.348.192-2.089a1.253 1.253 0 0 0-1.3-.545c-.147.014-.283.172-.053.15z" transform="translate(-169.073 -100.738)"/>
                        </g>
                    </g>
                    <g id="Group_11171" transform="translate(.201 5.473)">
                        <path id="Path_125" d="M256.05 154.135a.4.4 0 0 0 .053-.037c-.017.013-.034.026-.053.037z" transform="translate(-238.802 -149.466)"/>
                        <path id="Path_127" d="M255.729 154.621l.023-.012z" transform="translate(-238.504 -149.939)"/>
                        <path id="Path_152" d="M35.17 177.4a10.3 10.3 0 0 1-6.93-3.173 13.754 13.754 0 0 1-3.48-5.092 14.187 14.187 0 0 1-.5-1.838 2.471 2.471 0 0 1 .234-2.178c.06-.064-.243-.025-.3.031-.855.915-.2 2.6.1 3.62a10.133 10.133 0 0 0 1.137 2.457 14.477 14.477 0 0 0 5.271 5.167 9.1 9.1 0 0 0 4.256 1.131c.065 0 .369-.124.215-.125z" transform="translate(-23.77 -159.638)"/>
                        <path id="Path_155" d="M78.8 211.612c.923 1.035.275 2.627.651 3.84.371 1.2 1.617 1.309 2.5 1.967.553.412 1.031.916 1.582 1.333a9.924 9.924 0 0 0 1.645 1.016 6.6 6.6 0 0 0 3.5.712c.1-.009.352-.173.137-.152a6.6 6.6 0 0 1-3.832-.94 10.5 10.5 0 0 1-1.65-1.159 9.542 9.542 0 0 0-1.52-1.215 12.625 12.625 0 0 1-1.332-.669 2.114 2.114 0 0 1-.822-1.6c-.1-1.064.226-2.374-.557-3.252-.062-.069-.372.046-.307.118z" transform="translate(-74.702 -202.58)"/>
                        <path id="Path_189" d="M265.992 210.172a3.282 3.282 0 0 0-2.553 4.341c.723 2.009 3.313 2.719 5.236 2.746.143 0 .341-.213.12-.216-1.614-.023-3.858-.55-4.759-2.049a3.05 3.05 0 0 1 1.921-4.607c.168-.03.259-.255.036-.215z" transform="translate(-245.459 -201.371)"/>
                        <path id="Path_192" d="M103.392 124.2a7.263 7.263 0 0 1 1.6-8.208c.02-.02-.076-.009-.094.009a7.278 7.278 0 0 0-1.615 8.227c.011.024.112-.011.1-.028z" transform="translate(-96.797 -114.179)"/>
                        <path id="Path_193" d="M92 134.363a4.86 4.86 0 0 1 1.041-3.79c.027-.033-.076-.024-.1 0a4.9 4.9 0 0 0-1.049 3.817c0 .031.109.008.1-.028z" transform="translate(-86.791 -127.668)"/>
                        <path id="Path_194" d="M99.319 227.841a5.819 5.819 0 0 1-.789-1.7c-.008-.03-.112 0-.1.028a5.853 5.853 0 0 0 .8 1.714c.016.024.117-.009.1-.038z" transform="translate(-92.882 -216.144)"/>
                        <path id="Path_195" d="M130.309 255.493a30.727 30.727 0 0 1-2.429-2.077 6.13 6.13 0 0 1-.486-.554c-.108-.141-.233-.453-.4-.523a.512.512 0 0 0-.09-.016 2.288 2.288 0 0 1-.274-.091.2.2 0 0 0-.174-.008c-.014 0-.032.015-.032.032a.626.626 0 0 0 .212.4c.154.174.3.351.457.526a15.513 15.513 0 0 0 1.177 1.219 15.742 15.742 0 0 0 2.651 1.981c.026.015.122-.024.084-.047a15.531 15.531 0 0 1-3.594-2.943 10.078 10.078 0 0 1-.788-.91c-.017-.024-.148-.205-.068-.2.034 0 .1.084.144.1.107.044.2-.012.3.08a1.8 1.8 0 0 1 .192.288c.071.1.146.2.224.292a6.75 6.75 0 0 0 .5.541c.718.7 1.526 1.309 2.3 1.946.026.021.121-.019.1-.039z" transform="translate(-118.799 -240.29)"/>
                        <path id="Path_196" d="M119.153 215.312a9.351 9.351 0 0 0 3.979 5.018c.035.021.128-.027.081-.056a9.3 9.3 0 0 1-3.956-4.99c-.014-.043-.118-.014-.1.028z" transform="translate(-112.069 -206.089)"/>
                        <path id="Path_197" d="M116.537 151.672a4.256 4.256 0 0 1 .454-2.441c.012-.024-.088-.015-.1.015a4.279 4.279 0 0 0-.454 2.454c0 .028.108.007.1-.028z" transform="translate(-109.527 -144.947)"/>
                        <path id="Path_198" d="M141.908 142.229a4.7 4.7 0 0 1 1.35-3.39c.023-.023-.076-.013-.095.006a4.729 4.729 0 0 0-1.36 3.412c0 .02.1 0 .1-.028z" transform="translate(-133.038 -135.327)"/>
                        <path id="Path_199" d="M152.376 179.308a7.805 7.805 0 0 0 2.493 6.581c.024.022.121-.017.1-.039a7.782 7.782 0 0 1-2.487-6.557c0-.035-.1-.015-.1.015z" transform="translate(-142.784 -172.772)"/>
                        <path id="Path_200" d="M140.522 212.874a4.892 4.892 0 0 1-1.481-1.822 8.956 8.956 0 0 1-.456-1.123c-.076-.224-.11-.677-.385-.748-.021-.005-.092.006-.095.034s0 .255-.08.241a1.748 1.748 0 0 1-.09-.249c-.042-.1-.079-.244-.2-.266a.158.158 0 0 0-.175.08c-.064.139.1.448.134.576a7.316 7.316 0 0 0 .455 1.176 11.73 11.73 0 0 0 3.073 3.684c.738.622 1.518 1.193 2.3 1.763.023.017.113-.025.1-.035a25.238 25.238 0 0 1-3.75-3.137 10.1 10.1 0 0 1-1.476-2.037 6.989 6.989 0 0 1-.5-1.131 3.967 3.967 0 0 1-.227-.765c-.011-.11.008-.163.1-.041a1.19 1.19 0 0 1 .121.285c.032.089.045.227.161.235.191.013.16-.3.169-.406l-.095.034c.194.05.225.3.276.458.058.185.12.37.186.552a7.865 7.865 0 0 0 .495 1.106 4.745 4.745 0 0 0 1.352 1.572c.023.017.113-.025.1-.035z" transform="translate(-129.094 -200.233)"/>
                        <path id="Path_201" d="M192.387 297.461a7.445 7.445 0 0 0 3.327 2.009 21.505 21.505 0 0 0 4.268.521c.026 0 .12-.042.066-.048a21.436 21.436 0 0 1-4.249-.517 7.415 7.415 0 0 1-3.313-2c-.02-.022-.118.015-.1.038z" transform="translate(-179.864 -282.142)"/>
                        <path id="Path_202" d="M211.325 287.991c1.772 2.387 4.887 2.857 7.635 3.215.024 0 .112-.036.086-.04-2.739-.357-5.85-.824-7.616-3.2-.018-.025-.112.017-.1.028z" transform="translate(-197.398 -273.383)"/>
                        <path id="Path_203" d="M82.108 131.651a1.129 1.129 0 0 1 .267-.616c.043-.05-.056-.069-.087-.032a1.21 1.21 0 0 0-.285.655c-.006.054.1.041.105-.007z" transform="translate(-77.678 -128.068)"/>
                        <path id="Path_204" d="M88.055 132.72a6.01 6.01 0 0 1 .364-.712c.029-.049-.076-.049-.1-.011a6.027 6.027 0 0 0-.364.712c-.023.054.081.052.1.011z" transform="translate(-83.187 -128.981)"/>
                        <path id="Path_205" d="M75.929 126.411a2.061 2.061 0 0 1 .233-.562c.006-.01-.087-.007-.1.019a2.061 2.061 0 0 0-.233.562c0 .019.1.006.1-.019z" transform="translate(-71.961 -123.31)"/>
                        <path id="Path_206" d="M105.328 116.142a6.788 6.788 0 0 1 1.748-2.137c.057-.041-.026-.084-.07-.052a6.913 6.913 0 0 0-1.778 2.174c-.03.051.075.056.1.014z" transform="translate(-99.174 -112.292)"/>
                        <path id="Path_207" d="M126.989 175.49a5.754 5.754 0 0 0 .105 2.1c.007.028.111 0 .1-.028a5.716 5.716 0 0 1-.106-2.091c0-.032-.1-.012-.1.016z" transform="translate(-119.276 -169.239)"/>
                        <path id="Path_208" d="M101.668 257.887a8.154 8.154 0 0 0 2.859 2.794c.028.019.121-.022.1-.039a8.133 8.133 0 0 1-2.852-2.782c-.016-.032-.117 0-.1.028z" transform="translate(-95.883 -245.51)"/>
                        <path id="Path_209" d="M251.1 216.965a3.515 3.515 0 0 1 .569-6.13c.062-.028-.034-.028-.06-.016A3.541 3.541 0 0 0 251 217c.024.017.114-.024.1-.036z" transform="translate(-232.694 -201.969)"/>
                        <path id="Path_210" d="M228.961 197.254a3.1 3.1 0 0 0-.742 1.344 2.138 2.138 0 0 0-.037.751 1.83 1.83 0 0 0 .106.421l.038.09a1.2 1.2 0 0 0 .059.117q.079.106-.074.213c-.029-.027-.1 0-.092.045s.1.261-.014.255c-.051 0-.117-.21-.13-.246a2.215 2.215 0 0 1-.1-.583 4.306 4.306 0 0 1 .088-1.311 3.71 3.71 0 0 1 1.79-2.348c.061-.035.006-.095-.047-.065a3.8 3.8 0 0 0-1.942 3.039 2.966 2.966 0 0 0 .158 1.418c.052.107.181.312.329.237.178-.09 0-.312-.027-.424l-.092.045a.2.2 0 0 0 .3-.037c.042-.065.028-.105.005-.178-.058-.187-.178-.346-.222-.543a2.548 2.548 0 0 1 .733-2.206c.044-.049-.055-.07-.088-.033z" transform="translate(-212.692 -188.19)"/>
                        <path id="Path_211" d="M209.189 190.35a3.826 3.826 0 0 1 .915-4c.041-.047-.059-.05-.084-.021a3.876 3.876 0 0 0-.935 4.051c.017.039.12.007.1-.028z" transform="translate(-195.086 -179.285)"/>
                        <path id="Path_212" d="M190.066 185.476c-1.838-1.92-3.27-4.584-2.424-7.294.014-.046-.092-.034-.1.009-.85 2.72.588 5.4 2.433 7.33.031.032.13-.009.1-.045z" transform="translate(-175.145 -171.735)"/>
                        <path id="Path_458" d="M190.066 185.476c-1.838-1.92-3.27-4.584-2.424-7.294.014-.046-.092-.034-.1.009-.85 2.72.588 5.4 2.433 7.33.031.032.13-.009.1-.045z" transform="translate(-177.045 -172.685)"/>
                        <path id="Path_213" d="M176.792 158.7a3.861 3.861 0 0 1 .818-2.573s-.084 0-.1.02a3.874 3.874 0 0 0-.82 2.581c0 .014.105 0 .1-.028z" transform="translate(-165.329 -151.344)"/>
                        <path id="Path_214" d="M220.694 255.464a8.461 8.461 0 0 0 5.675 4.358c.024.005.113-.033.086-.039a8.437 8.437 0 0 1-5.657-4.347c-.012-.024-.111.013-.1.028z" transform="translate(-206.071 -243.272)"/>
                        <path id="Path_215" d="M241.2 205.129a4.346 4.346 0 0 1 2.654-4.214c.066-.028.007-.075-.044-.054a4.426 4.426 0 0 0-2.715 4.277c0 .05.107.031.1-.01z" transform="translate(-225.045 -192.657)"/>
                        <path id="Path_216" d="M219.168 189.857a3.845 3.845 0 0 1 2.095-4c.064-.032.006-.081-.044-.056a3.925 3.925 0 0 0-2.154 4.088c.006.044.111.019.1-.028z" transform="translate(-204.62 -178.805)"/>
                        <path id="Path_217" d="M196.731 186.328a7.321 7.321 0 0 1-1.093-2.712 3.87 3.87 0 0 1 .353-2.78c.027-.043-.078-.036-.1 0a3.855 3.855 0 0 0-.375 2.72 7.358 7.358 0 0 0 1.117 2.818c.021.031.121 0 .1-.042z" transform="translate(-182.686 -174.191)"/>
                        <path id="Path_218" d="M179.442 207a4.774 4.774 0 0 1-.622-1.9c0-.045-.109-.021-.1.028a4.818 4.818 0 0 0 .631 1.916c.022.038.122 0 .1-.045z" transform="translate(-167.21 -196.656)"/>
                        <path id="Path_219" d="M242.1 267.257a4.264 4.264 0 0 0 1.431 1.8 8.979 8.979 0 0 0 2.077 1.276 8.186 8.186 0 0 0 1.663.444c.582.112 1.164.222 1.748.318a11.274 11.274 0 0 0 1.739.205c.033 0 .112-.05.043-.05a18.139 18.139 0 0 1-3.2-.471 11.192 11.192 0 0 1-1.523-.343 8.065 8.065 0 0 1-2.178-1.206 4.6 4.6 0 0 1-1.7-2c-.011-.03-.114 0-.1.028z" transform="translate(-225.891 -254.185)"/>
                        <path id="Path_220" d="M240.722 292.531a10.885 10.885 0 0 0 6.09 2.355c.038 0 .111-.052.041-.057a10.8 10.8 0 0 1-6.035-2.338c-.028-.022-.124.018-.1.04z" transform="translate(-224.607 -277.576)"/>
                        <path id="Path_221" d="M258.687 267.138c.942 2.459 3.81 2.975 6.132 2.994.046 0 .107-.069.037-.07-2.294-.019-5.135-.521-6.066-2.952-.017-.043-.12-.014-.1.028z" transform="translate(-241.241 -254.066)"/>
                        <path id="Path_230" d="M145.461 129.25a2.677 2.677 0 0 1 1.421-1.367c.066-.027.007-.073-.043-.052a2.778 2.778 0 0 0-1.476 1.412c-.023.05.081.043.1.007z" transform="translate(-136.331 -125.145)"/>
                        <path id="Path_231" d="M119.7 122.286a3.5 3.5 0 0 1 1.455-1.92c.045-.029-.059-.023-.081-.009a3.555 3.555 0 0 0-1.474 1.943c-.008.027.094.014.1-.016z" transform="translate(-112.484 -118.22)"/>
                        <path id="Path_232" d="M154.348 145.026a2.942 2.942 0 0 1 1.171-2.164c.056-.042-.029-.069-.067-.041a3.018 3.018 0 0 0-1.208 2.215c0 .05.1.032.1-.01z" transform="translate(-144.554 -139.016)"/>
                        <path id="Path_233" d="M174.033 145.966a3.464 3.464 0 0 1 1.219-1.972c.047-.038-.056-.042-.084-.02a3.526 3.526 0 0 0-1.239 2c-.009.041.1.025.1-.012z" transform="translate(-162.778 -140.082)"/>
                        <path id="Path_234" d="M183.28 163.122a3.133 3.133 0 0 1 .784-1.34c.045-.046-.054-.064-.087-.03a3.214 3.214 0 0 0-.8 1.378c-.014.049.092.037.105-.008z" transform="translate(-171.337 -156.535)"/>
                        <path id="Path_235" d="M201.756 184.16a2.968 2.968 0 0 1 1.044-2.549c.023-.02-.074-.011-.095.006a3 3 0 0 0-1.054 2.571c0 .022.107 0 .1-.028z" transform="translate(-188.431 -174.925)"/>
                        <path id="Path_236" d="M215.494 186.193a5.051 5.051 0 0 1 1.463-2.229c.047-.042-.054-.055-.086-.027a5.124 5.124 0 0 0-1.482 2.265c-.014.045.091.033.1-.009z" transform="translate(-201.254 -176.981)"/>
                        <path id="Path_237" d="M225.992 191.24a3.876 3.876 0 0 1 1.948-2.333c.064-.032.006-.072-.042-.048a3.975 3.975 0 0 0-2.01 2.392c-.012.04.093.026.1-.012z" transform="translate(-210.973 -181.544)"/>
                        <path id="Path_238" d="M238.332 198.427a4.406 4.406 0 0 1 2.693-2.45c.062-.02.046-.085-.017-.065a4.523 4.523 0 0 0-2.775 2.506c-.022.052.082.047.1.009z" transform="translate(-222.495 -188.077)"/>
                        <path id="Path_239" d="M88.082 187.936a6.97 6.97 0 0 0 .335 2.031c.009.029.113 0 .1-.028a6.966 6.966 0 0 1-.335-2.031c0-.024-.1-.006-.1.028z" transform="translate(-83.306 -180.755)"/>
                        <path id="Path_240" d="M96.9 198.925a7.794 7.794 0 0 0 1.888 4.228c.023.026.122-.011.1-.04A7.768 7.768 0 0 1 97 198.9c0-.033-.108-.01-.1.028z" transform="translate(-91.468 -190.924)"/>
                        <path id="Path_241" d="M113.759 190.934a6.331 6.331 0 0 0 .238.952c.008.023.111-.007.1-.028a6.323 6.323 0 0 1-.237-.952c0-.02-.108 0-.1.028z" transform="translate(-107.077 -183.534)"/>
                        <path id="Path_242" d="M122 194.288a11.1 11.1 0 0 0 2.846 5.338c.026.027.125-.012.1-.041a11.064 11.064 0 0 1-2.839-5.325c-.008-.037-.112-.011-.1.028z" transform="translate(-114.702 -186.629)"/>
                        <path id="Path_243" d="M133.851 156.931a5.06 5.06 0 0 1 .31-3.447c.006-.011-.088-.007-.1.019a5.073 5.073 0 0 0-.312 3.456c0 .019.108 0 .1-.028z" transform="translate(-125.437 -148.892)"/>
                        <path id="Path_253" d="M145.923 290.581a9.656 9.656 0 0 0 4.867 3.047c.04.011.123-.049.061-.065a9.584 9.584 0 0 1-4.833-3.026c-.028-.032-.127.007-.1.044z" transform="translate(-136.846 -275.762)"/>
                        <path id="Path_254" d="M200.283 315.8a24.8 24.8 0 0 0 2.43 1.19c.029.012.124-.031.083-.048a24.817 24.817 0 0 1-2.43-1.19c-.028-.016-.124.026-.083.048z" transform="translate(-187.167 -299.113)"/>
                        <path id="Path_255" d="M230.128 312.684a18.134 18.134 0 0 0 3.8 1.339c.037.009.123-.047.062-.061a18.036 18.036 0 0 1-3.779-1.332c-.033-.016-.128.031-.082.053z" transform="translate(-214.793 -296.224)"/>
                        <path id="Path_256" d="M61.081 115.481a2.455 2.455 0 0 1-.975-1.531 1.4 1.4 0 0 1 .787-1.49c.068-.027.005-.052-.039-.035a1.426 1.426 0 0 0-.862 1.265 2.3 2.3 0 0 0 .992 1.83c.025.021.12-.02.1-.038z" transform="translate(-57.3 -110.882)"/>
                        <path id="Path_257" d="M53.208 110.369a2.184 2.184 0 0 1 .761-2.07c.045-.037-.058-.036-.083-.016a2.232 2.232 0 0 0-.786 2.117c.006.034.11.009.1-.028z" transform="translate(-50.894 -107.041)"/>
                        <path id="Path_258" d="M50.56 104.65a1.61 1.61 0 0 1 .656-.815c.059-.038-.028-.064-.067-.04a1.684 1.684 0 0 0-.688.848c-.019.053.084.045.1.007z" transform="translate(-48.478 -102.89)"/>
                        <path id="Path_259" d="M203.186 160.119a.463.463 0 0 1 .025-.573c.042-.048-.058-.058-.086-.026a.515.515 0 0 0-.035.642c.025.035.124 0 .1-.044z" transform="translate(-189.686 -154.468)"/>
                        <path id="Path_260" d="M213.29 160.556a.285.285 0 0 1 .017-.459c.062-.034.006-.085-.045-.057a.345.345 0 0 0-.053.574c.035.026.127-.024.081-.058z" transform="translate(-199.021 -154.959)"/>
                        <path id="Path_261" d="M222.811 158.791a.184.184 0 0 1 .073-.2c.018-.012.011-.022-.007-.026a.115.115 0 0 0-.074.02.218.218 0 0 0-.1.231c.006.025.11 0 .1-.028z" transform="translate(-207.93 -153.603)"/>
                        <path id="Path_269" d="M32.412 172.853a5.054 5.054 0 0 0 .464 2.529c.016.035.118 0 .1-.028a5.029 5.029 0 0 1-.464-2.515c0-.04-.1-.02-.1.014z" transform="translate(-31.757 -166.795)"/>
                        <path id="Path_270" d="M43.19 215.63a14.915 14.915 0 0 0 2.192 4.135c.017.022.117-.012.1-.037a14.877 14.877 0 0 1-2.186-4.125c-.01-.029-.113 0-.1.028z" transform="translate(-41.747 -206.392)"/>
                        <path id="Path_271" d="M59.231 148.311a2.239 2.239 0 0 0 .372.52 3.287 3.287 0 0 0 .542.345.842.842 0 0 1 .2 1.306c-.023.025.077.014.095-.006a.853.853 0 0 0 .057-1.118 2.064 2.064 0 0 0-.589-.407 1.775 1.775 0 0 1-.573-.667c-.016-.027-.114.011-.1.028z" transform="translate(-56.598 -144.075)"/>
                        <path id="Path_272" d="M77.775 156.814a.829.829 0 0 1 .236 1.01c-.013.028.088.018.1-.014a.853.853 0 0 0-.243-1.036c-.027-.022-.123.019-.1.04z" transform="translate(-73.76 -151.938)"/>
                        <path id="Path_273" d="M63.089 163.887a1.186 1.186 0 0 1 .331 1.557c-.028.041.077.035.1 0a1.222 1.222 0 0 0-.333-1.6c-.029-.026-.127.014-.1.042z" transform="translate(-60.164 -158.671)"/>
                        <path id="Path_274" d="M65.923 91.754a1.16 1.16 0 0 0 .828 1.233c.025.008.093 0 .094-.037v-.077c0-.024-.1-.008-.1.028v.077l.094-.037a1.136 1.136 0 0 1-.809-1.2c0-.035-.1-.014-.1.015z" transform="translate(-62.789 -91.72)"/>
                        <path id="Path_275" d="M72.935 95.3a1 1 0 0 0 .527.762c.033.018.128-.029.082-.054a.956.956 0 0 1-.5-.736c0-.039-.109-.015-.1.028z" transform="translate(-69.283 -94.994)"/>
                    </g>
                </g>
            </g>
        </g>
        <path id="Path_478" d="M.15-21.855h4.505a2.031 2.031 0 0 1 1.166.317 1.453 1.453 0 0 1 .611.841L9.6-8.641q.159.587.317 1.253a11.292 11.292 0 0 1 .238 1.4q.159-.746.349-1.4t.365-1.245L14.617-20.7a1.661 1.661 0 0 1 .611-.8 1.815 1.815 0 0 1 1.134-.357h1.586a1.993 1.993 0 0 1 1.15.309 1.591 1.591 0 0 1 .627.849l3.712 12.058q.174.555.365 1.182t.333 1.34q.127-.7.262-1.332t.278-1.19L27.846-20.7a1.509 1.509 0 0 1 .6-.809 1.878 1.878 0 0 1 1.142-.349h4.219L26.673 1.257h-4.854l-4.347-14.324q-.111-.333-.23-.73t-.23-.841q-.111.444-.23.841t-.23.73l-4.41 14.324H7.288z" transform="translate(21.435 24.035)"/>
        <path id="Path_479" d="M14.047.763h-2.494a1.153 1.153 0 0 1-.69-.2 1.008 1.008 0 0 1-.376-.5L9.669-2.35H4.4L3.578.068a1.072 1.072 0 0 1-.371.481 1.069 1.069 0 0 1-.676.214H.018L5.386-13.1h3.293zm-8.909-5.3h3.789l-1.275-3.8-.29-.852q-.167-.49-.328-1.061-.152.581-.314 1.075t-.3.857zm6.986-8.563h2.589a1.151 1.151 0 0 1 .685.19 1.043 1.043 0 0 1 .381.5l2.684 7.424q.181.485.366 1.056t.347 1.2q.133-.628.309-1.2t.347-1.056L22.5-12.41a1.072 1.072 0 0 1 .371-.481 1.069 1.069 0 0 1 .676-.214h2.608L20.6.763h-2.917zm20.025-.152a5.335 5.335 0 0 1 1.827.29 4.088 4.088 0 0 1 1.352.785 3.314 3.314 0 0 1 .838 1.147 3.391 3.391 0 0 1 .286 1.375 4.509 4.509 0 0 1-.134 1.155 2.649 2.649 0 0 1-.395.866 2.472 2.472 0 0 1-.647.623 3.849 3.849 0 0 1-.88.428 3.079 3.079 0 0 1 2.3 3.131 4.335 4.335 0 0 1-.4 1.923A3.954 3.954 0 0 1 35.229-.17a4.581 4.581 0 0 1-1.556.814 6.266 6.266 0 0 1-1.846.271A6.593 6.593 0 0 1 30.065.7a4.054 4.054 0 0 1-1.37-.666 4.413 4.413 0 0 1-1.052-1.156 7.756 7.756 0 0 1-.785-1.678l1.313-.533a1.425 1.425 0 0 1 .338-.1 1.941 1.941 0 0 1 .328-.029 1.227 1.227 0 0 1 .547.119.811.811 0 0 1 .367.343 3.456 3.456 0 0 0 .909 1.15 1.84 1.84 0 0 0 1.128.357 2.065 2.065 0 0 0 .861-.167 1.877 1.877 0 0 0 .609-.428 1.776 1.776 0 0 0 .366-.595 1.927 1.927 0 0 0 .124-.676 4.737 4.737 0 0 0-.062-.8 1.05 1.05 0 0 0-.347-.614 1.964 1.964 0 0 0-.861-.395 7.236 7.236 0 0 0-1.6-.138v-2.041a5.957 5.957 0 0 0 1.4-.133 2.14 2.14 0 0 0 .823-.366 1.105 1.105 0 0 0 .385-.566 2.662 2.662 0 0 0 .1-.733 1.832 1.832 0 0 0-.395-1.261 1.532 1.532 0 0 0-1.2-.443 1.859 1.859 0 0 0-.609.1 1.83 1.83 0 0 0-.495.257 1.712 1.712 0 0 0-.376.381 2.01 2.01 0 0 0-.252.476 1.374 1.374 0 0 1-.385.619.972.972 0 0 1-.633.19q-.1 0-.2-.01t-.241-.033l-1.561-.276a5.207 5.207 0 0 1 .585-1.808 4.352 4.352 0 0 1 1.076-1.286A4.364 4.364 0 0 1 30.37-13a6.079 6.079 0 0 1 1.78-.257z" transform="translate(55.599 15.276)"/>
        <path id="Path_480" d="M1.592-2.191v2.53H.776v-6.062h1.713a3.743 3.743 0 0 1 .994.116 1.9 1.9 0 0 1 .692.336 1.347 1.347 0 0 1 .4.531 1.774 1.774 0 0 1 .131.7 1.744 1.744 0 0 1-.1.6 1.586 1.586 0 0 1-.294.5 1.759 1.759 0 0 1-.47.379 2.324 2.324 0 0 1-.628.237.867.867 0 0 1 .271.258L5.256.339h-.728A.359.359 0 0 1 4.2.165L2.625-2a.458.458 0 0 0-.157-.146.564.564 0 0 0-.254-.044zm0-.6h.859a2.091 2.091 0 0 0 .632-.087 1.287 1.287 0 0 0 .457-.245 1.018 1.018 0 0 0 .277-.377 1.236 1.236 0 0 0 .093-.486.966.966 0 0 0-.357-.814 1.728 1.728 0 0 0-1.064-.275h-.9zm7.437-1.223a1.913 1.913 0 0 1 .711.129 1.6 1.6 0 0 1 .563.372 1.7 1.7 0 0 1 .37.6 2.321 2.321 0 0 1 .133.814.491.491 0 0 1-.038.237.158.158 0 0 1-.144.059H7.773a2.366 2.366 0 0 0 .11.706 1.444 1.444 0 0 0 .279.5 1.119 1.119 0 0 0 .423.3 1.453 1.453 0 0 0 .55.1 1.613 1.613 0 0 0 .488-.063 2.324 2.324 0 0 0 .353-.14 2.694 2.694 0 0 0 .247-.142.328.328 0 0 1 .177-.067.166.166 0 0 1 .144.072l.212.275a1.43 1.43 0 0 1-.334.294A2.081 2.081 0 0 1 10 .237a2.646 2.646 0 0 1-.459.121 2.8 2.8 0 0 1-.47.04 2.179 2.179 0 0 1-.819-.15 1.8 1.8 0 0 1-.647-.44 2.018 2.018 0 0 1-.425-.717 2.916 2.916 0 0 1-.152-.981 2.5 2.5 0 0 1 .137-.838 1.974 1.974 0 0 1 .4-.675 1.821 1.821 0 0 1 .63-.448 2.069 2.069 0 0 1 .834-.163zm.017.554a1.156 1.156 0 0 0-.859.315 1.483 1.483 0 0 0-.389.874h2.331a1.525 1.525 0 0 0-.072-.48 1.07 1.07 0 0 0-.212-.376.947.947 0 0 0-.345-.246 1.148 1.148 0 0 0-.454-.087zM16-3.185a.336.336 0 0 1-.068.072.16.16 0 0 1-.1.025.242.242 0 0 1-.132-.052 2 2 0 0 0-.188-.116 1.576 1.576 0 0 0-.277-.116 1.307 1.307 0 0 0-.4-.053 1.3 1.3 0 0 0-.554.112 1.075 1.075 0 0 0-.4.324 1.464 1.464 0 0 0-.245.512 2.539 2.539 0 0 0-.082.673 2.457 2.457 0 0 0 .089.692 1.5 1.5 0 0 0 .25.508 1.065 1.065 0 0 0 .391.313 1.208 1.208 0 0 0 .518.108 1.325 1.325 0 0 0 .453-.066 1.379 1.379 0 0 0 .3-.146 2.17 2.17 0 0 0 .195-.146.234.234 0 0 1 .152-.066.159.159 0 0 1 .144.072l.212.275a1.628 1.628 0 0 1-.7.5 2.475 2.475 0 0 1-.895.16 1.872 1.872 0 0 1-.746-.15 1.7 1.7 0 0 1-.6-.429 2.037 2.037 0 0 1-.4-.692 2.78 2.78 0 0 1-.146-.935 2.821 2.821 0 0 1 .133-.884 2 2 0 0 1 .389-.7 1.764 1.764 0 0 1 .632-.459 2.131 2.131 0 0 1 .863-.165 2.036 2.036 0 0 1 .8.146 1.9 1.9 0 0 1 .613.412zm4.074-.829a2.2 2.2 0 0 1 .848.157 1.788 1.788 0 0 1 .643.444 1.966 1.966 0 0 1 .406.7 2.767 2.767 0 0 1 .142.912 2.762 2.762 0 0 1-.142.914 1.969 1.969 0 0 1-.406.694 1.766 1.766 0 0 1-.643.442 2.228 2.228 0 0 1-.848.151 2.228 2.228 0 0 1-.848-.154A1.786 1.786 0 0 1 18.58-.2a1.978 1.978 0 0 1-.41-.694 2.725 2.725 0 0 1-.144-.914 2.73 2.73 0 0 1 .144-.912 1.975 1.975 0 0 1 .41-.7 1.809 1.809 0 0 1 .645-.444 2.2 2.2 0 0 1 .849-.15zm0 3.824a1.1 1.1 0 0 0 .948-.425 1.968 1.968 0 0 0 .312-1.185 1.986 1.986 0 0 0-.313-1.193 1.1 1.1 0 0 0-.948-.427 1.315 1.315 0 0 0-.558.11 1.045 1.045 0 0 0-.4.317 1.409 1.409 0 0 0-.237.51 2.732 2.732 0 0 0-.078.683 2.707 2.707 0 0 0 .078.681 1.388 1.388 0 0 0 .237.505 1.053 1.053 0 0 0 .4.315 1.315 1.315 0 0 0 .559.109zm4.281.529v-4.285h.431a.238.238 0 0 1 .169.047.285.285 0 0 1 .063.161l.051.668a1.96 1.96 0 0 1 .544-.7 1.2 1.2 0 0 1 .759-.252 1.194 1.194 0 0 1 .321.04 1.121 1.121 0 0 1 .266.112l-.1.563a.127.127 0 0 1-.131.106.658.658 0 0 1-.182-.04 1.147 1.147 0 0 0-.343-.04.971.971 0 0 0-.658.228 1.715 1.715 0 0 0-.442.664V.339zm7.737 0a.192.192 0 0 1-.2-.157l-.068-.52a2.256 2.256 0 0 1-.632.538 1.609 1.609 0 0 1-.81.2 1.547 1.547 0 0 1-.668-.142A1.386 1.386 0 0 1 29.2-.16a1.985 1.985 0 0 1-.326-.685 3.528 3.528 0 0 1-.114-.943 2.957 2.957 0 0 1 .127-.882 2.15 2.15 0 0 1 .366-.709 1.715 1.715 0 0 1 .582-.472 1.717 1.717 0 0 1 .778-.171 1.551 1.551 0 0 1 .673.133 1.613 1.613 0 0 1 .5.374v-2.377h.753V.339zm-1.459-.55a1.213 1.213 0 0 0 .645-.169 1.86 1.86 0 0 0 .51-.478v-2.073a1.191 1.191 0 0 0-.455-.391 1.312 1.312 0 0 0-.548-.112 1.085 1.085 0 0 0-.922.427 2 2 0 0 0-.321 1.218 3.1 3.1 0 0 0 .072.717 1.38 1.38 0 0 0 .212.491.831.831 0 0 0 .343.281 1.151 1.151 0 0 0 .463.089zm6.936-3.029a.167.167 0 0 1-.157.093.294.294 0 0 1-.144-.047q-.08-.047-.2-.1A1.848 1.848 0 0 0 36.8-3.4a1.322 1.322 0 0 0-.381-.049 1.123 1.123 0 0 0-.343.049.823.823 0 0 0-.26.133.589.589 0 0 0-.165.2.528.528 0 0 0-.057.243.405.405 0 0 0 .1.275.827.827 0 0 0 .252.19 2.194 2.194 0 0 0 .355.142q.2.061.408.131t.408.154a1.481 1.481 0 0 1 .355.212.967.967 0 0 1 .252.311.952.952 0 0 1 .1.442 1.4 1.4 0 0 1-.106.548 1.2 1.2 0 0 1-.313.436 1.509 1.509 0 0 1-.508.29 2.085 2.085 0 0 1-.694.106 2.164 2.164 0 0 1-.812-.146 2.058 2.058 0 0 1-.618-.374l.165-.293a.258.258 0 0 1 .08-.085.226.226 0 0 1 .123-.03.283.283 0 0 1 .161.059q.085.059.205.131a1.579 1.579 0 0 0 .292.131 1.33 1.33 0 0 0 .429.059 1.177 1.177 0 0 0 .385-.057.809.809 0 0 0 .275-.154.611.611 0 0 0 .163-.224.7.7 0 0 0 .049-.271.449.449 0 0 0-.1-.294.8.8 0 0 0-.252-.2 2.051 2.051 0 0 0-.357-.144q-.2-.061-.41-.129t-.41-.154a1.442 1.442 0 0 1-.357-.218.987.987 0 0 1-.244-.32 1.046 1.046 0 0 1-.1-.467 1.14 1.14 0 0 1 .1-.472 1.157 1.157 0 0 1 .3-.4 1.458 1.458 0 0 1 .478-.273 1.913 1.913 0 0 1 .647-.1 2.047 2.047 0 0 1 .759.133 1.8 1.8 0 0 1 .582.366z" transform="translate(54.497 24.406)"/>
    </g>
</svg>
